<svg id="Raggruppa_12" data-name="Raggruppa 12" xmlns="http://www.w3.org/2000/svg" xmlns:xlink="http://www.w3.org/1999/xlink" width="161.628" height="144.476" viewBox="0 0 161.628 144.476">
  <defs>
    <clipPath id="clip-path">
      <rect id="Rettangolo_12" data-name="Rettangolo 12" width="161.628" height="144.476" fill="none"/>
    </clipPath>
  </defs>
  <g id="Raggruppa_11" data-name="Raggruppa 11" clip-path="url(#clip-path)">
    <path id="Tracciato_49007" data-name="Tracciato 49007" d="M1.062,52.744a.249.249,0,0,0,.063-.374c.429-.6.489-1.42,1.129-1.892.727.182,1.062.5.689,1.324-.366.808-1.347,1.617-.248,2.585-.254.5-1.3.747-.512,1.586l-1.13.02q-.021-1.353-.041-2.706c.017-.181.033-.362.05-.543" fill="#355361"/>
    <path id="Tracciato_49008" data-name="Tracciato 49008" d="M2.183,55.972c-.789-.838.258-1.084.512-1.585.635-1.412,1.565-2.38,3.274-2.183-.048.251-.01.588-.159.737-.721.722-.494.942.408.889.259-.015.519-.015.778-.022,1.3-.55,1.166.367,1.175,1.142-.249.322.5,1.162-.556,1.066-.126-.24.294-1.022-.547-.551a1.112,1.112,0,0,0-.537,1.1,2.18,2.18,0,0,0-.037.523l.005-.017c-.48-.021-.8-.146-.665-.75.165-.756-.41-.79-.923-.855a1.8,1.8,0,0,0-.89,1.2c-.3,1.05.355.569.778.416.179.514,1.113,1.045.944,1.1-1.112.393-.3,1.917-1.406,2.195l-.623.042c-1.422-.77-.938-2.144-1.054-3.328a1.027,1.027,0,0,0-.477-1.127" fill="#25658c"/>
    <path id="Tracciato_49009" data-name="Tracciato 49009" d="M5.969,52.205c-1.708-.2-2.639.77-3.274,2.182-1.1-.968-.118-1.777.248-2.585.373-.824.038-1.142-.689-1.324a2,2,0,0,1-.077-.453,1.109,1.109,0,0,0,.565-1.069.937.937,0,0,1,.391-.017c.858.07,1.208-.663,1.743-1.1,1.044.035,2.216-.244,2.721,1.11l-1.628,3.26" fill="#35779e"/>
    <path id="Tracciato_49010" data-name="Tracciato 49010" d="M2.183,55.972A1.029,1.029,0,0,1,2.661,57.1l-1.244-.018q-.2-.557-.406-1.114l.041.026,1.131-.021" fill="#23403f"/>
    <path id="Tracciato_49011" data-name="Tracciato 49011" d="M29.6,51.233a.654.654,0,0,0,.609.462l.532,1.086q-.006,1.287-.013,2.572A7.232,7.232,0,0,0,29.109,58.1a1.092,1.092,0,0,0-.561,1.081,1.125,1.125,0,0,0-.507,1.127,5.245,5.245,0,0,0-1.115,3.251A2.013,2.013,0,0,0,25.8,65.17a1.161,1.161,0,0,0-.506,1.11l.019,0-.621.6-.953-.517L24.781,65.3q.028-1.4.058-2.79c1.431-.887,1.43-1.109-.011-2.707l0,0c.371-.235.737-.479,1.115-.7.683-.4.3,1.007,1,.636-.172-2.327-.172-2.327,1.153-3.752q-.267-.275-.536-.548c0-.183,0-.366,0-.549,1.525-1.111,1.523-2.171-.006-3.274-.033-1.424-1.661-1.246-2.184-2.177q.3-.567.6-1.134a1.252,1.252,0,0,1,1.064.579l-.017.041c-.461.17-.371.314.021.444a1.319,1.319,0,0,0,.942.745.6.6,0,0,0,.635.447,1.229,1.229,0,0,0,.98.669" fill="#163545"/>
    <path id="Tracciato_49012" data-name="Tracciato 49012" d="M10.894,42.324l1.085.089a1.464,1.464,0,0,1-1.671.437,1.433,1.433,0,0,1,.162-.428.312.312,0,0,0,.424-.1" fill="#293948"/>
    <path id="Tracciato_49013" data-name="Tracciato 49013" d="M10.308,42.85a1.464,1.464,0,0,0,1.671-.437q.316-.244.635-.487c.718.045,1.44-.262,2.156.021.93,1.019,2.352,1.208,3.346,2.391A4.539,4.539,0,0,0,22.922,45.6l.024.02a.6.6,0,0,0,.626.471l-.124.073.118-.084a3.494,3.494,0,0,0-.658,1.747L21.8,46.742c-.541-.159-1.08-.864-1.624-.005l-1.1.012q-.263,0-.525,0h-.564c-.738.536-.564,1.528-1.087,2.172l-1.055-.073c-.747-1.073-.633-.993.187-2.178.31-.448,1.246-.559.916-1.524-.87-.11-1.983.175-2.5-1a.64.64,0,0,0-.923-.24c-1.886.913-3.969.028-5.886.649,0-.155,0-.31,0-.465a.3.3,0,0,1,.365-.159.707.707,0,0,0,.717-.407.28.28,0,0,1,.349-.152,1,1,0,0,0,1.249-.515Z" fill="#0f2636"/>
    <path id="Tracciato_49014" data-name="Tracciato 49014" d="M22.922,45.6a4.539,4.539,0,0,1-4.806-1.265c-.995-1.184-2.417-1.372-3.346-2.392l1.549-.071c.6.57,1.4.447,2.11.629a1.163,1.163,0,0,0,1.089.55,3.477,3.477,0,0,0,2.151,1.125.558.558,0,0,0,.6.447l.021-.012a.566.566,0,0,0,.6.51v-.008a2.482,2.482,0,0,1,.039.487" fill="#173549"/>
    <path id="Tracciato_49015" data-name="Tracciato 49015" d="M25.6,46.657c.021.2.041.4.061.6l-.583.056c-.857-.393-1.255,1.159-2.172.513a3.485,3.485,0,0,1,.658-1.747l.945.147c.233.477.655.47,1.091.426" fill="#173549"/>
    <path id="Tracciato_49016" data-name="Tracciato 49016" d="M23.572,46.094a.6.6,0,0,1-.627-.471.581.581,0,0,1,.627.471" fill="#173549"/>
    <path id="Tracciato_49017" data-name="Tracciato 49017" d="M27.039,49.371c-.392-.13-.482-.274-.021-.444a.345.345,0,0,1,.021.444" fill="#92a98c"/>
    <path id="Tracciato_49018" data-name="Tracciato 49018" d="M4.978,45.729a.651.651,0,0,0,.6-.473L6.418,45l.168.163-.574,1.135a1.162,1.162,0,0,1-1.1.407,1.818,1.818,0,0,0-.02-.483,3.889,3.889,0,0,0,.084-.49" fill="#293948"/>
    <path id="Tracciato_49019" data-name="Tracciato 49019" d="M6.418,45a3,3,0,0,0,.081-.451l.019-.014c.174,0,.347-.01.52-.017-.151.215-.3.43-.451.646Z" fill="#293948"/>
    <path id="Tracciato_49020" data-name="Tracciato 49020" d="M4.894,46.218a1.825,1.825,0,0,1,.019.484c-.012.378-.025.755-.037,1.133-.535.44-.885,1.173-1.743,1.1.091-.229.182-.46.273-.688a.294.294,0,0,0,.251-.365q.061-.306.124-.612a1.465,1.465,0,0,0,.641-1c.157-.022.314-.04.472-.053" fill="#3c4e5d"/>
    <path id="Tracciato_49021" data-name="Tracciato 49021" d="M3.657,47.885a.293.293,0,0,1-.251.365.648.648,0,0,1-.088-.359,2.133,2.133,0,0,1,.339-.006" fill="#35779e"/>
    <path id="Tracciato_49022" data-name="Tracciato 49022" d="M3.714,60.428l.624-.042a4.113,4.113,0,0,0,.24.663,3.154,3.154,0,0,0,1.966-3.362c1.472-.194,2.363.1,1.686,1.876-.126.33.215.621.514.819l1.008-.522.6.016c-.62,1.423-1.854,1.5-3.147,1.42-.3-.019-.532.015-.6.328-.057.274.043.636.326.6.756-.106,1.735-.574.907.891.634.247,1.4.041,1.957.55,0,.179,0,.357,0,.536-.882.476-.216,1.718-1.088,2.2-.566.25-1.11.452-1.112-.515.228-.1.609-.154.659-.312a.961.961,0,0,0-.669-1.23,2.615,2.615,0,0,0-1.544-.024c-.276.091.07.363.287.438.68.233.293.674.217,1.056C4.2,64.759,3.774,62.69,3.714,60.428" fill="#1e5e80"/>
    <path id="Tracciato_49023" data-name="Tracciato 49023" d="M3.714,60.428c.06,2.262.486,4.331,2.841,5.382l-.02.026c.395.977.874,1.844,2.162,1.655v0a2.013,2.013,0,0,1-1.243,1.157,8.01,8.01,0,0,1-3.794-3.658,2.2,2.2,0,0,0-2.6-1.314c-.258-.511.962-1.587-.609-1.6A1.256,1.256,0,0,1,0,60.978c.445-.459,1.081-.472,1.627-.7.821-.665.725-1.353.053-2.056L1.044,57.11a.312.312,0,0,0,.371-.028l1.246.017c.115,1.184-.369,2.558,1.053,3.329" fill="#24494b"/>
    <path id="Tracciato_49024" data-name="Tracciato 49024" d="M10.355,59.876l-.6-.016c-.084-.3-.293-.475-.587-.369-.4.146-.448.514-.422.891-.3-.2-.639-.49-.513-.82.676-1.774-.215-2.069-1.686-1.876l-.045-.61-.005.017c.392-.147.42-.321.037-.523a1.11,1.11,0,0,1,.537-1.1l.547.551c1.052.1.307-.745.555-1.067a4.925,4.925,0,0,1,3.264,0c-.007.161-.017.322-.033.483-1.446.184-.906,1.839-1.914,2.3.566.75,1.566.229,1.944,1.007a1.678,1.678,0,0,0-1.049,1.136Zm-1.117-3.86c-.314.156-.623.509-.262.682.42.2.6-.343.748-.7-.18-.561-.333-.3-.486.015" fill="#408fae"/>
    <path id="Tracciato_49025" data-name="Tracciato 49025" d="M11.434,54.947a4.928,4.928,0,0,0-3.263,0c-.008-.774.122-1.692-1.173-1.141.272-.542-.573-1.181.146-1.685l.986.031q.306-.25.613-.5c.837-.132,1.878-1.011,2.236.61C10.6,53.8,10.6,53.8,12.5,53.8c.223.2.316.427-.049.526-.411.112-.823.177-1.02.622" fill="#28607e"/>
    <path id="Tracciato_49026" data-name="Tracciato 49026" d="M6.5,57.076l.045.61a3.155,3.155,0,0,1-1.966,3.363,4.113,4.113,0,0,1-.24-.663c1.108-.278.293-1.8,1.405-2.2.169-.06-.765-.59-.943-1.1l.111-1.615c.514.065,1.088.1.923.855-.132.6.186.729.665.75" fill="#4295b8"/>
    <path id="Tracciato_49027" data-name="Tracciato 49027" d="M7.144,52.123c-.719.5.126,1.143-.146,1.685-.261.007-.521.007-.78.022-.9.052-1.128-.168-.408-.889.15-.15.111-.486.16-.737L7.6,48.944c.013.167.028.333.044.5-.252,1.045.491,1.594,1.1,2.209l-.613.5c-.311-.563-.639-.588-.986-.032" fill="#4791b0"/>
    <path id="Tracciato_49028" data-name="Tracciato 49028" d="M4.911,55.471,4.8,57.086c-.424.152-1.084.633-.779-.417a1.8,1.8,0,0,1,.89-1.2" fill="#184a6f"/>
    <path id="Tracciato_49029" data-name="Tracciato 49029" d="M7.615,56.016l-.547-.551c.842-.471.422.311.547.551" fill="#4295b8"/>
    <path id="Tracciato_49030" data-name="Tracciato 49030" d="M6.532,56.57c.382.2.355.376-.037.523a2.184,2.184,0,0,1,.037-.523" fill="#4295b8"/>
    <path id="Tracciato_49031" data-name="Tracciato 49031" d="M7.642,49.444c-.016-.166-.031-.333-.045-.5-.505-1.354-1.676-1.075-2.72-1.11L4.913,46.7a1.162,1.162,0,0,0,1.1-.409c.437-.05,1.018.064,1.287-.174,1.841-1.626,3.3-.853,4.693.624a1.051,1.051,0,0,0-1.078.5c-.1.763.232,1.636-.565,2.222-.04-.693-.168-1.637-.8-1.682A1.4,1.4,0,0,0,8,49.1c0,.118-.231.233-.355.349" fill="#256287"/>
    <path id="Tracciato_49032" data-name="Tracciato 49032" d="M18.546,46.746c.175,0,.351,0,.526,0a1.161,1.161,0,0,0,1.1.534h0v.546c-1.11-.016-2.036.151-1.633,1.641.135.231-.275,1.038.559.527l1.073-.534c.187.186.374.371.561.558-.357,1.205,0,2.27,1.171,2.585,1.145.307.476-1.1,1-1.5l.018-.563,1.069-.533c.149.184-.225.8.4.541.123-.052-.163-.422-.4-.546.4-.633,1.042-.515,1.641-.53.524.931,2.152.753,2.119,2.286l.065-.109a3.814,3.814,0,0,0-.5.058c-.253.063-.292.233-.064.332.1.044.289-.108.5-.281,1.595.994,1.6,2.054.071,3.165-1.13-.037-1.98.839-3.208.811-1.027-.024-.108.881-.074,1.374h0c-1.634-.067-1.382,1.524-1.982,2.346-.153.211.2,1.034.581,1.027,1.482-.027,1.686,1.021,1.959,2.062q-.029,1.4-.057,2.79c-1.019-.113-2.055.114-3.02-.589-1.268-.924-1.648.027-1.85,1.1l0,0c-.823,1.731.554,2.136,1.637,2.718a2.367,2.367,0,0,0,.035.4l-1.095,1.242c-1.048-.315-2.078.1-3.119.074-.8-.074-1.6-.115-2.394-.249-.176-.03-.362-.371-.425-.6a.366.366,0,0,1,.434-.473c1,.218.522-.59.745-.934.387-.6.81.439,1.37.113,1.214-.7,1.266-1.517.111-3.308.641-.569.74-1.131-.021-1.681a1.077,1.077,0,0,1,.525-1.1,3.7,3.7,0,0,0,.257.436c.208.265.5.675.8.491.6-.366-.043-.663-.189-.984-.069-.153-.146-.3-.219-.451.684-.184,1.166-.431.433-1.158-.355-.351-.673-.74-1.008-1.112a1.888,1.888,0,0,1,0-.475c1.1-.287,1.152-.334.771-.772-.778-.9-1.044-2.285-2.452-2.58-.007-.162-.012-.325-.016-.487l.531-.553,1.094-1.132.54-1.6L16.9,48.917c.522-.644.349-1.636,1.087-2.172.187.365.375.362.563,0m7.046,5.2c-.07-.141-.139-.283-.209-.424-.084.13-.228.258-.234.392s.122.281.192.422l.251-.39" fill="#0c2e47"/>
    <path id="Tracciato_49033" data-name="Tracciato 49033" d="M25.1,62.545c-.274-1.041-.479-2.089-1.959-2.062-.385.007-.736-.816-.581-1.027.6-.822.348-2.413,1.981-2.346.091.265.177.309.218.124,0-.024-.142-.082-.218-.124-.035-.493-.955-1.4.073-1.374,1.228.028,2.079-.848,3.208-.811v.549c.178.182.358.365.535.548-1.324,1.424-1.324,1.424-1.153,3.752-.7.371.2.087-.484.491-.378.224-1.263-.659-1.634-.424-.145-.187.232-.794-.393-.542-.122.05.159.419.4.539,1.441,1.6,1.441,1.82.011,2.707" fill="#0a2538"/>
    <path id="Tracciato_49034" data-name="Tracciato 49034" d="M24,66.4a3.254,3.254,0,0,1-1.168,2.812l.029-.025c-.175-.5-.59-.6-1.049-.624-1.083-.582-2.461-.986-1.637-2.717.21.355.464.572.858.241a.274.274,0,0,0,.069-.25c-.309-.5-.617,0-.929.012.2-1.073.581-2.024,1.849-1.1.966.7,2,.476,3.02.589L24,66.4" fill="#0c1e27"/>
    <path id="Tracciato_49035" data-name="Tracciato 49035" d="M23.989,50.009l-1.069.534c-.038-.592.079-1.238-.561-1.621a1.812,1.812,0,0,0-1.092-1.093v-.545l.531-.542,1.11,1.089c.917.646,1.315-.906,2.172-.514a1.747,1.747,0,0,0,1.142,1.029l.011-.006-.6,1.134c-.6.016-1.241-.1-1.641.53Z" fill="#0d2738"/>
    <path id="Tracciato_49036" data-name="Tracciato 49036" d="M28.359,56.022l-.536-.548.536.548" fill="#0c2e47"/>
    <path id="Tracciato_49037" data-name="Tracciato 49037" d="M9.061,43.371a1.37,1.37,0,0,1,.185-.469l1.063-.047a1,1,0,0,1-1.248.516" fill="#293948"/>
    <path id="Tracciato_49038" data-name="Tracciato 49038" d="M11.991,46.743C10.6,45.267,9.138,44.493,7.3,46.12c-.27.238-.851.124-1.287.174.192-.378.383-.757.574-1.134.152-.216.3-.431.453-.647l0,.013.6.027c1.916-.62,4,.264,5.885-.648a.64.64,0,0,1,.923.24c.518,1.172,1.631.888,2.5,1,.33.964-.606,1.076-.916,1.525-.819,1.184-.934,1.1-.187,2.177l-.036.082a4.875,4.875,0,0,1-2.739-.539h0c-.34-.566-.5-1.252-1.085-1.658Z" fill="#0d334f"/>
    <path id="Tracciato_49039" data-name="Tracciato 49039" d="M16.9,48.918l1.624,2.753c-1.085.089-2.174.6-3.255-.02-.322-.68-1.726.283-1.612-1.061,1.119-.034,2.1-.251,2.151-1.662l.037-.082,1.055.072" fill="#103e5b"/>
    <path id="Tracciato_49040" data-name="Tracciato 49040" d="M21.8,46.742l-.532.542H20.175c0-.182,0-.364,0-.546.545-.86,1.084-.155,1.625.005" fill="#173549"/>
    <path id="Tracciato_49041" data-name="Tracciato 49041" d="M20.173,46.737c0,.182,0,.364,0,.546a1.16,1.16,0,0,1-1.1-.534l1.1-.012" fill="#0d2738"/>
    <path id="Tracciato_49042" data-name="Tracciato 49042" d="M18.546,46.746c-.188.362-.376.364-.563,0h.563" fill="#0d2738"/>
    <path id="Tracciato_49043" data-name="Tracciato 49043" d="M8.163,43.461l.549.062a.707.707,0,0,1-.718.407,1.814,1.814,0,0,1,.169-.469" fill="#293948"/>
    <path id="Tracciato_49044" data-name="Tracciato 49044" d="M7.634,44.553l-.6-.027a3.048,3.048,0,0,1,.074-.478,1.346,1.346,0,0,1,.521.041c0,.154,0,.309,0,.464" fill="#293948"/>
    <path id="Tracciato_49045" data-name="Tracciato 49045" d="M26.222,48.346a1.748,1.748,0,0,1-1.142-1.028l.583-.056a1.081,1.081,0,0,1,.559,1.084" fill="#163545"/>
    <path id="Tracciato_49046" data-name="Tracciato 49046" d="M18.048,59.266c.335.372.653.76,1.008,1.112.733.727.251.974-.434,1.156-.182-.275-.405-.644-.75-.38-.315.242.076.585.106.89a1.077,1.077,0,0,0-.525,1.1l.018-.026-.558,0c-.46-.452-1.847,1.883-1.65-.548.224-.2.706-.321.2-.72-.068.239-.136.479-.2.718-.181,0-.363,0-.544.009a7.173,7.173,0,0,0-.635-.806.46.46,0,0,0-.694.011c-.286.358-.048.618.263.822-.022.175-.037.35-.044.526A8.078,8.078,0,0,1,9.81,64.2L9.805,64.2q0-.269,0-.537c.394-.262,1.176-.346.507-1.1-.06-.251.169-.653-.314-.662-.051,0-.111.414-.167.637-.008.375-.017.749-.026,1.124-.561-.509-1.323-.3-1.957-.549.828-1.465-.151-1-.907-.891-.283.039-.383-.324-.327-.6.065-.312.3-.346.6-.327,1.293.082,2.527,0,3.147-1.42h.027c.616.215.55,1.327,1.32,1.168.443-.092.247-.774.284-1.2,1.875-1.727,4.024-.573,6.062-.577m-3.594.8a3.456,3.456,0,0,0-.774-.2c-.389.03-1.1.025-.835.539.236.454.881-.024,1.609-.335" fill="#174f73"/>
    <path id="Tracciato_49047" data-name="Tracciato 49047" d="M8.717,66.4c.872-.481.2-1.722,1.088-2.2l0,.005c.415,1.017-.4,2.28.8,3.218.389.3-.414.52-.8.612q-.555-.269-1.108-.54v0c.006-.366.013-.73.02-1.095" fill="#2b7391"/>
    <path id="Tracciato_49048" data-name="Tracciato 49048" d="M6.555,65.809c.077-.382.463-.822-.216-1.056-.218-.074-.563-.346-.288-.437a2.607,2.607,0,0,1,1.544.024.961.961,0,0,1,.669,1.23c-.05.158-.43.21-.659.311l-1.07-.046Z" fill="#277397"/>
    <path id="Tracciato_49049" data-name="Tracciato 49049" d="M6.535,65.835l1.07.046c0,.967.546.765,1.113.515L8.7,67.491c-1.288.188-1.767-.679-2.162-1.656" fill="#2d5d69"/>
    <path id="Tracciato_49050" data-name="Tracciato 49050" d="M8.744,60.382c-.026-.377.022-.745.422-.891.294-.106.5.066.587.369l-1.009.522" fill="#225575"/>
    <path id="Tracciato_49051" data-name="Tracciato 49051" d="M12.542,70.183A10.157,10.157,0,0,1,7.455,68.65,2.013,2.013,0,0,0,8.7,67.493l1.108.54A1.782,1.782,0,0,0,10.9,69.1a1.1,1.1,0,0,0,1.1-.519l.532.525c0,.358.005.715.007,1.073" fill="#2d5d69"/>
    <path id="Tracciato_49052" data-name="Tracciato 49052" d="M1.627,60.279q.027-1.027.053-2.056c.672.7.769,1.392-.053,2.056" fill="#25658c"/>
    <path id="Tracciato_49053" data-name="Tracciato 49053" d="M13.653,50.59c-.114,1.343,1.289.38,1.611,1.06-.135.5-1.073.586-.816,1.178.3.685.9-.056,1.344.063.219.059.4.282.591.431L15.24,54.363c-.4-.082-.741-.574-1.147-.313-.362.233.053.587.076.892l.015-.015-1.049,1.134c-.071-.485-.143-.968-.718-1.133l-1.016.5c.016-.161.026-.323.033-.484.2-.445.608-.51,1.019-.622.365-.1.273-.326.049-.525.1-.356.61-.7.02-1.073a1.844,1.844,0,0,0-.148-2.173c-.377.65-.675,1.161-.971,1.672a1.545,1.545,0,0,0-.424.038c-.359-1.62-1.4-.742-2.236-.61-.611-.616-1.354-1.165-1.1-2.21.124-.117.354-.231.356-.35a1.4,1.4,0,0,1,1.547-1.308c.635.045.764.988.8,1.681-.179-.008-.358-.012-.538-.01-.1-.261-.192-.3-.234-.114-.006.027.14.088.216.133.191.382.376.371.556-.009.8-.585.465-1.458.564-2.221l1.072.59c-.383,1.488,1.271,1.74,1.669,2.754" fill="#2f7494"/>
    <path id="Tracciato_49054" data-name="Tracciato 49054" d="M13.135,56.061l1.049-1.134c.143.194-.249.811.389.559.138-.055-.147-.434-.4-.544-.024-.305-.439-.658-.077-.891.406-.262.752.23,1.147.313.038.715.384,1.106,1.132,1.074,1.407.3,1.673,1.686,2.451,2.581.381.438.327.485-.772.771-.987-.875-2.443-.566-3.458-1.371-.632,1.446-2.316.383-3.159,1.325l0,0c-.376-.778-1.376-.257-1.943-1.007,1.008-.464.468-2.119,1.915-2.3l1.017-.5a.94.94,0,0,1-.812,1.145c-.484.127-.772.459-.567.979.251.636.838.578,1.35.492.876-.146.618-.924.745-1.483" fill="#1d597e"/>
    <path id="Tracciato_49055" data-name="Tracciato 49055" d="M11.986,59.842c-.036.428.16,1.11-.285,1.2-.769.16-.7-.952-1.319-1.168a1.677,1.677,0,0,1,1.049-1.135l0,0a1.051,1.051,0,0,0,.552,1.1" fill="#1d597e"/>
    <path id="Tracciato_49056" data-name="Tracciato 49056" d="M9.724,56c-.153.354-.328.9-.748.7-.362-.172-.052-.526.262-.682L9.724,56" fill="#255d7e"/>
    <path id="Tracciato_49057" data-name="Tracciato 49057" d="M9.724,56l-.486.015c.152-.314.306-.576.486-.015" fill="#26506a"/>
    <path id="Tracciato_49058" data-name="Tracciato 49058" d="M12.523,52.727c.59.369.075.717-.02,1.073-1.9,0-1.9,0-1.524-1.536a1.634,1.634,0,0,1,.424-.038,1.1,1.1,0,0,0,1.12.5" fill="#4293b2"/>
    <path id="Tracciato_49059" data-name="Tracciato 49059" d="M7.144,52.123c.347-.556.675-.531.986.032l-.986-.032" fill="#72b6cd"/>
    <path id="Tracciato_49060" data-name="Tracciato 49060" d="M11.985,47.836l-1.072-.59a1.052,1.052,0,0,1,1.079-.5l-.012-.014c0,.369,0,.738.005,1.107" fill="#0d334f"/>
    <path id="Tracciato_49061" data-name="Tracciato 49061" d="M12.542,70.183c0-.358,0-.715-.007-1.073.62-.048,1.5.3,1.234-.97-.072-.345.278-.778.435-1.17.626.263,1.2.382,1.5-.461.207-.581.45-1.148.678-1.722l1.1.039c1.155,1.791,1.1,2.6-.111,3.309-.56.325-.983-.711-1.37-.113-.223.344.251,1.151-.745.934a.365.365,0,0,0-.434.473c.063.23.249.572.425.6.789.135,1.594.175,2.394.25a6.649,6.649,0,0,1-5.091-.1" fill="#103d5f"/>
    <path id="Tracciato_49062" data-name="Tracciato 49062" d="M22.9,51.1c-.521.4.148,1.809-1,1.5-1.17-.314-1.528-1.38-1.172-2.586.444-.819-.318-.427-.56-.557L19.1,50l-.558-.527c-.4-1.49.523-1.657,1.633-1.64h0c.178,1.462,1.325.986,2.182,1.09-.548.91-.64,1.706.544,2.184" fill="#0d2738"/>
    <path id="Tracciato_49063" data-name="Tracciato 49063" d="M11.986,59.842a1.051,1.051,0,0,1-.552-1.1c.844-.942,2.528.12,3.16-1.325,1.014.8,2.47.5,3.458,1.371a1.842,1.842,0,0,0,0,.475c-2.04.005-4.188-1.15-6.063.577" fill="#2f7da1"/>
    <path id="Tracciato_49064" data-name="Tracciato 49064" d="M17.474,64.826l-1.1-.04-1.653-.026a1.048,1.048,0,0,0-.51-1.059l-.076-.064.564-1.063.014,0c.181-.009.362-.013.543-.01l0,0c-.2,2.432,1.189.1,1.65.549.184.4.37.414.557,0l-.017.027c.76.551.661,1.112.02,1.681" fill="#1f6991"/>
    <path id="Tracciato_49065" data-name="Tracciato 49065" d="M16.384,53.322c-.2-.149-.372-.371-.592-.43-.446-.12-1.046.621-1.344-.064-.256-.592.682-.674.817-1.177,1.081.622,2.17.109,3.256.02q-.271.8-.541,1.6l-1.6.055" fill="#1d597e"/>
    <path id="Tracciato_49066" data-name="Tracciato 49066" d="M16.384,53.322l1.6-.055L16.887,54.4l-.531.554c0,.162.008.324.016.486-.748.032-1.093-.359-1.131-1.074l1.143-1.042" fill="#103a5b"/>
    <path id="Tracciato_49067" data-name="Tracciato 49067" d="M17.978,62.043c-.029-.305-.421-.648-.105-.89.344-.264.567.1.749.381.074.151.151.3.22.452.146.321.786.617.189.984-.3.184-.588-.226-.8-.491a3.7,3.7,0,0,1-.257-.436" fill="#1f688d"/>
    <path id="Tracciato_49068" data-name="Tracciato 49068" d="M22.9,51.1c-1.184-.478-1.092-1.274-.544-2.184.641.384.524,1.03.562,1.622L22.9,51.1" fill="#173549"/>
    <path id="Tracciato_49069" data-name="Tracciato 49069" d="M25.592,51.944l-.251.39c-.07-.141-.2-.285-.192-.422s.15-.262.234-.392c.07.141.139.282.209.424" fill="#163545"/>
    <path id="Tracciato_49070" data-name="Tracciato 49070" d="M18.541,49.47,19.1,50c-.834.511-.423-.3-.558-.527" fill="#173549"/>
    <path id="Tracciato_49071" data-name="Tracciato 49071" d="M20.173,49.463c.242.13,1-.262.56.558l-.56-.558" fill="#173549"/>
    <path id="Tracciato_49072" data-name="Tracciato 49072" d="M27.687,51.869c-.148.064-.336.216-.438.172-.227-.1-.188-.269.065-.332a3.814,3.814,0,0,1,.5-.058l-.13.218" fill="#163545"/>
    <path id="Tracciato_49073" data-name="Tracciato 49073" d="M23.992,50c.236.125.521.495.4.546-.625.261-.251-.357-.4-.541l0,0" fill="#163545"/>
    <path id="Tracciato_49074" data-name="Tracciato 49074" d="M22.862,69.184l-1.015-.218a2.507,2.507,0,0,1-.035-.405c.459.024.874.122,1.05.623" fill="#22362d"/>
    <path id="Tracciato_49075" data-name="Tracciato 49075" d="M20.174,47.284h.546v.546h-.546v-.546" fill="#0d2738"/>
    <path id="Tracciato_49076" data-name="Tracciato 49076" d="M16.355,54.952l.531-.554-.531.554" fill="#1d597e"/>
    <path id="Tracciato_49077" data-name="Tracciato 49077" d="M25.089,59.839c-.237-.12-.518-.489-.4-.539.624-.253.248.355.392.542Z" fill="#163545"/>
    <path id="Tracciato_49078" data-name="Tracciato 49078" d="M24.541,57.11c.077.042.224.1.219.124-.042.185-.127.141-.218-.124Z" fill="#0c2e47"/>
    <path id="Tracciato_49079" data-name="Tracciato 49079" d="M20.173,65.846c.312-.007.62-.516.929-.012a.276.276,0,0,1-.068.25c-.394.331-.649.114-.859-.241Z" fill="#0c2e47"/>
    <path id="Tracciato_49080" data-name="Tracciato 49080" d="M20.176,47.831l.545,0h.545a1.811,1.811,0,0,1,1.092,1.092c-.857-.1-2,.372-2.182-1.09" fill="#173549"/>
    <path id="Tracciato_49081" data-name="Tracciato 49081" d="M21.266,47.829H20.72v-.545h.546Z" fill="#0f2636"/>
    <path id="Tracciato_49082" data-name="Tracciato 49082" d="M11.985,47.836c0-.369,0-.738-.005-1.107.585.407.745,1.091,1.085,1.658-.254.091-.3.174-.118.211.024.005.079-.136.119-.21a4.882,4.882,0,0,0,2.738.539c-.054,1.412-1.032,1.629-2.151,1.663-.4-1.014-2.052-1.266-1.668-2.754" fill="#206586"/>
    <path id="Tracciato_49083" data-name="Tracciato 49083" d="M14.2,66.97c-.157.392-.507.825-.436,1.17.265,1.273-.613.922-1.233.97L12,68.585c-.785-.714-.823.155-1.1.519a1.782,1.782,0,0,1-1.1-1.071c.389-.091,1.192-.309.8-.612-1.2-.937-.385-2.2-.8-3.217a8.068,8.068,0,0,0,3.8-1.076l.532.509.076.063c-.624,1.107-2.337,1.469-2.112,3.448a1.393,1.393,0,0,1,2.012-.266Z" fill="#1e5e80"/>
    <path id="Tracciato_49084" data-name="Tracciato 49084" d="M14.454,60.066c-.728.311-1.373.789-1.609.335-.267-.514.446-.509.835-.539a3.456,3.456,0,0,1,.774.2" fill="#1e5e80"/>
    <path id="Tracciato_49085" data-name="Tracciato 49085" d="M13.651,62.6c-.311-.205-.548-.465-.263-.822a.46.46,0,0,1,.694-.012,7.277,7.277,0,0,1,.635.807l-.013,0-1.053.03" fill="#1e5e80"/>
    <path id="Tracciato_49086" data-name="Tracciato 49086" d="M9.8,63.661q.013-.562.026-1.125c.16.016.32.024.481.026.669.753-.112.837-.507,1.1" fill="#1e5e80"/>
    <path id="Tracciato_49087" data-name="Tracciato 49087" d="M13.651,62.6l1.053-.03-.564,1.064-.533-.509c.007-.175.022-.351.044-.525" fill="#143f5d"/>
    <path id="Tracciato_49088" data-name="Tracciato 49088" d="M10.309,62.562c-.161,0-.321-.01-.481-.025.056-.223.116-.638.167-.637.483.009.254.411.314.662" fill="#2979a9"/>
    <path id="Tracciato_49089" data-name="Tracciato 49089" d="M15.261,62.567c.068-.239.135-.479.2-.718.505.4.023.523-.2.72Z" fill="#1e5e80"/>
    <path id="Tracciato_49090" data-name="Tracciato 49090" d="M17.471,63.118c-.187.413-.373.4-.558,0h.558" fill="#0c2e47"/>
    <path id="Tracciato_49091" data-name="Tracciato 49091" d="M10.9,69.1c.276-.364.314-1.232,1.1-.518a1.1,1.1,0,0,1-1.1.518" fill="#3885a1"/>
    <path id="Tracciato_49092" data-name="Tracciato 49092" d="M13.135,56.061c-.127.559.131,1.337-.745,1.483-.512.086-1.1.144-1.35-.492-.2-.52.083-.852.567-.979a.94.94,0,0,0,.812-1.145c.574.165.646.648.716,1.133" fill="#408dad"/>
    <path id="Tracciato_49093" data-name="Tracciato 49093" d="M12.523,52.727a1.1,1.1,0,0,1-1.12-.5l.972-1.672a1.845,1.845,0,0,1,.148,2.173" fill="#245c7b"/>
    <path id="Tracciato_49094" data-name="Tracciato 49094" d="M10.348,49.468c-.18.379-.365.391-.556.008l.019-.019c.179,0,.358,0,.537.011" fill="#256287"/>
    <path id="Tracciato_49095" data-name="Tracciato 49095" d="M9.792,49.476c-.075-.045-.221-.106-.215-.133.042-.188.133-.147.234.114l-.019.019" fill="#256287"/>
    <path id="Tracciato_49096" data-name="Tracciato 49096" d="M14.17,54.942c.256.11.541.49.4.544-.638.252-.246-.365-.39-.559l-.014.015" fill="#3583a4"/>
    <path id="Tracciato_49097" data-name="Tracciato 49097" d="M14.726,64.76l1.653.026c-.227.574-.471,1.142-.677,1.723-.3.843-.871.724-1.5.46l-.088-.087q.306-1.061.61-2.122" fill="#1b577b"/>
    <path id="Tracciato_49098" data-name="Tracciato 49098" d="M14.726,64.76q-.3,1.062-.61,2.122a1.393,1.393,0,0,0-2.012.265c-.225-1.979,1.488-2.34,2.112-3.448a1.052,1.052,0,0,1,.51,1.061" fill="#2e80a6"/>
    <path id="Tracciato_49099" data-name="Tracciato 49099" d="M13.066,48.389c-.04.074-.1.215-.119.21-.178-.037-.136-.121.118-.211h0" fill="#2f7494"/>
    <path id="Tracciato_49100" data-name="Tracciato 49100" d="M74.374,2.787a.275.275,0,0,0,.367-.112,1.014,1.014,0,0,0,1.106-.482l-.007,0a.628.628,0,0,0,.627-.514l-.049.048.932-.194.657.106c-.72,1.744-2.6,2.122-3.837,3.248-1.108,1.508-2.544,2.75-3.431,4.455-.268.515.305,1.619-.92,1.567l-.573-.015q.03-.809.059-1.617L69.3,9.3c.587-.39.56-1.026.646-1.616l-.054.059a.622.622,0,0,0,.451-.654l.017-.032a5.87,5.87,0,0,0,1.788-2.071l-.05.051a.605.605,0,0,0,.427-.674l.019-.046,1.04-1.053.069-.037a.767.767,0,0,0,.724-.436" fill="#33627c"/>
    <path id="Tracciato_49101" data-name="Tracciato 49101" d="M69.246,10.9l.572.015c-.04,1.285.195,2.609-.535,3.8h-1q-.042-.813-.081-1.626a.229.229,0,0,0,.037-.364,1.911,1.911,0,0,0,.469-1.263.182.182,0,0,0,.092-.3c.145-.09.294-.176.444-.258" fill="#2b6783"/>
    <path id="Tracciato_49102" data-name="Tracciato 49102" d="M69.283,14.71c.731-1.188.5-2.512.536-3.8,1.226.053.653-1.051.921-1.567.886-1.7,2.322-2.946,3.43-4.455l.073.02c.041,2.119-.1,4.164-2.382,5.243.743.657.923,1.563,1.771,1.829l.555.012h0c-.055.737,1.156,1.491-.03,2.212-.5-.043-.649-.251-.741-.814-.217-1.323-1.64-.354-2.264-1.02-.345.364-.218.825-.257,1.251-.665.344-.362,1.316-1.06,1.639-.184-.185-.369-.369-.553-.553" fill="#2d789d"/>
    <path id="Tracciato_49103" data-name="Tracciato 49103" d="M74.17,4.891c1.243-1.126,3.118-1.5,3.838-3.248l1.125.545c-.02.177-.038.353-.056.53a1.9,1.9,0,0,0-1.07,1.091,3.251,3.251,0,0,1-3.764,1.1Z" fill="#3e8baa"/>
    <path id="Tracciato_49104" data-name="Tracciato 49104" d="M79.133,2.188l-1.126-.544-.657-.106a3.407,3.407,0,0,0,.152-.413A1.159,1.159,0,0,0,78.6.6a2.089,2.089,0,0,1,.51.069c.544.487.889.342,1.067-.335A.726.726,0,0,1,80.2,0L81.89.1c-.115.991-1.046,1.119-1.665,1.576l-1.092.515" fill="#447993"/>
    <path id="Tracciato_49105" data-name="Tracciato 49105" d="M91.111,20.194a12.656,12.656,0,0,1-5.44,6,12.226,12.226,0,0,1-2.535-.542,1.645,1.645,0,0,0-1.854.186c-1.35.8-1.328,1.9-.992,3.166v.006l-.561-.139A1,1,0,0,0,78.6,27.866c-.429-.283-1.029-.346-1.22-.969.658-.3,1.733-.05,1.721-1.254.26-.091.3-.174.124-.211-.024,0-.078.141-.118.217l-3.261-.565c-.233-.512-.4-.969.414-1.132.51-.1.6-.558.631-1.01-.045-.327-.379-.687-.092-.972.707-.7.669-.95-.385-.833-.183.02-.4-.263-.6-.407.556-1.261,1.688-1.08,2.741-1.1.814.5-.677,1.049.166,1.645,1.325-.445,2.784-.792,3.659-2.193.767-.276,1.231-1.148,2.164-1.1a4.2,4.2,0,0,1,2.855-.2c2.092.708.734-.916,1-1.44a2.924,2.924,0,0,0,2.17-1.073,1.112,1.112,0,0,1,.548,1.1c.327,1.276-.919,2.552,0,3.827m-8.589,2.1.5-.125a8.244,8.244,0,0,0-.644-.822c-.265-.264-.46-.1-.473.2a.689.689,0,0,0,.614.742m-1.631-.809a.725.725,0,0,0-.233-.071c-.026,0-.048.124-.072.191a.715.715,0,0,0,.233.07c.025,0,.048-.123.072-.19" fill="#0b2f47"/>
    <path id="Tracciato_49106" data-name="Tracciato 49106" d="M75.841,25.084l3.26.565,0-.006c.012,1.2-1.063.952-1.721,1.254.191.623.791.686,1.219.969-.745.837-2.011.3-2.787,1.051-.154-.714-.046-1.5-.559-2.118a3.957,3.957,0,0,1,.593-1.715" fill="#204f5e"/>
    <path id="Tracciato_49107" data-name="Tracciato 49107" d="M69.283,14.71c.184.184.369.368.553.553-.9.9-.652,1.425.526,1.661-.168.568-1.257,1.739.65.927.432-.184.4.432.479.742a7.864,7.864,0,0,1-1.8,2.868c-.582-.237-.482-.967-.938-1.3a1.167,1.167,0,0,0-.446-1.175,16.361,16.361,0,0,1-.026-4.281h1" fill="#2b5868"/>
    <path id="Tracciato_49108" data-name="Tracciato 49108" d="M89.332,4.511a.64.64,0,0,0,.613.457l.645,1.547c-.3.73.526,1.476-.031,2.2-.941.23-2.114-1-2.888.465-.067.126-.638-.049-.581-.323.372-1.793-1.048-2.986-1.448-4.512h0c1.4-.062.442-.953.519-1.481a.391.391,0,0,0,.089-.3l1.08.85.454.383.062.054.556.463.929.2" fill="#152f40"/>
    <path id="Tracciato_49109" data-name="Tracciato 49109" d="M90.559,8.718c.556-.727-.275-1.473.03-2.2.993.2.935,1.312,1.58,1.814l.063.909-.09.1c-.713.264-1.5.726-1.583-.624" fill="#234c5b"/>
    <path id="Tracciato_49110" data-name="Tracciato 49110" d="M83.94.341c.812.7,1.838,1.175,2.311,2.225a.389.389,0,0,1-.089.3c-.7.307-.45.951-.519,1.482h0l-.574-.019c-.153-.691-1.5-.2-1.276-1.423A7,7,0,0,0,83.376.539l.564-.2" fill="#224860"/>
    <path id="Tracciato_49111" data-name="Tracciato 49111" d="M83.94.341l-.563.2c-1.457.183-.7,1.442-1.052,2.164-.8-.145-1.964.466-2.1-1.029.619-.458,1.549-.586,1.664-1.577l2.1-.089a.335.335,0,0,1-.053.333" fill="#6cb4cd"/>
    <path id="Tracciato_49112" data-name="Tracciato 49112" d="M87.785,3.8l-.454-.383a1.868,1.868,0,0,1,.426-.07,3.8,3.8,0,0,1,.028.453" fill="#103751"/>
    <path id="Tracciato_49113" data-name="Tracciato 49113" d="M75.841,25.084a3.957,3.957,0,0,0-.593,1.715l-.917-.229a.656.656,0,0,0-.658-.417,1.21,1.21,0,0,0-.986-.669.688.688,0,0,0-.622-.451l-1.6-1.663a.639.639,0,0,0-.5-.574A2.756,2.756,0,0,1,70,22.352c1.749.49,3.429,1.6,5.346.374.332-.212,1.017.13,1.54.216-.028.453-.121.909-.631,1.011-.812.163-.648.619-.414,1.131" fill="#295d6c"/>
    <path id="Tracciato_49114" data-name="Tracciato 49114" d="M76.886,22.942c-.522-.086-1.208-.428-1.54-.216-1.917,1.223-3.6.116-5.346-.374l-.305-.89a7.86,7.86,0,0,0,1.8-2.869c1.132.087,1.609,1.871,3.118,1.152.338-.161.217.481.262.788.123.835.608.2.938.2.2.143.417.427.6.406,1.054-.117,1.092.13.385.833-.287.286.047.645.092.972" fill="#194257"/>
    <path id="Tracciato_49115" data-name="Tracciato 49115" d="M80.18.337c-.178.677-.523.822-1.067.335L80.18.337" fill="#3e4e64"/>
    <path id="Tracciato_49116" data-name="Tracciato 49116" d="M88.4,4.315l-.557-.462c.165,0,.329,0,.493,0a3.636,3.636,0,0,0,.064.465" fill="#103751"/>
    <path id="Tracciato_49117" data-name="Tracciato 49117" d="M74.243,4.911a3.25,3.25,0,0,0,3.764-1.1l.069.088c-.083.8-.034,1.509,1.015,1.576a1.754,1.754,0,0,0,1.13,1.043L80.7,6.5l.613.059c.018.591.051,1.169-.527,1.58-.475.337-.077.754-.032,1.136a1.71,1.71,0,0,1-1.145-.568c-.488-.493-.878,0-.869.418.017.758.737.975,1.323,1.06s.626-.485.669-.933c.448.231.52.671.608,1.1-.4.621-1.1.777-1.691,1.1l-.006-.005a1.762,1.762,0,0,0-2.129-1.044l-.633-.011c-.16-.011-.319-.016-.48-.014l-2.21,1.614h0c-.178-.371-.362-.374-.555-.012-.848-.266-1.028-1.172-1.771-1.829,2.284-1.079,2.423-3.124,2.382-5.243M77.868,7.13c-.067-.14-.1-.343-.208-.4s-.278.064-.422.105a1.688,1.688,0,0,0,.238.406c.158.153.309.1.392-.111" fill="#4493b3"/>
    <path id="Tracciato_49118" data-name="Tracciato 49118" d="M74.188,11.995l2.21-1.614a3.037,3.037,0,0,0,1.045,2.2c.11.473-.165,1.081.636,1.458a2.468,2.468,0,0,1,1.561-2.591l.007,0c.193.359-.264,1.38.468,1.047,1.448-.657,1.247.645,1.727,1.138-1.475-.329-2.463,1.051-3.832,1.093l-1.1-.005c-.494-.909-.8-.912-2.187-.024l-.571-.5c1.187-.721-.024-1.475.031-2.212" fill="#3686ad"/>
    <path id="Tracciato_49119" data-name="Tracciato 49119" d="M74.157,14.207l.57.5c.4.444-.032.559-.3.719a1.739,1.739,0,0,0-.808,1.5c-.86-.021-1.12-.7-1.462-1.308-.379-.672-.546-1.481-1.234-1.959l-.031-.036c.039-.427-.089-.888.256-1.252.624.667,2.048-.3,2.264,1.021.092.563.238.771.741.814" fill="#21638c"/>
    <path id="Tracciato_49120" data-name="Tracciato 49120" d="M70.361,16.924c-1.178-.236-1.429-.766-.526-1.661.7-.323.4-1.294,1.061-1.639l.031.036c-.185,1.089.413,2.313-.566,3.264" fill="#2b6783"/>
    <path id="Tracciato_49121" data-name="Tracciato 49121" d="M73.632,11.983c.193-.361.378-.359.555.012l-.555-.012" fill="#3686ad"/>
    <path id="Tracciato_49122" data-name="Tracciato 49122" d="M81.31,6.562,80.7,6.5c-.393-1.3.36-3.065-1.537-3.745l-.082-.039c.017-.177.035-.354.055-.531l1.093-.514c.135,1.495,1.3.884,2.1,1.029.4.633.443,1.1-.509,1.122-.065-.259-.138-.311-.182-.145-.005.019.136.078.21.119.235.734,1.661,1.477-.017,2.2L81.3,6.56Z" fill="#57a0bb"/>
    <path id="Tracciato_49123" data-name="Tracciato 49123" d="M78.007,3.809a1.9,1.9,0,0,1,1.07-1.09l.082.039c-.192.54.222,1.655-1.082,1.139Z" fill="#4493b3"/>
    <path id="Tracciato_49124" data-name="Tracciato 49124" d="M92.233,9.237c.8.724.46,1.693.527,2.565.076.993.073,1.991.1,2.987-.122,1.951-.15,3.933-1.753,5.4-.92-1.275.326-2.551,0-3.826,1-.728.275-1.454,0-2.18.993-.61.335-1.685.135-2.077-.488-.96-.34-1.4.511-1.86a.922.922,0,0,0,.388-.908Z" fill="#234c5b"/>
    <path id="Tracciato_49125" data-name="Tracciato 49125" d="M80.29,29.008c-.337-1.262-.358-2.362.991-3.165a1.644,1.644,0,0,1,1.854-.187,12.185,12.185,0,0,0,2.536.542c-.589.748-1.443.63-2.248.706a3.423,3.423,0,0,0-3.133,2.1" fill="#204f5e"/>
    <path id="Tracciato_49126" data-name="Tracciato 49126" d="M78.01,14.733c1.369-.042,2.357-1.422,3.832-1.093.6-.294,1.11-.394,1.081.552l.009-.008a16.482,16.482,0,0,0-2.285,1.8c-.646.711.143.8.631.929.182.406.43.847.857.912.654.1,1.239-.048.765-.949.093-1.069.868-1.07,1.653-1.055q-.006,1.086-.013,2.174c-.933-.052-1.4.821-2.164,1.1a1.043,1.043,0,0,0-1.429-.351,3.327,3.327,0,0,1-1.839.346c-.1-.231-.234-.673-.3-.663-1.159.176-2.015-.54-2.971-.953.147-.5-.386-1.438.831-1.233.461.078.977.354,1.417-.163-.2-.115-.358-.188-.5-.284-.217-.149-.423-.313-.635-.471a1.214,1.214,0,0,0,1.054-.582" fill="#1c5c81"/>
    <path id="Tracciato_49127" data-name="Tracciato 49127" d="M75.839,17.466c.956.413,1.811,1.129,2.971.953.065-.01.2.431.3.663l-.557.552c-1.054.016-2.185-.165-2.741,1.1-.331,0-.817.638-.94-.2-.044-.308.077-.949-.262-.788-1.508.719-1.986-1.065-3.117-1.152-.081-.31-.047-.926-.48-.742-1.907.812-.817-.358-.649-.927.978-.951.381-2.175.565-3.263.689.478.855,1.286,1.234,1.958.343.605.6,1.288,1.463,1.308.361,1.728,1.4.684,2.215.539" fill="#154b71"/>
    <path id="Tracciato_49128" data-name="Tracciato 49128" d="M84.54,17.989q.006-1.088.013-2.174c.177,0,.353.01.529.023a1.141,1.141,0,0,0,.556,1.068.989.989,0,0,0,1.1-1.105c.466-.559-2.421-.31-.308-1.349.562-.276-.111-.9-.222-1.365l-.02.015,1.055-.037a1.56,1.56,0,0,0,2.237-.528l.538.558.534.538.556.554c.277.726,1,1.452,0,2.18a1.112,1.112,0,0,0-.548-1.1c-1.337-.884-1.834-.069-2.17,1.073-.263.523,1.1,2.148-1,1.439a4.2,4.2,0,0,0-2.855.2" fill="#114163"/>
    <path id="Tracciato_49129" data-name="Tracciato 49129" d="M78.551,19.634l.557-.552a3.33,3.33,0,0,0,1.839-.346,1.043,1.043,0,0,1,1.429.351c-.876,1.4-2.334,1.747-3.66,2.192-.843-.6.649-1.146-.165-1.645" fill="#0f3f62"/>
    <path id="Tracciato_49130" data-name="Tracciato 49130" d="M88.392,16.345c.335-1.142.833-1.956,2.17-1.073a2.924,2.924,0,0,1-2.17,1.073" fill="#154d71"/>
    <path id="Tracciato_49131" data-name="Tracciato 49131" d="M82.523,22.3a.688.688,0,0,1-.615-.741c.013-.307.208-.469.473-.2a7.989,7.989,0,0,1,.644.822l-.5.124" fill="#0f3f62"/>
    <path id="Tracciato_49132" data-name="Tracciato 49132" d="M80.891,21.49c-.024.067-.047.189-.072.19a.715.715,0,0,1-.233-.07c.024-.067.046-.19.072-.191a.725.725,0,0,1,.233.071" fill="#0f3f62"/>
    <path id="Tracciato_49133" data-name="Tracciato 49133" d="M79.1,25.648c.04-.075.094-.221.118-.216.18.036.136.119-.124.211l.006.005" fill="#204f5e"/>
    <path id="Tracciato_49134" data-name="Tracciato 49134" d="M91.107,14.187l-.555-.554-.534-.538-.539-.558c-.5-.729-1.287-.475-1.971-.568-.261-.035-.331-.14-.153-.43.4-.156,1-.179,1.274-.9-1.46.183-2.359-.944-3.558-1.378.142-1.092.329-2.1-.651-3.065a1.092,1.092,0,0,1,.648-1.871l.574.02c.4,1.526,1.819,2.718,1.447,4.511-.056.274.514.45.581.324.775-1.467,1.947-.235,2.889-.465.078,1.35.87.887,1.583.624a.925.925,0,0,1-.388.909c-.852.459-1,.9-.511,1.86.2.392.857,1.467-.136,2.076" fill="#103751"/>
    <path id="Tracciato_49135" data-name="Tracciato 49135" d="M85.643,4.348c.069-.531-.185-1.175.518-1.482-.075.529.884,1.419-.518,1.482" fill="#103751"/>
    <path id="Tracciato_49136" data-name="Tracciato 49136" d="M85.068,4.328A1.091,1.091,0,0,0,84.42,6.2c.98.97.793,1.973.651,3.066-.168,0-.335,0-.5.012-.789.339-1.7.408-2.186,1.329-.532,1.01-.656-.309-1.046-.25-.087-.431-.159-.87-.608-1.1l.022.023c-.043-.382-.443-.8.032-1.136.578-.411.546-.989.527-1.58l-.013,0,.531-.565c1.678-.719.252-1.462.017-2.2l-.027.026c.951-.019.908-.489.508-1.121.35-.722-.4-1.982,1.052-2.164A7.02,7.02,0,0,1,83.791,2.9c-.22,1.221,1.123.732,1.277,1.423m-1.8,3.987c-.055-.14-.075-.341-.177-.4a.419.419,0,0,0-.4.09.306.306,0,0,0,.2.513c.108.022.252-.128.38-.2" fill="#225d7f"/>
    <path id="Tracciato_49137" data-name="Tracciato 49137" d="M81.337,10.356c.39-.06.513,1.26,1.045.25.486-.922,1.4-.991,2.187-1.329-.078.254-.078.6-.248.747-.62.538-.923,1.079-.354,1.831.554.732.884-.086,1.324-.164.971-.173.456.343.288.686-.364.745.207.661.629.71.112.464.784,1.09.222,1.366-2.113,1.038.773.789.308,1.348-.159.021-.316.044-.474.07l-1.182-.032c-.176-.013-.353-.021-.529-.024-.785-.014-1.56-.013-1.653,1.056l-1.065.03c-.189-.363-.374-.373-.554.006h0c-.488-.133-1.276-.218-.632-.929a16.5,16.5,0,0,1,2.286-1.8c.19.253.325.709.724.2l-.733-.189c.028-.946-.476-.847-1.081-.552-.48-.492-.279-1.8-1.726-1.137-.734.332-.276-.689-.47-1.048.593-.322,1.293-.477,1.691-1.1" fill="#266d92"/>
    <path id="Tracciato_49138" data-name="Tracciato 49138" d="M78.076,3.9c1.3.516.891-.6,1.083-1.139,1.9.68,1.144,2.448,1.537,3.745l-.475.013c-.072-.677-.4-1.077-1.13-1.044-1.05-.067-1.1-.778-1.015-1.575" fill="#76b9cf"/>
    <path id="Tracciato_49139" data-name="Tracciato 49139" d="M79.64,11.451a2.468,2.468,0,0,0-1.561,2.591c-.8-.377-.526-.985-.636-1.459.012-.207.023-.414.035-.621.327-.112.689-.278.709-.631.028-.474-.43-.364-.725-.425v0a2.632,2.632,0,0,1,.052-.5,1.758,1.758,0,0,1,2.127,1.045" fill="#296b90"/>
    <path id="Tracciato_49140" data-name="Tracciato 49140" d="M80.728,9.254c-.042.448-.07,1.019-.669.933s-1.306-.3-1.323-1.059c-.009-.423.381-.912.871-.419a1.705,1.705,0,0,0,1.143.569l-.022-.024" fill="#2e6684"/>
    <path id="Tracciato_49141" data-name="Tracciato 49141" d="M77.477,11.962c-.011.207-.023.414-.034.621a3.035,3.035,0,0,1-1.045-2.2c.16,0,.32,0,.479.015q.292.253.583.509v0q.009.528.016,1.056" fill="#27698d"/>
    <path id="Tracciato_49142" data-name="Tracciato 49142" d="M77.867,7.13c-.083.207-.232.264-.391.111a1.674,1.674,0,0,1-.238-.406c.143-.041.325-.155.421-.105s.142.26.208.4" fill="#5db0cd"/>
    <path id="Tracciato_49143" data-name="Tracciato 49143" d="M79.091,5.472c.729-.033,1.058.366,1.13,1.044a1.758,1.758,0,0,1-1.13-1.044" fill="#57a0bb"/>
    <path id="Tracciato_49144" data-name="Tracciato 49144" d="M77.461,10.9l-.583-.51.634.012a2.679,2.679,0,0,0-.051.5" fill="#3686ad"/>
    <path id="Tracciato_49145" data-name="Tracciato 49145" d="M75.839,17.466c-.818.145-1.854,1.189-2.215-.539a1.735,1.735,0,0,1,.808-1.5c.264-.161.694-.276.3-.72,1.385-.888,1.693-.885,2.186.024l0,0c-.378.18-.395.361,0,.544l.043.045c.212.158.418.322.634.471.139.095.292.169.5.284-.441.517-.956.24-1.417.163-1.218-.2-.683.737-.831,1.233" fill="#2d789d"/>
    <path id="Tracciato_49146" data-name="Tracciato 49146" d="M78.01,14.733a1.214,1.214,0,0,1-1.054.582l-.042-.044c0-.182.006-.363,0-.545v0l1.1.005" fill="#2d789d"/>
    <path id="Tracciato_49147" data-name="Tracciato 49147" d="M81.844,3.8c-.073-.041-.215-.1-.209-.119.044-.166.116-.114.182.145Z" fill="#225d7f"/>
    <path id="Tracciato_49148" data-name="Tracciato 49148" d="M81.827,5.994l-.531.565.531-.565" fill="#4493b3"/>
    <path id="Tracciato_49149" data-name="Tracciato 49149" d="M81.834,16.9c.355-.01.711-.018,1.066-.029.474.9-.112,1.047-.765.948-.427-.065-.675-.506-.857-.911h0c.185,0,.369-.006.554-.008" fill="#154868"/>
    <path id="Tracciato_49150" data-name="Tracciato 49150" d="M86.208,13.087c-.421-.049-.993.035-.629-.71.168-.343.682-.86-.288-.686-.441.078-.769.9-1.324.164-.569-.752-.266-1.293.353-1.831.171-.148.17-.493.248-.747.168-.011.336-.015.5-.013,1.2.434,2.1,1.561,3.558,1.378-.278.718-.877.741-1.274.9-.178.29-.108.4.153.43.685.093,1.47-.161,1.972.568a1.559,1.559,0,0,1-2.236.529c-.373-.606-.722-.486-1.056.036Z" fill="#154d71"/>
    <path id="Tracciato_49151" data-name="Tracciato 49151" d="M86.263,15.871c.158-.026.316-.049.475-.07a.991.991,0,0,1-1.1,1.106q.312-.519.625-1.036" fill="#0b2f47"/>
    <path id="Tracciato_49152" data-name="Tracciato 49152" d="M86.263,15.871q-.312.517-.625,1.036a1.144,1.144,0,0,1-.556-1.069c.393.012.787.022,1.181.033" fill="#1c5c81"/>
    <path id="Tracciato_49153" data-name="Tracciato 49153" d="M86.188,13.1c.334-.522.682-.642,1.055-.036l-1.055.036" fill="#266d92"/>
    <path id="Tracciato_49154" data-name="Tracciato 49154" d="M90.018,13.1l.534.538-.534-.538" fill="#154d71"/>
    <path id="Tracciato_49155" data-name="Tracciato 49155" d="M83.271,8.316c-.128.072-.272.222-.379.2A.306.306,0,0,1,82.69,8a.418.418,0,0,1,.4-.089c.1.061.122.262.177.4" fill="#387c95"/>
    <path id="Tracciato_49156" data-name="Tracciato 49156" d="M82.923,14.192l.733.19c-.4.51-.535.055-.724-.2l-.009.008" fill="#174a69"/>
    <path id="Tracciato_49157" data-name="Tracciato 49157" d="M81.834,16.9c-.185,0-.369,0-.554.008.18-.381.365-.371.554-.008" fill="#1c5c81"/>
    <path id="Tracciato_49158" data-name="Tracciato 49158" d="M77.477,11.962q-.007-.528-.016-1.056c.295.061.753-.05.726.425-.021.353-.382.519-.71.631" fill="#3686ad"/>
    <path id="Tracciato_49159" data-name="Tracciato 49159" d="M76.916,14.726c0,.181,0,.363,0,.544-.392-.183-.374-.364,0-.544" fill="#3686ad"/>
    <path id="Tracciato_49160" data-name="Tracciato 49160" d="M143.453,115.653a.239.239,0,0,0,.109.336,1.074,1.074,0,0,0,1.215,1.153c1-.03,2-.116,2.993-.177l.657.669a12.143,12.143,0,0,1-6.5,0,1.545,1.545,0,0,0-1.662,1.6l-.549.546c-.856.088-1.576-.029-1.668-1.1l-.042-.063c1.7-.007.834-.877.525-1.56l.041-.007a10.215,10.215,0,0,0,4.475-1.6,1.42,1.42,0,0,0,.4.2" fill="#4d7075"/>
    <path id="Tracciato_49161" data-name="Tracciato 49161" d="M141.185,142.286l-.2.012-.139-.146c0-.346,0-.692-.008-1.038l.008-.014c.682-.551.687-1.1-.015-1.635h0c-.141-.5-.449-1.067.486-1.1,1.438-.045,1.752-.973,1.7-2.182,0-.184-.005-.367-.008-.55l1.1,0,0,0,.543.54a3.29,3.29,0,0,0,2.562-1.269c.3-.433.8-1.5,1.8-1.451.945,0,2,.507,2.717-.568l1.636-.558c-.117.34-.44.838-.319,1,1.242,1.617-.154,1.839-1.118,1.864-.73.019-1.427,1.1-2.242.105-.178-.216-.728.081-.894.408-.315.618-.982.882-1.893,1.921,2.464-1.056,1.763,1.047,2.59,1.622.535-.746-.423-1.711.5-2.275.823,1.172.823,1.172,2.337,1.146-.141-.444-1.022-.289-.85-.867.195-.655.707-.216,1.1-.119.263.064.533.1.8.145h0c.31.731.833,1.432.336,2.271-.776.295-1.29-.6-2.035-.409-.4.465.328,1.051-.3,1.616-.306-.063-.724-.18-1.151-.23-.5-.059-1.032-.671-1.492-.134-.542.633,0,1.154.384,1.656.162.215.29.456.433.684-1.784-.533-3.732.569-5.458-.544,1.159-.757,2.706-.808,3.634-1.98a1.731,1.731,0,0,0,.231-2.183c-.469-.562-1.116.175-1.683.346-.09-.265-.175-.31-.217-.125-.006.023.142.082.219.124-.27.436-.485,1.076-1.151.481-.784-.7-1.345-.093-1.824.354s-.252.97.244,1.347l0,0,0,1.625c-.855-1.357-1.619-.631-2.382.1" fill="#082944"/>
    <path id="Tracciato_49162" data-name="Tracciato 49162" d="M134.373,136.658a1.374,1.374,0,0,0-.53-1.1c-.007-.338-.013-.677-.02-1.016.4-.273,1-.49.6-1.122-.255-.4-.559-.187-.755.155-.137-.061-.276-.117-.417-.166.011-.345.022-.689.034-1.034,1.452-.451,1.452-.451.528-1.689.737.033.982-.406,1.009-1.054l1.084,0c.007.182.014.364.02.546.017.373.033.745.049,1.118a1,1,0,0,0,1.048.528l-.016-.015c-.6.928-.521,1.691.536,2.218.135.674.266,1.357,1.1.5l0,0,.558.027c-.2,1.252-.571,2.326-2.17,2.186a1.127,1.127,0,0,0-.113-.243c-.411-.516-.446-1.47-1.455-1.284a.465.465,0,0,0-.24.383c.179,1.027.926,1.2,1.806,1.145.012.367.025.733.037,1.1q-.033.264-.064.528c-.179.188-.357.376-.536.563-.985-.491-1.4-1.5-2.082-2.273" fill="#286486"/>
    <path id="Tracciato_49163" data-name="Tracciato 49163" d="M141.185,142.286c.763-.736,1.527-1.462,2.382-.1l.006.007c.175.319.353.319.532,0l0,0c1.726,1.113,3.674.011,5.458.545l.566.031c-.444.558-1.073.493-1.682.5l-4.455.075-1.442-.171c-.321-.5-1.1-.3-1.369-.885" fill="#13405a"/>
    <path id="Tracciato_49164" data-name="Tracciato 49164" d="M139.746,141.641c-.759-.5-1.834-.576-2.207-1.609l.092-.165c.347-.011.847-.175,1.016-.007.965.962,1.551.238,2.184-.393h0q.008.817.015,1.634l-.008.015a1.086,1.086,0,0,0-1.092.526" fill="#174c6e"/>
    <path id="Tracciato_49165" data-name="Tracciato 49165" d="M139.746,141.641a1.086,1.086,0,0,1,1.092-.526c0,.346.005.692.008,1.038a.987.987,0,0,1-1.1-.512" fill="#13405a"/>
    <path id="Tracciato_49166" data-name="Tracciato 49166" d="M136.455,138.931c.178-.188.357-.375.536-.563l.12,1.024-.115.086a.6.6,0,0,1-.541-.547" fill="#174c6e"/>
    <path id="Tracciato_49167" data-name="Tracciato 49167" d="M137.539,140.032a.656.656,0,0,1-.542-.554l.114-.086q.26.237.52.473Z" fill="#174c6e"/>
    <path id="Tracciato_49168" data-name="Tracciato 49168" d="M144,143.342l4.454-.075c.61-.009,1.238.056,1.682-.5.629-.094,1.089.307,1.6.546l1.106,1.01a52.519,52.519,0,0,0-8.681-.552c-.054-.143-.108-.285-.164-.427" fill="#2a5869"/>
    <path id="Tracciato_49169" data-name="Tracciato 49169" d="M152.843,144.321l-1.107-1.01,2.731-.582c.345.536.7.614,1.078.03l1.241.035c-.071.163-.141.327-.212.49a.6.6,0,0,0-.433.573l.007-.009a.676.676,0,0,0-.581.466.324.324,0,0,1-.4.14l-1.867-.025-.246.024Z" fill="#13405a"/>
    <path id="Tracciato_49170" data-name="Tracciato 49170" d="M157.725,120.356l.556.028,1.563,1.693q.576,1.336,1.151,2.673a1.32,1.32,0,0,0,.448,1.172,18.531,18.531,0,0,1-.482,7.48,1.768,1.768,0,0,0-.535,1.649q-.753,1.185-1.507,2.37a14.223,14.223,0,0,1,.059-1.884c.247-1.548.274-1.544-.76-2.585.3-.838,1.315-.293,1.754-.879-.463-.651-1.49.25-1.838-.693,2.226-.935,2.423-1,1.73-3.285-.466-1.538-.663-3.18-1.331-4.826-.774.829-1.84.719-2.433,1.472-1.017-1.166-1.278-3.08-3.259-3.292l.007-.008q.279-.81.559-1.619c.6-.133,1.345-1.086,1.744-.068.245.625.22.9.961.69a6.941,6.941,0,0,1,1.613-.088" fill="#173846"/>
    <path id="Tracciato_49171" data-name="Tracciato 49171" d="M156.1,124.741c.594-.753,1.659-.643,2.434-1.473.668,1.647.864,3.289,1.33,4.826.694,2.291.5,2.35-1.729,3.286.348.943,1.375.041,1.838.692-.439.586-1.451.042-1.754.879,1.034,1.041,1.007,1.037.76,2.586a14.208,14.208,0,0,0-.059,1.883l-.2,1.386a3.417,3.417,0,0,0-1.094,2.186c-.641.432-.173,1.379-.836,1.8l-1.241-.035c-.356-.1-.7-.567-1.077-.03l-2.732.583c-.514-.24-.974-.641-1.6-.547l-.566-.031c-.144-.229-.271-.47-.433-.684-.381-.5-.926-1.023-.385-1.656.461-.537.991.074,1.493.134.427.05.845.166,1.151.23.626-.565-.1-1.151.3-1.617.745-.186,1.259.705,2.035.41.5-.839-.026-1.54-.336-2.271.262-.092.305-.177.122-.217-.025,0-.082.141-.124.217-.267-.047-.537-.081-.8-.145-.393-.1-.9-.536-1.1.119-.172.578.709.423.85.867-1.514.026-1.514.026-2.337-1.146-.927.564.031,1.529-.5,2.275-.828-.575-.126-2.679-2.591-1.622.912-1.039,1.579-1.3,1.894-1.921.166-.328.716-.624.894-.408.815.99,1.512-.086,2.242-.105.964-.026,2.36-.247,1.118-1.864-.121-.158.2-.656.319-1,.05-.348.091-.707.464-.875,1.511-.683,2.242-1.647,1.715-2.981-.58-1.466-.04-2.554.547-3.736" fill="#08243c"/>
    <path id="Tracciato_49172" data-name="Tracciato 49172" d="M133.184,126.91c.067.747-.267,1.6.542,2.155l.021.036q-.027.288-.052.574c-.5.119-.381.676-.668.946l-.381-.438c.1-.686-.043-3.055.538-3.273" fill="#337797"/>
    <path id="Tracciato_49173" data-name="Tracciato 49173" d="M149.571,117.656l.984-.434c.144.613.061,1.56,1.114.6.263-.241.816-.164,1.236-.232l-.057.061c.041.78-.612,1.234-.867,1.863-.349.866-.488,1.77.867,1.931l-.007.008c.695,1.249-.52,1.227-1.088,1.637l-1.6-.028a2.329,2.329,0,0,1-.03-.514c.3-.059.859.009.683-.449-.282-.733-.828-.21-1.269-.072-1.766-.72-1.178,1.257-2.1,1.787-.213-1.134-.739-2.279-.541-3.282.262-1.331.3-1.76-.911-1.807-1.164-.045-2.331,0-3.5.008-.962.032-.82-.5-.558-1.093a12.143,12.143,0,0,0,6.5,0l.047,0c.12.5-.277,1.4.655,1.318.567-.049.409-.813.442-1.3" fill="#337692"/>
    <path id="Tracciato_49174" data-name="Tracciato 49174" d="M133.028,130.621c.286-.27.165-.827.666-.946q.059.505.115,1.011c.923,1.238.923,1.238-.528,1.689q-.213-.627-.424-1.256a1.3,1.3,0,0,0,.171-.5" fill="#24495a"/>
    <path id="Tracciato_49175" data-name="Tracciato 49175" d="M133.664,133.575c.2-.342.5-.556.755-.154.4.631-.2.849-.6,1.121l-.159-.967" fill="#244d63"/>
    <path id="Tracciato_49176" data-name="Tracciato 49176" d="M154.461,118.156l.561.024a1.293,1.293,0,0,0,1.083.555,2.579,2.579,0,0,0,1.558,1.169c.02.151.04.3.062.452a6.993,6.993,0,0,0-1.613.088c-.742.213-.717-.065-.962-.69-.4-1.018-1.145-.065-1.744.068l-.024-1.674,1.079.008" fill="#344f54"/>
    <path id="Tracciato_49177" data-name="Tracciato 49177" d="M153.383,118.148l.024,1.674-.558,1.619c-1.356-.161-1.217-1.065-.867-1.931.254-.629.907-1.083.866-1.863a.514.514,0,0,1,.5.054,2.235,2.235,0,0,0,.035.447" fill="#205169"/>
    <path id="Tracciato_49178" data-name="Tracciato 49178" d="M136.377,121.377c.2-1.118,1.089-1.812,1.673-2.694.091,1.071.811,1.188,1.667,1.1a1.457,1.457,0,0,1-.473,1.131c-.813.766-.2.952.487,1.078,0,.183.009.366.014.548l-1.639,1.086c-.182,0-.363,0-.545,0a2.83,2.83,0,0,0-1.184-2.251" fill="#468298"/>
    <path id="Tracciato_49179" data-name="Tracciato 49179" d="M139.73,121.992c-.684-.126-1.3-.312-.486-1.078a1.461,1.461,0,0,0,.473-1.131l.549-.546.564.6-1.1,2.154" fill="#5ca8c1"/>
    <path id="Tracciato_49180" data-name="Tracciato 49180" d="M140.829,119.838l-.563-.6a1.546,1.546,0,0,1,1.662-1.6c-.263.594-.4,1.126.558,1.094-.368.363-.733.726-1.1,1.089l-.556.02" fill="#468298"/>
    <path id="Tracciato_49181" data-name="Tracciato 49181" d="M138.007,118.62c.107-.543.022-1.151.526-1.56.309.684,1.173,1.554-.526,1.56" fill="#849f9a"/>
    <path id="Tracciato_49182" data-name="Tracciato 49182" d="M151.753,123.086c.568-.41,1.783-.388,1.088-1.637,1.981.212,2.242,2.126,3.259,3.293-.588,1.182-1.127,2.27-.548,3.736.527,1.334-.2,2.3-1.714,2.98-.374.169-.414.528-.465.875l-1.635.559c.185-1.5,1.191-2.784,1.106-4.349.469-.132,1.111.225,1.388-.485-.469-.517-.976.036-1.481-.067-1.307-.268-.7-.945-.415-1.577.3,0,.641.474.88,0,.072-.142-.12-.486-.279-.656a2.6,2.6,0,0,0-.669-.389.789.789,0,0,0-.525-.027l.54-1.176c.338-.013.7,0,.863-.371.03-.067-.14-.316-.184-.307-.375.075-.53.381-.656.7-.473-.223-.519-.661-.553-1.1" fill="#1a5473"/>
    <path id="Tracciato_49183" data-name="Tracciato 49183" d="M137.055,137.84c-.013-.367-.025-.733-.037-1.1h0c1.6.14,1.974-.934,2.17-2.186l.01-.01a.993.993,0,0,0,1.108-1.039c.174-.023.349-.04.524-.053a11.2,11.2,0,0,1,4.106,1.092.738.738,0,0,0,.257,0l.564-.511.023-.005c1.242.1,1.71-.537,1.606-1.708,1.753-.544,1.918-.429,1.632,1.14-1-.046-1.5,1.017-1.8,1.45a3.292,3.292,0,0,1-2.563,1.27l-.543-.541,0,0a.863.863,0,0,0-1.209-.4,2.107,2.107,0,0,0,.109.4c0,.183.005.367.007.55a25.3,25.3,0,0,0-5.461,1.638l0,0c-.168,0-.336.006-.5.016" fill="#174c6e"/>
    <path id="Tracciato_49184" data-name="Tracciato 49184" d="M149.02,133.459c.286-1.568.12-1.684-1.632-1.139q0-.788-.005-1.577.26-.568.518-1.137a1.18,1.18,0,0,1,1.116-.506c.239.513-.912,1.514.56,1.594.515-.006,1.224.25,1.423-.373.206-.642-.789-.171-.9-.676.508-1.377,1.871-.627,2.741-1.1.086,1.565-.92,2.853-1.106,4.349-.72,1.075-1.772.566-2.717.568" fill="#287198"/>
    <path id="Tracciato_49185" data-name="Tracciato 49185" d="M137.055,137.84c.168-.01.336-.015.5-.016.09.263.174.306.215.123.005-.022-.142-.079-.218-.12a25.3,25.3,0,0,1,5.461-1.638c.052,1.209-.262,2.138-1.7,2.182-.935.029-.627.6-.486,1.1-.633.631-1.219,1.355-2.184.393-.168-.168-.669,0-1.016.007l-.521-.475c-.039-.341-.079-.683-.119-1.024.02-.176.042-.352.064-.528" fill="#13405a"/>
    <path id="Tracciato_49186" data-name="Tracciato 49186" d="M143.567,142.181l0-1.625.544-.547.229-.126-.1-.1-.126.229-.547.544c-.5-.377-.725-.9-.243-1.347s1.04-1.054,1.824-.354c.666.6.881-.045,1.151-.481h0c.567-.171,1.214-.908,1.683-.346a1.73,1.73,0,0,1-.231,2.182c-.929,1.173-2.475,1.224-3.634,1.981l0,0-.532,0Z" fill="#072135"/>
    <path id="Tracciato_49187" data-name="Tracciato 49187" d="M140.846,141.1l-.015-1.635c.7.539.7,1.084.015,1.635" fill="#13405a"/>
    <path id="Tracciato_49188" data-name="Tracciato 49188" d="M143.01,135.639a2.107,2.107,0,0,1-.109-.4.864.864,0,0,1,1.21.4l-1.1,0" fill="#13405a"/>
    <path id="Tracciato_49189" data-name="Tracciato 49189" d="M144.115,135.639l.543.54-.543-.54" fill="#13405a"/>
    <path id="Tracciato_49190" data-name="Tracciato 49190" d="M146.293,138.371c-.077-.042-.224-.1-.219-.124.042-.184.128-.14.218.126Z" fill="#072135"/>
    <path id="Tracciato_49191" data-name="Tracciato 49191" d="M145.2,134.543a.738.738,0,0,1-.257,0,11.157,11.157,0,0,0-4.106-1.092c-.027-.409.166-1.05-.213-1.154-.445-.123-.514.561-.758.885a1.117,1.117,0,0,0-.1.233l-.557,1.128-.01.009-.558-.026c.039-.713-.647-1.535.389-2.1.892-.481.357-.93-.064-1.421-.269-.313-.085-.645.246-.865,1.046,1.15,1.663.539,2.17-.528a5.061,5.061,0,0,0,4.858,2.74c.463.722-.757.99-.449,1.67l-.023.005-.564.511m-.31-1.328c-.142-.045-.323-.165-.417-.117a.49.49,0,0,0-.2.4c.02.216.209.274.372.124a1.683,1.683,0,0,0,.246-.4m-2.392-.454c.214-.072.284-.222.14-.393a1.619,1.619,0,0,0-.4-.263c-.051.143-.178.321-.133.421s.256.16.394.235" fill="#2a7399"/>
    <path id="Tracciato_49192" data-name="Tracciato 49192" d="M139.2,130.145c-.33.22-.514.552-.246.865.422.491.956.94.064,1.422-1.036.559-.349,1.382-.389,2.094l0,0-1.1-.5c-1.057-.528-1.138-1.29-.536-2.218.258-.08.3-.157.131-.2-.02-.005-.076.138-.115.213a1,1,0,0,1-1.048-.529c.339-.5,2.283-.527.491-1.661q.01-.824.019-1.649h.271l.271,0c.177.012.354.02.532.022l-.008-.009a2.019,2.019,0,0,0,1.1,1.108l.553,1.035" fill="#3c8cb0"/>
    <path id="Tracciato_49193" data-name="Tracciato 49193" d="M136.481,127.99q-.009.825-.019,1.65l.009-.007-.569,0-1.084,0a1.044,1.044,0,0,0-1.072-.531l-.02-.036c.314-.636.674-1.255.93-1.914.365-.94-.193-1.293-1.021-1.412a2.4,2.4,0,0,1,1.167-1.579c.378.818.818,1.048,1.473.223.129-.163.473-.155.718-.225a10,10,0,0,0-1.08,2.748l-.522.559c.188.414.37.333.55-.006q.255,0,.51.018.009.257.03.513" fill="#337797"/>
    <path id="Tracciato_49194" data-name="Tracciato 49194" d="M137.018,136.74c-.88.054-1.627-.117-1.806-1.145a.466.466,0,0,1,.241-.383c1.008-.186,1.043.768,1.454,1.284a1.127,1.127,0,0,1,.113.243h0" fill="#3a7c9a"/>
    <path id="Tracciato_49195" data-name="Tracciato 49195" d="M133.746,129.1a1.044,1.044,0,0,1,1.072.531c-.028.648-.273,1.086-1.01,1.054q-.056-.507-.114-1.011c.017-.192.035-.383.052-.574" fill="#4b89a3"/>
    <path id="Tracciato_49196" data-name="Tracciato 49196" d="M136.462,129.64c1.791,1.133-.152,1.159-.492,1.661-.015-.373-.032-.745-.048-1.118l.549-.55Z" fill="#337797"/>
    <path id="Tracciato_49197" data-name="Tracciato 49197" d="M137.539,134.032l1.1.5c-.831.859-.962.176-1.1-.5" fill="#2a7399"/>
    <path id="Tracciato_49198" data-name="Tracciato 49198" d="M136.471,129.633l-.548.55c-.008-.182-.013-.364-.021-.546l.569,0" fill="#3c8cb0"/>
    <path id="Tracciato_49199" data-name="Tracciato 49199" d="M143.573,142.188l.532,0c-.179.316-.357.316-.532,0" fill="#082944"/>
    <path id="Tracciato_49200" data-name="Tracciato 49200" d="M154.467,142.729c.374-.537.721-.07,1.078.029-.376.585-.733.507-1.078-.029" fill="#1c5983"/>
    <path id="Tracciato_49201" data-name="Tracciato 49201" d="M149.571,117.656c-.033.486.125,1.25-.442,1.3-.932.08-.535-.814-.655-1.318l1.1.019" fill="#5d98a8"/>
    <path id="Tracciato_49202" data-name="Tracciato 49202" d="M153.389,137.279c.042-.076.1-.222.123-.217.184.04.141.125-.122.217Z" fill="#082944"/>
    <path id="Tracciato_49203" data-name="Tracciato 49203" d="M133.635,125.738c.828.119,1.386.473,1.021,1.412-.256.659-.617,1.278-.93,1.915-.81-.561-.476-1.409-.543-2.156.052-.428.013-.892.452-1.171" fill="#376172"/>
    <path id="Tracciato_49204" data-name="Tracciato 49204" d="M141.385,119.818l1.1-1.089c1.166-.006,2.334-.053,3.5-.008,1.214.047,1.172.476.91,1.807-.2,1,.328,2.148.542,3.282.926-.529.339-2.506,2.1-1.787.014.172.024.346.03.519-.332.124-.634.293-.708.671-.01.047.24.223.309.194.38-.16.37-.529.394-.87l.56.007a2.458,2.458,0,0,0,.03.514c.051,1.235-1.191,1.365-1.821,1.695-1.005.525-.138,2.1-1.5,2.158.088-.955-1.193-1.229-1.091-2.191.295.045.571.387.876.082.053-.052-.008-.338-.092-.387-.365-.213-.6,0-.779.312l-.567-.043c-.422-.612-.874-.293-1.373-.1-.428.17-.883.729-1.377.083a3.784,3.784,0,0,0,.034-.488c.011-.172.018-.344.021-.517.92-1.206.923-2.6.98-4.075-.785.186-1.379.831-2.081.226" fill="#5ca8c1"/>
    <path id="Tracciato_49205" data-name="Tracciato 49205" d="M146.834,126.911c1.363-.057.5-1.633,1.5-2.159.629-.329,1.872-.46,1.821-1.694l1.6.028c.034.443.081.88.553,1.1l-.023-.026-.54,1.175c.04.394.094.78.518.969l.075.106c-.282.632-.892,1.309.416,1.577.5.1,1.011-.45,1.48.067-.277.709-.918.352-1.388.484-.87.476-2.234-.274-2.742,1.1a1.062,1.062,0,0,0-.525,1.049c-1.472-.08-.32-1.081-.559-1.594.222-.287.11-.465-.2-.538-.84-.2-1.684-.382-2.527-.572l.01.011-.015-.534.549-.556" fill="#3c89a9"/>
    <path id="Tracciato_49206" data-name="Tracciato 49206" d="M150.126,122.544l-.56-.007.005,0c-.007-.174-.017-.347-.03-.52.44-.137.986-.661,1.268.073.176.458-.383.39-.683.449" fill="#3c89a9"/>
    <path id="Tracciato_49207" data-name="Tracciato 49207" d="M136.993,124.158c-.245.071-.589.062-.718.225-.655.825-1.1.595-1.473-.223a5.2,5.2,0,0,1,1.574-2.782,2.83,2.83,0,0,1,1.184,2.251l-.015-.006-.548.536Z" fill="#20556f"/>
    <path id="Tracciato_49208" data-name="Tracciato 49208" d="M135.913,126.906a10,10,0,0,1,1.08-2.748h0l.549-.537.015.006c.181,0,.363,0,.544,0-.029.881.486,1.808,1.157,1.789,1.212-.034.83,1.215,1.542,1.446.06.946.741,1.763.569,2.756-.506,1.067-1.124,1.678-2.17.528q-.276-.519-.553-1.036c0-.371,0-.742,0-1.112.317-.137.629-.289.7-.665.009-.048-.238-.221-.3-.193-.369.162-.358.527-.392.861h-1.1l.008.009-.257-.732c-.3.155-.258.444-.275.71l-.271,0h-.271q-.021-.256-.03-.513c-.179-.191-.359-.381-.538-.571" fill="#4898ba"/>
    <path id="Tracciato_49209" data-name="Tracciato 49209" d="M140.8,126.862c-.712-.231-.33-1.48-1.542-1.446-.67.019-1.185-.908-1.156-1.789l1.639-1.086c.774,1.466.77,1.459,2.27.941.121-.042.313.119.472.185,0,.173-.009.345-.021.517-.069.044-.163.072-.2.135-.1.159-.033.284.17.353.493.646.948.087,1.377-.083.5-.2.95-.517,1.373.1-.179.195-.356.389-.535.583a1.662,1.662,0,0,0-1.627,1.073c-.741.163-1.625-.276-2.217.522" fill="#6cb5cd"/>
    <path id="Tracciato_49210" data-name="Tracciato 49210" d="M142.486,123.667c-.159-.066-.351-.227-.473-.185-1.5.518-1.5.525-2.269-.941-.005-.183-.009-.366-.014-.549l1.1-2.154.556-.02c.7.6,1.3-.04,2.081-.227-.057,1.474-.06,2.87-.98,4.076" fill="#8bc9da"/>
    <path id="Tracciato_49211" data-name="Tracciato 49211" d="M152.268,125.367a2.587,2.587,0,0,1,.669.389c.159.169.35.514.279.656-.239.476-.579.007-.881,0l-.074-.105c0-.314.005-.628.007-.942" fill="#3c89a9"/>
    <path id="Tracciato_49212" data-name="Tracciato 49212" d="M152.306,124.19c.126-.324.281-.63.656-.705.043-.008.214.24.184.307-.164.372-.525.358-.863.372l.023.026" fill="#3c89a9"/>
    <path id="Tracciato_49213" data-name="Tracciato 49213" d="M152.268,125.367c0,.314-.005.628-.007.942-.425-.189-.478-.576-.518-.97a.8.8,0,0,1,.525.028" fill="#4e9ab5"/>
    <path id="Tracciato_49214" data-name="Tracciato 49214" d="M145.782,134.027c-.307-.68.913-.948.45-1.67.1-.31.374-.6.182-.949-.18-.326-.825-.631-.2-.982.252-.141.772.2,1.17.317q0,.789,0,1.577c.1,1.17-.364,1.8-1.606,1.707" fill="#205f87"/>
    <path id="Tracciato_49215" data-name="Tracciato 49215" d="M139.758,133.416a1.117,1.117,0,0,1,.1-.233c.244-.324.313-1.008.758-.885.378.1.186.745.213,1.154-.175.012-.35.03-.525.052l-.55-.088" fill="#3e93b8"/>
    <path id="Tracciato_49216" data-name="Tracciato 49216" d="M139.758,133.416l.55.088a.992.992,0,0,1-1.107,1.04l.557-1.128" fill="#286486"/>
    <path id="Tracciato_49217" data-name="Tracciato 49217" d="M145.2,134.544l.564-.511-.564.511" fill="#205f87"/>
    <path id="Tracciato_49218" data-name="Tracciato 49218" d="M147.383,130.743c-.4-.119-.918-.457-1.169-.316-.625.351.02.656.2.982.192.348-.084.638-.182.949a5.063,5.063,0,0,1-4.859-2.74c.172-.993-.509-1.81-.569-2.756.592-.8,1.475-.359,2.216-.522.076.342.333.8.2,1.006-1.127,1.7.729,1.359,1.164,1.421.612.086,1.1-.881,1.917-.766l-.01-.01c.015,1.059.915,1.236,1.612,1.615l-.519,1.137m-3.247.009c.089.274.175.319.221.128.006-.022-.146-.082-.224-.124-.15-.194.205-.828-.423-.552-.134.06.171.434.426.548" fill="#408eb0"/>
    <path id="Tracciato_49219" data-name="Tracciato 49219" d="M147.9,129.606c-.7-.379-1.6-.556-1.612-1.616.843.19,1.687.373,2.527.572.311.073.423.251.2.538a1.181,1.181,0,0,0-1.116.506" fill="#50a4c5"/>
    <path id="Tracciato_49220" data-name="Tracciato 49220" d="M149.577,130.694a1.061,1.061,0,0,1,.525-1.049c.109.5,1.1.034.9.676-.2.623-.907.367-1.423.373" fill="#3b91b3"/>
    <path id="Tracciato_49221" data-name="Tracciato 49221" d="M137.556,137.827c.076.041.223.1.217.121-.04.183-.124.139-.214-.124l0,0" fill="#174c6e"/>
    <path id="Tracciato_49222" data-name="Tracciato 49222" d="M144.109,140.009l.126-.228.1.1Z" fill="#082944"/>
    <path id="Tracciato_49223" data-name="Tracciato 49223" d="M143.562,140.554l.547-.545-.545.548Z" fill="#082944"/>
    <path id="Tracciato_49224" data-name="Tracciato 49224" d="M144.885,133.216a1.7,1.7,0,0,1-.246.4c-.163.15-.352.092-.372-.124a.486.486,0,0,1,.2-.4c.094-.049.275.071.417.117" fill="#1b5678"/>
    <path id="Tracciato_49225" data-name="Tracciato 49225" d="M142.493,132.762c-.138-.075-.342-.121-.394-.236s.082-.277.133-.42a1.641,1.641,0,0,1,.4.262c.143.171.073.322-.141.394" fill="#4296b6"/>
    <path id="Tracciato_49226" data-name="Tracciato 49226" d="M138.648,128c0,.371,0,.742,0,1.113a2.022,2.022,0,0,1-1.1-1.108l1.1,0Z" fill="#59aac5"/>
    <path id="Tracciato_49227" data-name="Tracciato 49227" d="M137.023,127.989c.017-.266-.028-.555.275-.71q.129.366.257.732c-.177,0-.355-.009-.532-.022" fill="#59aac5"/>
    <path id="Tracciato_49228" data-name="Tracciato 49228" d="M137.019,131.829c.039-.075.1-.218.115-.213.174.041.128.118-.13.2Z" fill="#286486"/>
    <path id="Tracciato_49229" data-name="Tracciato 49229" d="M135.913,126.906c.179.19.359.38.538.571-.17-.009-.339-.015-.51-.018l-.55.006.522-.559" fill="#3c8cb0"/>
    <path id="Tracciato_49230" data-name="Tracciato 49230" d="M135.391,127.465l.55-.006c-.18.339-.362.421-.55.006" fill="#4898ba"/>
    <path id="Tracciato_49231" data-name="Tracciato 49231" d="M144.648,125.267l.534-.583.567.042,0-.007c-.1.963,1.179,1.236,1.09,2.192l-.549.556c-1.006.029-1.765-.149-1.387-1.465.058-.205-.16-.488-.25-.735" fill="#408daf"/>
    <path id="Tracciato_49232" data-name="Tracciato 49232" d="M145.749,124.726c.179-.307.414-.525.779-.312.083.049.145.335.092.388-.306.3-.582-.038-.877-.083l.006.007" fill="#408daf"/>
    <path id="Tracciato_49233" data-name="Tracciato 49233" d="M149.566,122.537c-.024.341-.015.709-.394.869-.069.029-.319-.147-.309-.194.074-.378.376-.546.708-.671Z" fill="#3c89a9"/>
    <path id="Tracciato_49234" data-name="Tracciato 49234" d="M142.432,124.672c-.2-.069-.271-.194-.169-.353.04-.063.134-.091.2-.135a3.79,3.79,0,0,1-.034.488" fill="#8bc9da"/>
    <path id="Tracciato_49235" data-name="Tracciato 49235" d="M144.648,125.267c.09.247.308.53.25.735-.378,1.316.381,1.494,1.387,1.465,0,.178.011.356.015.534-.818-.116-1.3.852-1.917.765-.435-.061-2.29.281-1.163-1.42.134-.2-.123-.664-.2-1.006a1.66,1.66,0,0,1,1.627-1.073" fill="#5eaac5"/>
    <path id="Tracciato_49236" data-name="Tracciato 49236" d="M137.546,123.622l-.549.537.549-.537" fill="#337797"/>
    <path id="Tracciato_49237" data-name="Tracciato 49237" d="M138.652,128c.034-.333.022-.7.393-.861.064-.028.31.145.3.193-.07.376-.382.529-.7.665Z" fill="#59aac5"/>
    <path id="Tracciato_49238" data-name="Tracciato 49238" d="M144.136,130.752c-.255-.114-.56-.489-.426-.548.628-.276.273.357.422.552Z" fill="#61b1ca"/>
    <path id="Tracciato_49239" data-name="Tracciato 49239" d="M144.133,130.756c.079.042.23.1.225.124-.046.191-.132.146-.222-.128l0,0" fill="#2a5c7c"/>
  </g>
</svg>
