<svg xmlns="http://www.w3.org/2000/svg" id="Livello_1" viewBox="0 0 337.58 109.43">
    <defs>
        <style>
            .cls-1 {
            fill: #fff;
            }
        </style>
    </defs>
    <g>
        <path class="cls-1" d="M49.94,45.28c-.24-.99-.93-1.93-2.05-2.8-1.1-.87-2.18-1.33-3.2-1.37-1.05-.04-2.17.55-3.28,1.75-1.56,1.63-3.03,3.08-4.38,4.32-1.32,1.22-2.79,2.17-4.37,2.81-1.57.64-3.5.97-5.73.97-3.16,0-5.9-.81-8.14-2.42-2.26-1.61-4.02-3.91-5.25-6.82-.46-1.07-.83-2.25-1.12-3.5,3.43-.3,6.74-.76,9.86-1.35,3.76-.7,7.23-1.71,10.32-2.97,3.1-1.27,5.83-2.82,8.12-4.62,2.3-1.81,4.11-3.91,5.4-6.26,1.29-2.35,1.94-5,1.94-7.89,0-3.42-.8-6.27-2.36-8.49-1.56-2.21-3.75-3.89-6.49-4.99-2.7-1.09-5.86-1.64-9.39-1.64-4.27,0-8.23.8-11.75,2.37-3.53,1.58-6.59,3.86-9.11,6.79-2.51,2.93-4.49,6.44-5.86,10.43-1.38,3.99-2.09,8.48-2.09,13.33,0,5.15.95,9.88,2.82,14.03,1.88,4.18,4.74,7.55,8.51,10.04,3.76,2.49,8.52,3.75,14.15,3.75,2.62,0,5.32-.42,8.03-1.24,2.7-.83,5.36-2.16,7.92-3.95,2.56-1.82,4.84-4.22,6.78-7.12.74-1.07.99-2.13.73-3.14ZM28.93,9.78c2.5,0,4.54.48,6.05,1.44,1.47.92,2.18,2.45,2.18,4.68,0,1.67-.51,3.21-1.52,4.58-1.04,1.4-2.47,2.65-4.27,3.72-1.81,1.09-3.92,2.03-6.25,2.8-2.32.76-4.81,1.38-7.39,1.82-2.05.35-4.07.61-6.01.77.12-2.66.57-5.12,1.33-7.31.9-2.6,2.17-4.87,3.76-6.76,1.59-1.88,3.43-3.31,5.48-4.28,2.04-.97,4.28-1.46,6.65-1.46Z"/>
        <path class="cls-1" d="M160.15,53.28h0c-.84,1.45-1.92,2.74-3.21,3.85-1.31,1.11-2.74,1.96-4.25,2.52-1.52.57-3.15.86-4.83.86-1.82,0-3.47-.27-4.88-.8-1.44-.55-2.64-1.33-3.57-2.34-.94-1.02-1.63-2.32-2.05-3.86-.42-1.51-.63-3.23-.63-5.12v-27.37c0-2.45-.33-4.56-.97-6.24-.63-1.64-1.65-2.9-3.04-3.73-1.41-.84-3.36-1.27-5.78-1.27-2.07,0-4.11.53-6.08,1.56-1.98,1.04-3.86,2.65-5.59,4.79-1.75,2.15-3.3,4.9-4.61,8.17-.1.26-.2.51-.3.77v31.88c0,1.13-.49,1.98-1.44,2.55-.89.52-2.2.79-3.9.79s-2.99-.26-3.85-.79c-.91-.57-1.38-1.42-1.38-2.55V21.03c0-2.47-.31-4.57-.92-6.25-.59-1.63-1.61-2.89-3.03-3.72-1.45-.84-3.41-1.27-5.84-1.27-1.56,0-3.12.38-4.64,1.12-1.54.75-3.07,1.94-4.55,3.52-1.49,1.6-2.87,3.59-4.11,5.91-1.24,2.33-2.34,5.05-3.28,8.09v28.53c0,1.13-.49,1.98-1.44,2.55-.89.52-2.2.79-3.9.79s-2.88-.26-3.74-.79c-.91-.57-1.38-1.42-1.38-2.55V3.78c0-1.13.46-1.98,1.38-2.55.86-.53,2.08-.79,3.73-.79s3,.26,3.9.79c.94.56,1.44,1.44,1.44,2.55v8.02c1.05-1.87,2.19-3.48,3.4-4.81,1.55-1.7,3.17-3.07,4.83-4.08,1.66-1.03,3.35-1.77,5.01-2.22,1.65-.45,3.23-.68,4.68-.68,3.53,0,6.77.67,9.64,1.98,2.89,1.33,5.21,3.49,6.88,6.41.56.98,1.02,2.06,1.39,3.24.52-.88,1.07-1.72,1.66-2.51,2.26-3.04,4.91-5.35,7.89-6.86,2.98-1.51,6.17-2.27,9.49-2.27,3.61,0,6.85.67,9.65,1.99,2.82,1.33,5.09,3.49,6.76,6.41,1.66,2.92,2.51,6.83,2.51,11.63v27.15c0,.99.12,1.79.36,2.4.23.57.54.99.93,1.23.41.25.91.38,1.49.38.74,0,1.33-.11,1.74-.34.44-.24.9-.59,1.34-1.04.49-.49,1.03-1.06,1.6-1.7.57-.57,1.28-.78,2.13-.65.79.13,1.6.56,2.4,1.28.65.57,1.1,1.28,1.3,2.11.21.85.11,1.67-.32,2.43Z"/>
        <path class="cls-1" d="M267.41,53.28h0c-.84,1.45-1.92,2.74-3.21,3.85-1.31,1.11-2.74,1.96-4.25,2.52-1.52.57-3.15.86-4.83.86-1.83,0-3.47-.27-4.88-.8-1.44-.55-2.64-1.33-3.56-2.34-.94-1.02-1.63-2.32-2.05-3.86-.41-1.51-.62-3.23-.62-5.12v-27.37c0-2.46-.33-4.56-.97-6.24-.63-1.65-1.66-2.9-3.04-3.73-1.41-.84-3.36-1.27-5.78-1.27-2.07,0-4.11.53-6.08,1.56-1.98,1.04-3.86,2.65-5.59,4.79-1.74,2.14-3.29,4.89-4.61,8.17-.1.26-.2.51-.3.77v31.88c0,1.13-.49,1.98-1.44,2.55-.89.52-2.2.79-3.9.79s-2.99-.26-3.85-.79c-.91-.57-1.38-1.42-1.38-2.55V21.03c0-2.47-.31-4.57-.92-6.25-.59-1.63-1.61-2.89-3.03-3.72-1.45-.84-3.41-1.27-5.84-1.27-1.56,0-3.12.38-4.64,1.12-1.54.75-3.07,1.94-4.55,3.52-1.49,1.6-2.87,3.59-4.11,5.91-1.25,2.35-2.35,5.07-3.28,8.09v28.53c0,1.13-.49,1.98-1.44,2.55-.89.52-2.2.79-3.9.79s-2.88-.26-3.74-.79c-.91-.57-1.38-1.42-1.38-2.55V3.78c0-1.12.46-1.98,1.38-2.55.86-.53,2.08-.79,3.74-.79s3,.26,3.9.79c.94.56,1.44,1.44,1.44,2.55v8.02c1.05-1.87,2.19-3.48,3.4-4.81,1.55-1.7,3.17-3.07,4.83-4.08,1.66-1.03,3.35-1.77,5.01-2.22,1.65-.45,3.23-.68,4.68-.68,3.53,0,6.77.67,9.64,1.98,2.89,1.33,5.21,3.49,6.88,6.41.55.97,1.02,2.05,1.39,3.24.52-.88,1.07-1.72,1.66-2.51,2.26-3.05,4.91-5.36,7.89-6.86,2.98-1.51,6.17-2.27,9.49-2.27,3.61,0,6.85.67,9.65,1.99,2.81,1.33,5.09,3.49,6.76,6.41,1.66,2.92,2.51,6.83,2.51,11.63v27.15c0,.99.12,1.79.36,2.4.23.57.54.99.93,1.23.42.25.91.38,1.49.38.74,0,1.33-.11,1.74-.34.44-.24.9-.59,1.34-1.04.49-.49,1.03-1.06,1.6-1.7.57-.57,1.28-.78,2.13-.65.79.13,1.6.56,2.4,1.28.65.57,1.1,1.28,1.3,2.11.21.85.11,1.67-.32,2.43Z"/>
        <path class="cls-1" d="M337.05,50.8c-.21-.86-.72-1.67-1.52-2.4l-.04-.04c-.79-.55-1.56-.9-2.29-1.02-.81-.14-1.53.12-2.07.75-.67.74-1.24,1.35-1.71,1.82-.44.44-.89.77-1.32.97-.42.19-.98.3-1.65.3-.52,0-.97-.12-1.38-.38-.39-.24-.71-.66-.93-1.23-.24-.61-.36-1.41-.36-2.4V3.89c0-1.2-.46-2.09-1.38-2.66-.86-.53-2.12-.79-3.85-.79s-3.01.28-3.91.85c-.87.55-1.34,1.36-1.42,2.41-2.05-1.1-4.22-1.98-6.46-2.63-2.48-.72-4.95-1.07-7.35-1.07-3.23,0-6.2.49-8.83,1.47-2.64.98-5.01,2.41-7.04,4.26-2.03,1.85-3.78,4.13-5.21,6.79-1.42,2.66-2.51,5.7-3.21,9.02-.71,3.31-1.06,6.95-1.06,10.83,0,6.19.89,11.41,2.65,15.53,1.77,4.14,4.3,7.31,7.51,9.43s6.94,3.19,11.09,3.19c2.26,0,4.54-.42,6.77-1.25s4.4-2.21,6.43-4.1c1.71-1.59,3.31-3.68,4.76-6.24v.04c.04.53.06.96.06,1.31v.06c.23,1.58.57,3.01,1.03,4.26.47,1.29,1.2,2.4,2.17,3.29.97.89,2.13,1.56,3.45,1.99,1.3.42,2.84.63,4.59.63s3.31-.31,4.84-.92c1.53-.61,2.93-1.46,4.18-2.52,1.26-1.06,2.32-2.34,3.16-3.8.42-.76.53-1.6.32-2.48ZM296.73,50.73c-2.7,0-4.96-.75-6.73-2.23-1.78-1.49-3.12-3.67-3.98-6.47-.87-2.84-1.32-6.2-1.32-10,0-3.08.24-5.83.72-8.2.47-2.36,1.17-4.45,2.07-6.23.9-1.76,2.01-3.25,3.3-4.44,1.28-1.18,2.75-2.06,4.35-2.64,1.62-.57,3.42-.86,5.36-.86,2.18,0,4.33.24,6.41.71,2,.46,4.11,1.31,6.28,2.55v21.03c-1.24,3.7-2.75,6.84-4.49,9.33-1.74,2.5-3.64,4.38-5.65,5.61-2,1.21-4.13,1.83-6.34,1.83Z"/>
    </g>
    <g>
        <path class="cls-1" d="M24.4,86.16c1.52,1.07,2.66,2.5,3.43,4.3.77,1.8,1.16,3.8,1.16,6s-.39,4.23-1.16,6.04c-.77,1.8-1.92,3.23-3.43,4.28-1.52,1.05-3.34,1.58-5.47,1.58h-8.36c-.45,0-.84-.16-1.16-.48s-.48-.7-.48-1.16v-20.54c0-.45.16-.84.48-1.16.32-.32.7-.48,1.16-.48h8.36c2.13,0,3.96.53,5.47,1.6ZM23.79,102.76c1.16-1.64,1.73-3.75,1.73-6.31s-.58-4.63-1.75-6.29c-1.17-1.65-2.9-2.48-5.19-2.48h-6.29v17.54h6.29c2.31,0,4.05-.82,5.2-2.46Z"/>
        <path class="cls-1" d="M53.86,105.71c.31.32.46.69.46,1.12,0,.45-.15.82-.46,1.11s-.7.42-1.17.42h-11.83c-.45,0-.84-.16-1.16-.48s-.48-.7-.48-1.16v-20.54c0-.45.16-.84.48-1.16.32-.32.7-.48,1.16-.48h11.83c.48,0,.87.15,1.17.44.31.29.46.68.46,1.16s-.15.82-.46,1.11-.7.42-1.17.42h-10.1v6.94h8.57c.48,0,.87.15,1.17.44.31.29.46.67.46,1.12,0,.48-.15.85-.46,1.12-.31.27-.7.41-1.17.41h-8.57v7.51h10.1c.48,0,.87.16,1.17.48Z"/>
        <path class="cls-1" d="M67.34,108c-1.27-.46-2.48-1.22-3.64-2.26-.48-.41-.71-.87-.71-1.39,0-.41.16-.78.48-1.11.32-.33.69-.49,1.12-.49.39,0,.71.12.99.37.91.84,1.84,1.46,2.81,1.85.96.4,2.06.59,3.28.59,1.43,0,2.64-.33,3.62-.99.99-.66,1.48-1.48,1.48-2.48-.02-1.18-.52-2.09-1.48-2.74-.96-.65-2.43-1.18-4.4-1.62-2.33-.48-4.13-1.26-5.39-2.35s-1.89-2.59-1.89-4.52c0-1.34.35-2.51,1.05-3.52.7-1.01,1.68-1.79,2.92-2.33s2.65-.82,4.22-.82c1.4,0,2.73.23,3.98.68,1.25.45,2.25,1.05,3.03,1.8.52.45.78.94.78,1.46,0,.41-.15.77-.46,1.09-.31.32-.67.48-1.1.48-.32,0-.58-.09-.78-.27-.59-.59-1.41-1.09-2.45-1.5-1.04-.41-2.04-.61-2.99-.61-1.52,0-2.73.31-3.62.93-.9.62-1.34,1.45-1.34,2.46,0,1.11.45,1.96,1.34,2.55.9.59,2.23,1.09,4,1.5,1.77.39,3.21.84,4.33,1.36s1.99,1.25,2.6,2.18c.61.93.92,2.14.92,3.64,0,1.31-.37,2.48-1.1,3.5-.74,1.02-1.74,1.81-3.01,2.38-1.27.57-2.66.85-4.18.85-1.65,0-3.12-.23-4.39-.7Z"/>
        <path class="cls-1" d="M93.08,107.88c-.34.32-.74.48-1.19.48-.5,0-.9-.16-1.21-.48-.31-.32-.46-.71-.46-1.19v-20.5c0-.45.16-.84.48-1.16.32-.32.73-.48,1.22-.48.45,0,.84.16,1.17.48.33.32.49.7.49,1.16v20.5c0,.48-.17.87-.51,1.19Z"/>
        <path class="cls-1" d="M123.77,96.32c.31.32.46.7.46,1.16v7.65c0,.61-.27,1.09-.82,1.43-1.04.68-2.19,1.21-3.43,1.58-1.25.37-2.53.56-3.84.56-2.27,0-4.35-.54-6.24-1.63s-3.38-2.57-4.47-4.44c-1.09-1.87-1.63-3.93-1.63-6.17s.54-4.3,1.63-6.17c1.09-1.87,2.58-3.35,4.47-4.44s3.97-1.63,6.24-1.63c1.13,0,2.23.12,3.28.37,1.05.25,2,.62,2.84,1.12.27.16.48.35.61.58.14.23.2.48.2.75,0,.45-.15.84-.46,1.17-.31.33-.67.49-1.1.49-.34,0-.63-.08-.88-.24-1.47-.68-2.97-1.02-4.49-1.02-1.63,0-3.12.4-4.47,1.19-1.35.79-2.41,1.88-3.2,3.26-.78,1.38-1.17,2.9-1.17,4.56s.39,3.17,1.17,4.54c.78,1.37,1.85,2.46,3.2,3.26,1.35.8,2.84,1.21,4.47,1.21.77,0,1.58-.09,2.43-.27.85-.18,1.58-.42,2.19-.71v-5.41h-4.11c-.45,0-.84-.15-1.16-.46-.32-.31-.48-.69-.48-1.14,0-.48.16-.87.48-1.17.32-.31.7-.46,1.16-.46h5.98c.45,0,.83.16,1.14.48Z"/>
        <path class="cls-1" d="M153.53,84.98c.27.28.41.64.41,1.07v20.64c0,.48-.15.87-.46,1.19s-.7.48-1.17.48c-.25,0-.49-.04-.73-.12-.24-.08-.43-.2-.56-.36l-13.36-17.41v16.39c0,.43-.14.79-.42,1.07-.28.28-.64.42-1.07.42s-.78-.14-1.05-.42-.41-.64-.41-1.07v-20.67c0-.48.15-.87.46-1.17.31-.31.69-.46,1.14-.46.27,0,.53.05.78.15.25.1.44.24.58.43l13.33,17.44v-16.52c0-.43.14-.79.43-1.07.28-.28.64-.42,1.07-.42s.78.14,1.05.42Z"/>
        <path class="cls-1" d="M183.66,108c-1.27-.46-2.48-1.22-3.64-2.26-.48-.41-.71-.87-.71-1.39,0-.41.16-.78.48-1.11.32-.33.69-.49,1.12-.49.39,0,.71.12.99.37.91.84,1.84,1.46,2.8,1.85.96.4,2.06.59,3.28.59,1.43,0,2.63-.33,3.62-.99.99-.66,1.48-1.48,1.48-2.48-.02-1.18-.52-2.09-1.48-2.74-.96-.65-2.43-1.18-4.4-1.62-2.33-.48-4.13-1.26-5.39-2.35s-1.89-2.59-1.89-4.52c0-1.34.35-2.51,1.05-3.52.7-1.01,1.68-1.79,2.92-2.33,1.25-.54,2.65-.82,4.22-.82,1.41,0,2.73.23,3.98.68,1.25.45,2.25,1.05,3.03,1.8.52.45.78.94.78,1.46,0,.41-.15.77-.46,1.09-.31.32-.67.48-1.1.48-.32,0-.58-.09-.78-.27-.59-.59-1.41-1.09-2.45-1.5-1.04-.41-2.04-.61-2.99-.61-1.52,0-2.73.31-3.62.93-.9.62-1.34,1.45-1.34,2.46,0,1.11.45,1.96,1.34,2.55.9.59,2.23,1.09,4,1.5,1.77.39,3.21.84,4.33,1.36s1.99,1.25,2.6,2.18c.61.93.92,2.14.92,3.64,0,1.31-.37,2.48-1.11,3.5-.74,1.02-1.74,1.81-3.01,2.38s-2.66.85-4.18.85c-1.66,0-3.12-.23-4.39-.7Z"/>
        <path class="cls-1" d="M223.15,84.98c.31.28.46.66.46,1.14s-.15.85-.46,1.12c-.31.27-.7.41-1.17.41h-6.05v19.07c0,.45-.17.84-.49,1.16-.33.32-.74.48-1.24.48s-.91-.16-1.24-.48c-.33-.32-.49-.7-.49-1.16v-19.07h-6.02c-.48,0-.87-.14-1.17-.42s-.46-.66-.46-1.14.15-.82.46-1.11.7-.42,1.17-.42h15.54c.48,0,.87.14,1.17.42Z"/>
        <path class="cls-1" d="M251.43,84.98c.28.31.42.7.42,1.17v13.06c0,1.79-.4,3.4-1.19,4.83-.79,1.43-1.89,2.54-3.28,3.35-1.39.8-2.96,1.21-4.71,1.21s-3.36-.4-4.76-1.21-2.5-1.92-3.3-3.35c-.79-1.43-1.19-3.04-1.19-4.83v-13.06c0-.48.16-.87.48-1.17s.73-.46,1.22-.46c.43,0,.81.16,1.14.48.33.32.49.7.49,1.16v13.06c0,1.18.27,2.24.82,3.18s1.27,1.67,2.18,2.19c.91.52,1.88.78,2.92.78s2.1-.26,3.03-.78c.93-.52,1.67-1.25,2.23-2.19.55-.94.83-2,.83-3.18v-13.06c0-.48.14-.87.41-1.17.27-.31.65-.46,1.12-.46s.86.15,1.14.46Z"/>
        <path class="cls-1" d="M278.89,86.16c1.52,1.07,2.66,2.5,3.43,4.3.77,1.8,1.16,3.8,1.16,6s-.39,4.23-1.16,6.04-1.92,3.23-3.43,4.28-3.34,1.58-5.47,1.58h-8.36c-.45,0-.84-.16-1.16-.48s-.48-.7-.48-1.16v-20.54c0-.45.16-.84.48-1.16.32-.32.7-.48,1.16-.48h8.36c2.13,0,3.96.53,5.47,1.6ZM278.28,102.76c1.16-1.64,1.73-3.75,1.73-6.31s-.58-4.63-1.75-6.29c-1.17-1.65-2.9-2.48-5.19-2.48h-6.29v17.54h6.29c2.31,0,4.05-.82,5.2-2.46Z"/>
        <path class="cls-1" d="M296.57,107.88c-.34.32-.74.48-1.19.48-.5,0-.9-.16-1.21-.48-.31-.32-.46-.71-.46-1.19v-20.5c0-.45.16-.84.48-1.16.32-.32.73-.48,1.22-.48.45,0,.84.16,1.17.48.33.32.49.7.49,1.16v20.5c0,.48-.17.87-.51,1.19Z"/>
        <path class="cls-1" d="M328.78,102.68c-.99,1.86-2.35,3.33-4.1,4.4-1.75,1.08-3.72,1.62-5.92,1.62s-4.17-.54-5.92-1.62c-1.75-1.08-3.11-2.54-4.1-4.4-.99-1.86-1.48-3.93-1.48-6.22s.49-4.36,1.48-6.22c.99-1.86,2.35-3.33,4.1-4.4,1.75-1.08,3.72-1.61,5.92-1.61s4.17.54,5.92,1.61c1.75,1.08,3.11,2.54,4.1,4.4.99,1.86,1.48,3.93,1.48,6.22s-.49,4.36-1.48,6.22ZM325.74,91.85c-.68-1.37-1.63-2.45-2.84-3.23-1.21-.78-2.59-1.17-4.13-1.17s-2.92.39-4.13,1.16c-1.21.77-2.16,1.84-2.84,3.21-.68,1.37-1.02,2.92-1.02,4.64s.34,3.24,1.02,4.61c.68,1.37,1.63,2.45,2.84,3.23,1.21.78,2.59,1.17,4.13,1.17s2.92-.39,4.13-1.17c1.21-.78,2.16-1.86,2.84-3.23.68-1.37,1.02-2.91,1.02-4.61s-.34-3.24-1.02-4.61Z"/>
    </g>
</svg>