<svg id="Raggruppa_29" data-name="Raggruppa 29" xmlns="http://www.w3.org/2000/svg" xmlns:xlink="http://www.w3.org/1999/xlink" width="94.655" height="29" viewBox="0 0 94.655 29">
  <defs>
    <clipPath id="clip-path">
      <rect id="Rettangolo_15" data-name="Rettangolo 15" width="94.655" height="29" fill="none"/>
    </clipPath>
  </defs>
  <g id="Raggruppa_26" data-name="Raggruppa 26" transform="translate(0 0)" clip-path="url(#clip-path)">
    <path id="Tracciato_49529" data-name="Tracciato 49529" d="M102.846.744c5.054,1.367,9.8,7.014,9.659,11.5-4.286-2.933-6.879-6.928-9.659-11.5" transform="translate(-35.317 -0.255)" fill="#fff"/>
    <path id="Tracciato_49530" data-name="Tracciato 49530" d="M60.388,12.017c-1.781-.089-6.95-6.741-7.8-10.043,3.155.532,7.275,5.837,7.8,10.043" transform="translate(-18.058 -0.678)" fill="#fff"/>
    <path id="Tracciato_49531" data-name="Tracciato 49531" d="M7.96,12.171C4.581,9.491,2.473,5.761,0,1.8c3.618.775,7.716,6.1,7.96,10.373" transform="translate(0 -0.617)" fill="#fff"/>
    <path id="Tracciato_49532" data-name="Tracciato 49532" d="M9.091,24.974c.628-.731,1.18-1.372,2.145-2.5a61.583,61.583,0,0,1,3.709,6.086c.283.591-.557,1.763-1.094,3.261-1.867-2.689-3.288-4.733-4.76-6.852" transform="translate(-3.122 -7.719)" fill="#fff"/>
    <path id="Tracciato_49533" data-name="Tracciato 49533" d="M117.963,32.568c-1.194-1.746-2.453-3.424-3.5-5.236-.273-.473.108-1.36.19-2.056.67.093,1.542-.056,1.97.33a23.581,23.581,0,0,1,2.3,2.865c1.214,1.522,1.315,2.852-.961,4.1" transform="translate(-39.272 -8.68)" fill="#fff"/>
    <path id="Tracciato_49534" data-name="Tracciato 49534" d="M63.93,23.893a61.234,61.234,0,0,1,3.766,5.6c.271.5-.542,1.638-.857,2.485l-.818.1c-1.256-1.881-2.615-3.7-3.694-5.691-.251-.466.453-1.492.717-2.261l.886-.229" transform="translate(-21.385 -8.205)" fill="#fff"/>
    <path id="Tracciato_49535" data-name="Tracciato 49535" d="M7.013,26.522c1.894,2.574,3.332,4.531,5.022,6.827-.961.483-2.221,1.335-2.372,1.158A30.075,30.075,0,0,1,6.124,29.5c-.263-.481.426-1.53.889-2.978" transform="translate(-2.083 -9.108)" fill="#fff"/>
    <path id="Tracciato_49536" data-name="Tracciato 49536" d="M51.724,7.3a7.471,7.471,0,0,1-5.859-4.337c-.318-.611.042-1.608.091-2.426.664.2,1.554.192,1.953.648C49.448,2.942,50.83,4.849,52.271,6.7l-.547.6" transform="translate(-15.706 -0.184)" fill="#fff"/>
    <path id="Tracciato_49537" data-name="Tracciato 49537" d="M126.479,23.69c-1.051-1.791-2.164-3.544-3.108-5.393-.237-.466.074-1.236.133-1.869.646.113,1.561-.015,1.884.381a18.527,18.527,0,0,1,2.771,4.293c.261.616-.492,1.7-.783,2.573l-.9.015" transform="translate(-42.336 -5.641)" fill="#fff"/>
    <path id="Tracciato_49538" data-name="Tracciato 49538" d="M44.608,34.643c3.219-.384,6.524,2.369,6.625,4.908a1.5,1.5,0,0,1-.6,1.2c-.439.183-1.271.19-1.51-.106-1.5-1.845-2.877-3.793-4.514-6" transform="translate(-15.318 -11.884)" fill="#fff"/>
    <path id="Tracciato_49539" data-name="Tracciato 49539" d="M33.419,11.281l-2.227,2.608c-1.227-2.152-2.337-3.869-3.172-5.718-.221-.488.4-1.389.633-2.1.559.291,1.273.443,1.645.9,1.086,1.333,2.034,2.788,3.12,4.313" transform="translate(-9.606 -2.084)" fill="#fff"/>
    <path id="Tracciato_49540" data-name="Tracciato 49540" d="M22.3,22.882c-1.022-1.83-2.118-3.622-3.014-5.517-.229-.483.173-1.29.286-1.948.576.158,1.374.121,1.685.51A14.75,14.75,0,0,1,23.8,19.884c.3.813-.374,2.007-.611,3.03-.3-.012-.6-.022-.9-.032" transform="translate(-6.597 -5.294)" fill="#fff"/>
    <path id="Tracciato_49541" data-name="Tracciato 49541" d="M74.847,23.666c-1.45-2.381-3.832-4.093-3.391-7.3,2.145-.081,3.529,1.269,4.682,4.029.628,1.5.091,2.34-1.29,3.276" transform="translate(-24.52 -5.617)" fill="#fff"/>
    <path id="Tracciato_49542" data-name="Tracciato 49542" d="M103.113,7.355c-1.677-1.221-3.431-2.345-4.985-3.714A3.559,3.559,0,0,1,97.34,1.28c-.022-1.173.833-1.722,1.653-.858,1.781,1.884,3.369,3.965,5.036,5.965l-.916.968" transform="translate(-33.426 0)" fill="#fff"/>
    <path id="Tracciato_49543" data-name="Tracciato 49543" d="M130.613,8.438c.768-.734,1.234-1.18,1.775-1.695a7.857,7.857,0,0,1,3.884,4.946,2.433,2.433,0,0,1-.625,1.886c-.163.19-1.246-.113-1.571-.5-1.2-1.428-2.251-2.985-3.463-4.635" transform="translate(-44.853 -2.316)" fill="#fff"/>
    <path id="Tracciato_49544" data-name="Tracciato 49544" d="M35.782,38.353A8.994,8.994,0,0,1,28.741,31.7c2.682.059,6.147,3.268,7.041,6.657" transform="translate(-9.87 -10.884)" fill="#fff"/>
    <path id="Tracciato_49545" data-name="Tracciato 49545" d="M87.869,38.087c-3.635-.48-7.265-4.224-7.076-7.16,3.049,1.6,5.79,3.342,7.076,7.16" transform="translate(-27.742 -10.62)" fill="#fff"/>
    <path id="Tracciato_49546" data-name="Tracciato 49546" d="M139.572,37.892c-3.357-.244-7.118-3.891-7.228-7.063,3.229,1.487,5.79,3.418,7.228,7.063" transform="translate(-45.447 -10.587)" fill="#fff"/>
    <path id="Tracciato_49547" data-name="Tracciato 49547" d="M79,8.661c1.192-2.169,2.379-2.051,3.524-.429a14.434,14.434,0,0,1,1.919,3.387c.2.549-.387,1.391-.613,2.1-.549-.2-1.288-.241-1.615-.643-1.17-1.438-2.2-3-3.214-4.416" transform="translate(-27.129 -2.411)" fill="#fff"/>
    <path id="Tracciato_49548" data-name="Tracciato 49548" d="M97.6,34.491c2.49-.148,5.549,2.4,5.807,4.9.045.431-.123,1.15-.4,1.291a1.952,1.952,0,0,1-1.547,0c-1.448-.7-3.62-4.3-3.859-6.194" transform="translate(-33.517 -11.842)" fill="#fff"/>
    <path id="Tracciato_49549" data-name="Tracciato 49549" d="M89.522,33.989c2.145.056,5.334,2.4,5.775,4.374a2.328,2.328,0,0,1-.276,1.808,1.632,1.632,0,0,1-1.638-.2c-1.546-1.739-2.963-3.608-4.425-5.43.187-.183.377-.364.564-.547" transform="translate(-30.548 -11.672)" fill="#fff"/>
    <path id="Tracciato_49550" data-name="Tracciato 49550" d="M19.291,26.273c-3.578-1.536-5.1-5.674-2.955-7.935,1.687,2.31,3.859,4.337,2.955,7.935" transform="translate(-5.272 -6.297)" fill="#fff"/>
    <path id="Tracciato_49551" data-name="Tracciato 49551" d="M118.718,21.038a4.077,4.077,0,0,1,4.167,2.67c.619,1.441,1.325,3.014-.456,4.728-1.465-2.376-3.78-4.083-3.711-7.4" transform="translate(-40.767 -7.224)" fill="#fff"/>
    <path id="Tracciato_49552" data-name="Tracciato 49552" d="M37.929,33.555c2.359.855,4.485,2.086,5.566,4.682a2,2,0,0,1-.227,1.751,1.594,1.594,0,0,1-1.633-.1c-1.576-1.781-3.022-3.687-4.511-5.552l.8-.778" transform="translate(-12.748 -11.523)" fill="#fff"/>
    <path id="Tracciato_49553" data-name="Tracciato 49553" d="M70.521,28.374c-1.643-2.362-3.605-4.194-3.861-7.238a3.479,3.479,0,0,1,4.1,2.121c.776,1.507,1.554,3.189-.234,5.118" transform="translate(-22.891 -7.224)" fill="#fff"/>
    <path id="Tracciato_49554" data-name="Tracciato 49554" d="M114.279,35.782c-3.552-1.941-4.785-5.357-2.8-7.413,2.81,2.141,3.906,4.94,2.8,7.413" transform="translate(-37.958 -9.742)" fill="#fff"/>
    <path id="Tracciato_49555" data-name="Tracciato 49555" d="M90.136,8.048c-.564.751-.776,1.269-1.142,1.456s-1.106.209-1.276-.022A24.519,24.519,0,0,1,84.823,5.04c-.569-1.278.69-2.251,1.523-1.576,1.475,1.2,2.517,2.98,3.79,4.583" transform="translate(-29.079 -1.114)" fill="#fff"/>
    <path id="Tracciato_49556" data-name="Tracciato 49556" d="M62.468,35.617c-3.48-1.628-4.874-5.379-2.822-7.3,2.766,2.148,3.856,4.859,2.822,7.3" transform="translate(-20.154 -9.722)" fill="#fff"/>
    <path id="Tracciato_49557" data-name="Tracciato 49557" d="M137.382,3.311c1.854-.01,4.819,4.462,4.127,5.608-.271.448-1.608.817-1.773.615a25.251,25.251,0,0,1-2.948-4.391c-.222-.429.416-1.335.594-1.833" transform="translate(-46.958 -1.137)" fill="#fff"/>
    <path id="Tracciato_49558" data-name="Tracciato 49558" d="M42.154,7.135c-1.687-.054-4.4-4.68-3.691-5.682.33-.47,1.714-.83,1.891-.606a20.1,20.1,0,0,1,2.734,4.337c.2.456-.661,1.419-.934,1.951" transform="translate(-13.168 -0.268)" fill="#fff"/>
    <path id="Tracciato_49559" data-name="Tracciato 49559" d="M28.393,16.616c-.645.163-1.692.66-1.869.431a22.943,22.943,0,0,1-3.076-4.807c-.438-1.03.517-2.1,1.534-1.173a36.793,36.793,0,0,1,3.689,4.539c-.094.337-.185.672-.278,1.01" transform="translate(-8.015 -3.679)" fill="#fff"/>
    <path id="Tracciato_49560" data-name="Tracciato 49560" d="M33.028,2.99c2.012-.027,4.963,3.874,4.322,5.2-.251.525-1.808,1.03-1.988.82A22.625,22.625,0,0,1,32.5,4.738c-.215-.414.372-1.276.529-1.749" transform="translate(-11.144 -1.027)" fill="#fff"/>
    <path id="Tracciato_49561" data-name="Tracciato 49561" d="M132.194,18.044c-2.389-.116-4.788-3.108-4.5-5.4.153-1.229.72-1.219,1.6-.766a6.451,6.451,0,0,1,2.9,6.162" transform="translate(-43.842 -3.984)" fill="#fff"/>
    <path id="Tracciato_49562" data-name="Tracciato 49562" d="M56.843,39.215a8.03,8.03,0,0,1-4.425-6.278,4.143,4.143,0,0,1,4.258,2.145c.8,1.2,1.45,2.608.167,4.133" transform="translate(-18 -11.292)" fill="#fff"/>
    <path id="Tracciato_49563" data-name="Tracciato 49563" d="M108.149,39.281a10.974,10.974,0,0,1-4.359-6.423c2.313-.042,3.84.791,4.667,2.494A14.2,14.2,0,0,1,109.164,39c-.337.093-.677.19-1.014.286" transform="translate(-35.642 -11.283)" fill="#fff"/>
    <path id="Tracciato_49564" data-name="Tracciato 49564" d="M80.325,17.981c-2.381-.1-4.775-3.086-4.492-5.391.152-1.234.739-1.225,1.605-.779a6.314,6.314,0,0,1,2.886,6.169" transform="translate(-26.033 -3.962)" fill="#fff"/>
    <path id="Tracciato_49565" data-name="Tracciato 49565" d="M.292,32.784c3.145-.695,5.381,2.074,4.687,5.8-2.138-.209-4.165-2.719-4.687-5.8" transform="translate(-0.1 -11.221)" fill="#fff"/>
    <path id="Tracciato_49566" data-name="Tracciato 49566" d="M91.466,1.111c1.783,0,4.583,4.2,3.881,5.428a1.826,1.826,0,0,1-1.561.687c-1.339-.244-3.265-3.549-2.96-4.943a4.142,4.142,0,0,1,.64-1.172" transform="translate(-31.179 -0.382)" fill="#fff"/>
  </g>
</svg>
