<svg xmlns="http://www.w3.org/2000/svg" xmlns:xlink="http://www.w3.org/1999/xlink" width="643.722" height="349.991" viewBox="0 0 643.722 349.991">
  <defs>
    <clipPath id="clip-path">
      <rect id="Rettangolo_1" data-name="Rettangolo 1" width="643.722" height="349.991" fill="#fff"/>
    </clipPath>
  </defs>
  <g id="Raggruppa_1" data-name="Raggruppa 1" clip-path="url(#clip-path)">
    <path id="Tracciato_1" data-name="Tracciato 1" d="M375.888,554.175q-3.894-3.363-7.792-6.723l.536-.8c4.224-.029,8.317.664,11.6,3.609.984.882,1.228,2.586,1.814,3.912Z" transform="translate(-137.49 -204.185)" fill="#fff"/>
    <path id="Tracciato_2" data-name="Tracciato 2" d="M321.19,82.8c1.176,1.381,2.446,2.7,3.515,4.155,11.724,16.011,23.487,31.994,35.015,48.144,1.3,1.824,1.221,4.633,1.782,6.988q-.563.3-1.126.6c-1.413-1.218-3.093-2.233-4.195-3.686-8.172-10.747-16.242-21.574-24.323-32.395-3.182-4.261-6.377-8.513-9.427-12.871a12.727,12.727,0,0,1-2.441-10.207l1.2-.725" transform="translate(-119.424 -30.928)" fill="#fff"/>
    <path id="Tracciato_3" data-name="Tracciato 3" d="M849.5,140.185c-1.131-1.391-2.25-2.8-3.4-4.171-11.926-14.234-22.954-29.1-31.7-45.54a47.365,47.365,0,0,1-3.122-6.993c-.346-1.027.158-2.342.35-4.285a13.858,13.858,0,0,1,1.735,1.431Q830.4,104.868,847.4,129.14c2.095,3.006,4.245,6.135,2.1,11.044" transform="translate(-302.981 -29.581)" fill="#fff"/>
    <path id="Tracciato_4" data-name="Tracciato 4" d="M163.129,116.369c2.775-2.646,4.34-.819,5.6.67,4.907,5.772,9.811,11.559,14.449,17.544a170.191,170.191,0,0,1,20.844,33.581,10.239,10.239,0,0,1,1.029,4.484c-15.906-17.316-29.312-36.417-41.927-56.279" transform="translate(-60.932 -42.964)" fill="#fff"/>
    <path id="Tracciato_5" data-name="Tracciato 5" d="M331.025,70.6c3.229,4.292,6.429,8.28,9.34,12.467,7.59,10.913,15.155,21.847,22.469,32.944,1.312,1.993,1.378,4.8,2.019,7.235-.378.168-.756.333-1.136.5-.843-.811-1.746-1.567-2.52-2.439C349.045,107.65,338.828,92.57,328.715,77.41c-2.252-3.379.586-4.594,2.31-6.815" transform="translate(-122.47 -26.368)" fill="#fff"/>
    <path id="Tracciato_6" data-name="Tracciato 6" d="M819.851,69.295c2.659,3.237,5.106,5.846,7.135,8.753,8.149,11.658,16.185,23.4,24.218,35.136,1.858,2.722,2.36,5.762,1.5,9.689-2.092-2.439-3.99-4.373-5.573-6.539-9.849-13.477-19.6-27.034-29.46-40.5-2.242-3.061.869-3.969,2.182-6.537" transform="translate(-305.119 -25.883)" fill="#fff"/>
    <path id="Tracciato_7" data-name="Tracciato 7" d="M789.872,203.291c-2.793-3.286-5.844-6.466-8.424-9.986-7.02-9.574-13.682-19.413-20.807-28.906-3.412-4.545-4.148-9.346-3.339-14.935.368.244.743.367.922.625q15.9,22.788,31.762,45.6c.7,1,1.158,2.16,1.77,3.224,1.037,1.8,1.071,3.292-1.882,4.376" transform="translate(-282.754 -55.827)" fill="#fff"/>
    <path id="Tracciato_8" data-name="Tracciato 8" d="M358.97,486.753A21.767,21.767,0,0,1,354.8,485a154.99,154.99,0,0,1-27.651-24.68c-4.709-5.258-9.222-10.69-13.748-16.108a32.462,32.462,0,0,1-2.478-3.972c.255-.307.509-.617.767-.924,1.977,1.052,4.243,1.78,5.875,3.221,5.67,5,11.325,10.041,16.61,15.436,7.946,8.112,15.591,16.52,23.327,24.837a26.875,26.875,0,0,1,2.139,3.04c-.223.3-.446.6-.667.9" transform="translate(-116.133 -164.092)" fill="#fff"/>
    <path id="Tracciato_9" data-name="Tracciato 9" d="M269.311,152.651c4.4,6.127,8.9,12.194,13.2,18.395q10.049,14.491,19.823,29.171c.6.9.811,2.891.239,3.592-1.491,1.832-2.73.021-3.7-1a196.391,196.391,0,0,1-29.347-40.7c-1.389-2.515-.9-6.064-1.281-9.133l1.071-.331" transform="translate(-100.192 -57.018)" fill="#fff"/>
    <path id="Tracciato_10" data-name="Tracciato 10" d="M865.89,186.083c-3.121-3.549-6.2-6.571-8.716-10-7.448-10.144-14.646-20.472-22-30.686a12.692,12.692,0,0,1-2.7-8.833,45.011,45.011,0,0,0-.35-6.091c1.8,2.371,3.237,4.184,4.591,6.062,6.589,9.13,13.255,18.208,19.66,27.464,1.5,2.166,2.2,4.92,3.085,7.466.7,2.01.764,4.328,1.8,6.109.732,1.257,2.549,1.995,4.016,2.669.772.355,1.835.076,2.765.084a36.933,36.933,0,0,1-.591,3.749c-.134.527-.706.943-1.559,2.011" transform="translate(-310.813 -48.732)" fill="#fff"/>
    <path id="Tracciato_11" data-name="Tracciato 11" d="M447.148,137.638c1.507,1.276,3.337,2.315,4.468,3.867,6.986,9.579,13.821,19.271,20.684,28.942a3.594,3.594,0,0,1,.869,1.927c-.262,5.222,3.31,8.424,6.3,11.847,1.044,1.2,2.859,1.7,4.253,2.617,1.069.7,2.5,1.389,2.9,2.42.391,1.006-.321,2.441-.546,3.689-1.056-.284-2.492-.226-3.1-.906-4.773-5.334-9.86-10.482-13.945-16.318-7.383-10.546-14.171-21.5-21.107-32.356a25.81,25.81,0,0,1-1.888-4.945q.559-.394,1.113-.785" transform="translate(-166.602 -51.41)" fill="#fff"/>
    <path id="Tracciato_12" data-name="Tracciato 12" d="M94.965,183.039a21.03,21.03,0,0,1,3.284,2.94c7.818,10.619,15.528,21.314,23.335,31.941,1.389,1.893,3.166,3.5,4.595,5.366,1.178,1.544,2.433,3.337.63,5.2-1.262,1.3-4.376.512-5.789-1.418-8.395-11.467-17.762-22.278-24.1-35.136a85.3,85.3,0,0,1-3.071-8.149c.373-.249.748-.5,1.121-.746" transform="translate(-35.052 -68.368)" fill="#fff"/>
    <path id="Tracciato_13" data-name="Tracciato 13" d="M213.98,162.173c-13.38-14.924-24.806-31.263-35.259-48.695,2.6-1.066,4.261-.6,5.715.987,12.049,13.129,22.568,27.292,29.575,43.817a34.138,34.138,0,0,1,1.05,3.381c-.36.17-.722.339-1.081.509" transform="translate(-66.755 -42.171)" fill="#fff"/>
    <path id="Tracciato_14" data-name="Tracciato 14" d="M377.717,190.177a61.658,61.658,0,0,1-4.9-4.3,220.459,220.459,0,0,1-27.491-38.33c-1.208-2.092-1.171-4.9-1.712-7.377.349-.158.7-.315,1.045-.47a25.509,25.509,0,0,1,2.856,2.46,185.328,185.328,0,0,1,22.737,32.684,33.415,33.415,0,0,1,1.908,4.83c.843,2.368,1.958,4.209,4.967,4.093.709-.029,2.1,1.131,2.069,1.683-.076,1.371-.79,2.707-1.478,4.726" transform="translate(-128.346 -52.182)" fill="#fff"/>
    <path id="Tracciato_15" data-name="Tracciato 15" d="M975.351,191.452c-9.194-4.623-40.77-49.855-39.609-57.282a28.839,28.839,0,0,1,3.683,2.8c8.839,9.356,15.8,20.054,22.1,31.208a4.482,4.482,0,0,1,.68,2.319c-.446,6.353,4.064,9.97,7.769,13.969.7.753,2.21.856,3.378,1.05,4.016.669,4.707,2.5,2,5.933" transform="translate(-349.505 -50.115)" fill="#fff"/>
    <path id="Tracciato_16" data-name="Tracciato 16" d="M72.821,179.458c1.938.89,3.793,1.14,4.552,2.181q15.042,20.744,29.785,41.7a24.165,24.165,0,0,1,1.819,4.239c-10.118-4.927-35.471-38.38-36.157-48.125" transform="translate(-27.2 -67.031)" fill="#fff"/>
    <path id="Tracciato_17" data-name="Tracciato 17" d="M955.349,143.726c-1.1-.816-2.475-1.431-3.255-2.483q-11.3-15.263-22.385-30.686c-.727-1.014-.791-2.5-1.15-3.773-.974-3.439-2.053-6.623-6.51-7.067-1.005-.1-2.029-1.749-2.659-2.9-.212-.392.745-2.045,1.2-2.059a4.933,4.933,0,0,1,3.418.917c3.726,3.924,7.65,7.763,10.748,12.165C941.4,117.28,947.631,127,953.884,136.7c1.207,1.872,1.758,4.166,2.612,6.266l-1.147.756" transform="translate(-343.397 -35.394)" fill="#fff"/>
    <path id="Tracciato_18" data-name="Tracciato 18" d="M466.464,145.974c-1.554-1.294-3.4-2.362-4.61-3.922-5.458-7.03-10.742-14.192-16.063-21.322-.98-1.31-1.819-2.725-2.778-4.05-1.693-2.342-3.032-4.679-2.919-7.826.066-1.819-.859-3.76-1.651-5.5a5.444,5.444,0,0,0-5.6-3.458c-1.011.037-2.765-.94-2.914-1.7a3.917,3.917,0,0,1,1.549-3.163c.528-.378,2.389.21,2.956.918,6.762,8.474,13.651,16.869,19.972,25.669,4.219,5.875,7.639,12.327,11.287,18.6a28.975,28.975,0,0,1,1.805,4.972l-1.032.787" transform="translate(-160.576 -35.45)" fill="#fff"/>
    <path id="Tracciato_19" data-name="Tracciato 19" d="M309.369,414.034a20.494,20.494,0,0,1,3.62,1.837c9.513,7.443,17.334,16.481,24.286,26.283.964,1.363.992,3.374,1.908,4.789.927,1.433,2.218,3.147,3.7,3.607,6.434,2,6.576,1.911,10.986,7.406-3.247-2.208-6.455-4.631-11.007-1.848-10.989-12.057-22.056-24.1-32.946-36.3-1.076-1.2-1.053-3.386-1.541-5.113.331-.221.659-.439.99-.657" transform="translate(-115.185 -154.649)" fill="#fff"/>
    <path id="Tracciato_20" data-name="Tracciato 20" d="M935.281,159.592c7.388,2.759,33.9,40.58,33.4,47.4-7.269-2.226-33.214-38.834-33.4-47.4" transform="translate(-349.344 -59.61)" fill="#fff"/>
    <path id="Tracciato_21" data-name="Tracciato 21" d="M90.784,107.472c-3.182-2.943-6.519-5.734-9.514-8.855C71.8,88.739,64.34,77.374,57.311,65.7c-1.1-1.822-1.413-3.379,1.465-4.781A229.4,229.4,0,0,1,92.021,106.38q-.618.547-1.237,1.092" transform="translate(-21.111 -22.756)" fill="#fff"/>
    <path id="Tracciato_22" data-name="Tracciato 22" d="M657.078,83.7c10.44,15.292,23.012,29.213,30,46.676-.294.276-.588.554-.879.829a13.161,13.161,0,0,1-2.536-1.68,157.293,157.293,0,0,1-27.853-39.753c-.94-1.956-2.46-4.387,1.271-6.072" transform="translate(-244.539 -31.265)" fill="#fff"/>
    <path id="Tracciato_23" data-name="Tracciato 23" d="M478.758,209.287a23.344,23.344,0,0,1-3.89-2.964c-4.279-4.949-8.779-9.771-12.5-15.118-5.13-7.369-9.684-15.14-14.355-22.818a29.987,29.987,0,0,1-1.992-5.271c.244-.189.486-.378.73-.567a17.02,17.02,0,0,1,3.006,2.095,182.7,182.7,0,0,1,28.622,40.428,22,22,0,0,1,1.161,3.575q-.39.323-.78.641" transform="translate(-166.596 -60.715)" fill="#fff"/>
    <path id="Tracciato_24" data-name="Tracciato 24" d="M611.778,128.821c-1.541-1.827-2.891-3.292-4.09-4.872-8.86-11.661-17.93-23.191-24.566-36.351-1.027-2.035-2.2-4.15.819-6.232,1.633,1.95,3.495,3.827,4.957,5.975,7.138,10.485,14.234,21,21.2,31.6a11.877,11.877,0,0,1,1.685,9.884" transform="translate(-217.391 -30.392)" fill="#fff"/>
    <path id="Tracciato_25" data-name="Tracciato 25" d="M439.729,87.754l5.125-4c9.64,13.536,20.7,25.966,26.577,41.646-.365.321-.732.638-1.1.959-1.3-1-2.887-1.777-3.875-3.027q-9.029-11.42-17.809-23.038c-3.072-4.061-5.912-8.3-8.918-12.543" transform="translate(-164.247 -31.285)" fill="#fff"/>
    <path id="Tracciato_26" data-name="Tracciato 26" d="M370.2,378.424c2.47,1.483,5.271,2.609,7.35,4.521,6.616,6.074,12.987,12.414,19.4,18.707,2.113,2.074,3.888,4.526,6.135,6.43,2.911,2.46,3.092,5.395,2.371,9.708-14.442-11.128-25.848-24.155-36.317-38.076.355-.428.706-.858,1.061-1.289" transform="translate(-137.882 -141.348)" fill="#fff"/>
    <path id="Tracciato_27" data-name="Tracciato 27" d="M369.251,390.4c7.335,7.679,14.727,15.307,21.983,23.06,3.7,3.956,7.191,8.12,10.737,12.218,1.252,1.449,3.037,3.2,1.168,4.9-.628.572-3.369-.441-4.618-1.41-8.716-6.736-16.077-14.832-22.821-23.495a63.885,63.885,0,0,1-5.707-8.335c-1.058-1.924-1.341-4.274-1.972-6.432.41-.171.819-.339,1.229-.507" transform="translate(-137.463 -145.822)" fill="#fff"/>
    <path id="Tracciato_28" data-name="Tracciato 28" d="M89.758,227.709c-2.32-1.166-4.384-1.614-5.563-2.885A201.532,201.532,0,0,1,56.04,186.255a14.71,14.71,0,0,1-.829-2.3c6.875,1,32.234,32.718,34.547,43.754" transform="translate(-20.622 -68.711)" fill="#fff"/>
    <path id="Tracciato_29" data-name="Tracciato 29" d="M833.472,159.812c1.636,1.869,3.365,3.667,4.893,5.618,8.012,10.225,15.951,20.511,21.694,32.256,2.029,4.15,1.969,5.122-.089,7.421-.187-.074-.444-.095-.551-.234-9.2-11.753-18.513-23.449-25.239-36.873-1.15-2.295-1.284-5.1-1.887-7.668l1.178-.52" transform="translate(-310.877 -59.693)" fill="#fff"/>
    <path id="Tracciato_30" data-name="Tracciato 30" d="M588.37,163.074a19.479,19.479,0,0,1,3.418,2.715q10.006,12.833,19.836,25.8c2.586,3.418,4.93,7.017,7.564,10.792l-4.1,3.268c-7.413-4.791-27.533-36.4-26.714-42.578" transform="translate(-219.758 -60.911)" fill="#fff"/>
    <path id="Tracciato_31" data-name="Tracciato 31" d="M665.872,146.992a25.822,25.822,0,0,1,3.421,3.279c6.865,9.427,13.761,18.838,20.369,28.444,1.809,2.631,2.47,6.028,4.072,8.837.67,1.171,2.423,1.725,3.681,2.567.774.517,2.1.982,2.179,1.6a3.937,3.937,0,0,1-1.066,2.951c-.407.394-2.069.16-2.6-.365-2.985-2.94-5.952-5.925-8.64-9.136A134.467,134.467,0,0,1,666.4,151.342a39.492,39.492,0,0,1-1.22-3.919c.231-.142.459-.286.69-.43" transform="translate(-248.457 -54.904)" fill="#fff"/>
    <path id="Tracciato_32" data-name="Tracciato 32" d="M335.726,66.161c2.525-1.985,4.549-2.221,6.416-.207,9.63,10.4,18.09,21.616,24.06,34.553a29.9,29.9,0,0,1,1.26,4.226q-.433.331-.866.664a32.461,32.461,0,0,1-4.379-3.7c-3.875-4.615-7.721-9.272-11.294-14.118-5.145-6.972-10.044-14.128-15.2-21.419" transform="translate(-125.4 -24.112)" fill="#fff"/>
    <path id="Tracciato_33" data-name="Tracciato 33" d="M370.2,207.161c-5.1-6.849-10.338-13.525-15.168-20.482a109.881,109.881,0,0,1-8.211-14.011c-1.528-3.1-2.134-6.65-3.156-10l.918-.449c.289.165.675.257.846.5q12.495,17.845,24.928,35.728a17.614,17.614,0,0,1,1.751,3.576c.961,2.4.864,2.62-1.908,5.132" transform="translate(-128.366 -60.593)" fill="#fff"/>
    <path id="Tracciato_34" data-name="Tracciato 34" d="M588.411,138.787a24.435,24.435,0,0,1,3.226,2.366c8.839,9.091,15.557,19.736,22.157,30.457a4.6,4.6,0,0,1,.685,2.607c-.449,5.256,1.638,9.564,4.754,13.549a10.654,10.654,0,0,1,1.418,2.515c-11.12-10.727-33.146-45.728-32.24-51.493" transform="translate(-219.772 -51.839)" fill="#fff"/>
    <path id="Tracciato_35" data-name="Tracciato 35" d="M612.671,152.395c-3.888-5.116-7.923-10.131-11.624-15.378-4.069-5.767-8.038-11.63-11.629-17.7-1.442-2.431-1.833-5.5-2.57-8.314a15.406,15.406,0,0,1-.422-6.093c6.865,10.128,13.8,20.206,20.55,30.41a73.816,73.816,0,0,1,5.566,10.23c.871,1.921.96,4.2,1.4,6.314l-1.273.527" transform="translate(-218.991 -39.187)" fill="#fff"/>
    <path id="Tracciato_36" data-name="Tracciato 36" d="M70.387,51.036a27.849,27.849,0,0,1,3.922,3.639Q82.224,65.42,89.863,76.367c.827,1.192.945,2.877,1.386,4.337,2.05,6.792,5.3,12.609,12.262,15.583a8.49,8.49,0,0,1,3.119,2.431c.527.656.439,1.809.628,2.741-.9-.116-2.1.1-2.639-.4-4.121-3.836-8.348-7.6-12.1-11.78A121.363,121.363,0,0,1,70.846,55.948c-.583-1.363-.937-2.825-1.4-4.239.313-.223.625-.449.937-.672" transform="translate(-25.941 -19.063)" fill="#fff"/>
    <path id="Tracciato_37" data-name="Tracciato 37" d="M294.745,220.488c-2.184-2.362-4.576-4.568-6.513-7.119-4.949-6.516-9.524-13.32-14.581-19.747-3.83-4.867-4.893-10.181-3.875-16.817,9.635,14.1,21.27,26.4,26.011,42.893l-1.042.79" transform="translate(-100.631 -66.04)" fill="#fff"/>
    <path id="Tracciato_38" data-name="Tracciato 38" d="M464.735,416.911c-1.872-.824-4.106-1.247-5.547-2.547-5.3-4.78-10.48-9.713-15.426-14.856-3.449-3.586-6.773-7.387-7.468-12.716a10.963,10.963,0,0,0-1.583-3.625c-1.883-3.392-4-4.271-7.873-3.657a7.7,7.7,0,0,1-2.668-.591,11.856,11.856,0,0,1,1.631-2.26c1.751-1.515,3.292-.465,4.591.754,5,4.689,10.175,9.222,14.84,14.231,6.2,6.654,12.013,13.677,17.925,20.6a26.214,26.214,0,0,1,2.268,3.762q-.347.453-.69.906" transform="translate(-158.435 -140.409)" fill="#fff"/>
    <path id="Tracciato_39" data-name="Tracciato 39" d="M784.4,219.173a18.433,18.433,0,0,1-2.7-2.1c-8.687-9.721-16.5-20.086-22.2-31.857-1.279-2.639-1.539-5.771-1.609-8.947,10.91,13.029,22.091,25.745,27.236,42.25-.244.218-.488.433-.732.651" transform="translate(-283.088 -65.841)" fill="#fff"/>
    <path id="Tracciato_40" data-name="Tracciato 40" d="M960.716,124.061a20.692,20.692,0,0,1-2.549-1.967,136.008,136.008,0,0,1-23.782-34.083c-1.029-2.1-1.084-3.62,1.812-4.825,9.679,12.58,20.219,24.711,25.664,40.069-.381.27-.764.538-1.145.806" transform="translate(-348.77 -31.072)" fill="#fff"/>
    <path id="Tracciato_41" data-name="Tracciato 41" d="M855.746,103.246C843.959,92.27,835.635,78.676,827.3,65.094c.247-.357.494-.711.74-1.066,1.562.622,3.507.851,4.625,1.932A105.059,105.059,0,0,1,855.8,98.127a27.579,27.579,0,0,1,1.2,4.447c-.417.223-.838.447-1.255.672" transform="translate(-309.01 -23.916)" fill="#fff"/>
    <path id="Tracciato_42" data-name="Tracciato 42" d="M786.292,175.856c-10.934-13.58-22.041-26.969-27.556-43.754l.606-.6a24.717,24.717,0,0,1,3.053,2.488,146.108,146.108,0,0,1,20.941,29.827c1.858,3.557,2.018,8,2.956,12.037" transform="translate(-283.401 -49.119)" fill="#fff"/>
    <path id="Tracciato_43" data-name="Tracciato 43" d="M270.755,134.256a20.485,20.485,0,0,1,3.045,2.812q10.718,14.747,21.288,29.607a7.892,7.892,0,0,1,1.021,2.52c1.2,4.471,2.362,8.954,3.436,13.047-11.381-14.41-22.561-29.6-29.531-47.4l.741-.583" transform="translate(-100.855 -50.147)" fill="#fff"/>
    <path id="Tracciato_44" data-name="Tracciato 44" d="M691.513,211.36a34.084,34.084,0,0,1-4.25-3.108,116.325,116.325,0,0,1-21.156-29.941c-.924-1.835-.764-4.213-1.177-6.775,7.317,3.513,27.3,33.418,26.583,39.824" transform="translate(-248.363 -64.072)" fill="#fff"/>
    <path id="Tracciato_45" data-name="Tracciato 45" d="M935.953,182.957a128.253,128.253,0,0,1,27,38.289c-.342.388-.686.777-1.027,1.165-1.378-.885-3.1-1.491-4.071-2.7-5.49-6.854-10.963-13.733-16.091-20.854-2.366-3.287-4.014-7.106-5.815-10.769a24.145,24.145,0,0,1-1.247-4.473l1.255-.657" transform="translate(-349.126 -68.338)" fill="#fff"/>
    <path id="Tracciato_46" data-name="Tracciato 46" d="M666.64,75.135c9.461,8.526,23.918,32,23.178,38.012a20.832,20.832,0,0,1-3.287-2.231c-9.072-9.2-15.913-19.98-22.03-31.274-1.391-2.567,1.131-2.993,2.139-4.508" transform="translate(-248.05 -28.064)" fill="#fff"/>
    <path id="Tracciato_47" data-name="Tracciato 47" d="M179.295,150.017c10.323,13.638,21.9,26.509,26.486,43.66-12.583-12.255-22.818-25.944-26.486-43.66" transform="translate(-66.97 -56.034)" fill="#fff"/>
    <path id="Tracciato_48" data-name="Tracciato 48" d="M472.869,224.339c-7.08-1.612-27.1-30.518-25.8-37.249,6.634,2.021,26.667,30.943,25.8,37.249" transform="translate(-166.966 -69.881)" fill="#fff"/>
    <path id="Tracciato_49" data-name="Tracciato 49" d="M52.072,73.868C63,85.225,72.38,97.681,79.306,111.884c-9.957-3.279-27.536-27.7-27.234-38.016" transform="translate(-19.448 -27.591)" fill="#fff"/>
    <path id="Tracciato_50" data-name="Tracciato 50" d="M688.608,159.732c-12.8-10.947-20.429-25.189-26.467-41,6.864,2.8,27.8,34.842,26.467,41" transform="translate(-247.322 -44.349)" fill="#fff"/>
    <path id="Tracciato_51" data-name="Tracciato 51" d="M405.664,398.661c-1.5-1.3-3.124-2.491-4.5-3.919q-12.888-13.408-25.674-26.919c-1-1.053-2.408-2.035-1.1-3.9a3.086,3.086,0,0,1,4.568-.966,28.741,28.741,0,0,1,5.91,5.615c2.258,2.893,3.906,6.266,6.188,9.138,1.1,1.378,3.095,2.016,4.588,3.116a12.885,12.885,0,0,1,3.542,3.137c1.565,2.557,2.715,5.368,4.043,8.073q1.512,3.083,3.038,6.164c-.2.155-.4.307-.6.462" transform="translate(-139.644 -135.334)" fill="#fff"/>
    <path id="Tracciato_52" data-name="Tracciato 52" d="M543.8,420.665a48.455,48.455,0,0,1-5.5-4.161q-10.214-10.427-20.222-21.059c-2.223-2.349-.368-4.011,1.347-5.985a48.881,48.881,0,0,1,5.66,4.324c5.657,5.778,11.094,11.773,16.743,17.56,2.439,2.5,2.694,5.308,1.969,9.322" transform="translate(-193.13 -145.47)" fill="#fff"/>
    <path id="Tracciato_53" data-name="Tracciato 53" d="M439.992,372.908c2.223.767,4.741,1.1,6.616,2.373,8.471,5.767,15.286,13.31,21.516,21.343,1.171,1.512,1.168,3.93,1.707,5.928-1.782-.661-3.885-.93-5.295-2.055-9.564-7.642-17.177-17.151-25.186-26.27.216-.439.428-.877.643-1.318" transform="translate(-164.105 -139.288)" fill="#fff"/>
    <path id="Tracciato_54" data-name="Tracciato 54" d="M593.555,72.115a22.166,22.166,0,0,1,2.481,1.967A110.565,110.565,0,0,1,615.2,101.357a11.376,11.376,0,0,1,.777,9.425c-9.236-12.065-19.243-23.157-23.213-37.937.263-.244.528-.486.793-.73" transform="translate(-221.407 -26.936)" fill="#fff"/>
    <path id="Tracciato_55" data-name="Tracciato 55" d="M313.57,392.543c7.647,8.414,15.047,16.565,22.459,24.708A7.452,7.452,0,0,1,338.077,424c-.034.179-.207.331-.575.888a18.617,18.617,0,0,1-3.255-1.757A95.807,95.807,0,0,1,313.5,399.9c-1.252-2-2.45-4.108.071-7.361" transform="translate(-116.571 -146.622)" fill="#fff"/>
    <path id="Tracciato_56" data-name="Tracciato 56" d="M611.263,217c-1.549,1.442-2.735,2.544-4.3,4-7.453-10.579-16.507-20-19.729-32.87l.819-.74a16.57,16.57,0,0,1,3.092,2.024c7.975,8.214,14.058,17.8,20.119,27.583" transform="translate(-219.342 -69.993)" fill="#fff"/>
    <path id="Tracciato_57" data-name="Tracciato 57" d="M297.008,153.688c-1.153-.9-2.567-1.6-3.416-2.733-6.495-8.65-12.926-17.35-19.216-26.152-.544-.761.091-2.362.176-3.573,1.1.168,2.541-.047,3.231.575a39.458,39.458,0,0,1,6.778,7.051c4.287,6.44,8.225,13.115,12.144,19.792.751,1.278.764,2.99,1.116,4.5l-.814.538" transform="translate(-102.403 -45.282)" fill="#fff"/>
    <path id="Tracciato_58" data-name="Tracciato 58" d="M681.51,423.566c-1.735-1.166-3.736-2.074-5.153-3.547-4.888-5.077-9.6-10.33-14.3-15.576a7.623,7.623,0,0,1-1.378-2.683c-1.066-3.208-2.035-6.387-6.552-5.757-.415.058-1-1.129-1.512-1.735,1.205-.746,2.342-1.871,3.639-2.1.825-.144,1.958.956,2.822,1.656a99.118,99.118,0,0,1,21.093,22.994,41.184,41.184,0,0,1,2.628,5.818c-.428.309-.853.62-1.281.927" transform="translate(-243.761 -146.478)" fill="#fff"/>
    <path id="Tracciato_59" data-name="Tracciato 59" d="M475.264,108.459a23.177,23.177,0,0,1-3.292-2.46,116.909,116.909,0,0,1-18.334-25.961c-.189-.36-.509-.792-.436-1.118.223-.985.365-2.2,1.019-2.8a2.67,2.67,0,0,1,2.515.483,101.828,101.828,0,0,1,9.018,10.811c3.392,5.071,6.259,10.5,9.189,15.866.735,1.347.845,3.035,1.242,4.565l-.919.615" transform="translate(-169.275 -28.374)" fill="#fff"/>
    <path id="Tracciato_60" data-name="Tracciato 60" d="M963.9,106.51a15.146,15.146,0,0,1-3.011-2.463q-9.1-12.538-18.011-25.21a3,3,0,0,1-.661-2.218c.6-1.567,1.787-2.814,3.452-1.2a80.288,80.288,0,0,1,7.576,8.012,148.927,148.927,0,0,1,10.672,15.014c1.218,2.037.74,5.085,1.037,7.673l-1.052.394" transform="translate(-351.913 -27.888)" fill="#fff"/>
    <path id="Tracciato_61" data-name="Tracciato 61" d="M596.405,396.915c1.087-3.72,2.1-4.29,4.872-2.32a79.4,79.4,0,0,1,22.577,24.747c.876,1.488.777,3.552,1.131,5.35l-.853.457a26.424,26.424,0,0,1-3.253-2.473c-5.269-5.437-10.527-10.884-15.633-16.468-.95-1.037-1.284-2.688-1.753-4.106-1.389-4.174-2.938-5.395-7.088-5.187" transform="translate(-222.768 -146.973)" fill="#fff"/>
    <path id="Tracciato_62" data-name="Tracciato 62" d="M683.365,228.576c-7.13-8.314-13.483-16.538-18.216-25.874-.8-1.57-.543-3.673-.89-6.448a36.728,36.728,0,0,1,3.644,2.536c7.565,7.035,12.926,15.757,18.35,24.4,1.759,2.8-1.478,3.407-2.887,5.39" transform="translate(-248.113 -73.305)" fill="#fff"/>
    <path id="Tracciato_63" data-name="Tracciato 63" d="M785.478,151.027c-1.244-.945-2.772-1.672-3.688-2.869q-9.5-12.424-18.734-25.055a2.752,2.752,0,0,1,.136-2.636,2.85,2.85,0,0,1,2.615-.615,14.169,14.169,0,0,1,3.972,2.815A74,74,0,0,1,785.522,146.6a19.491,19.491,0,0,1,.785,3.917c-.276.168-.554.336-.829.507" transform="translate(-284.913 -44.724)" fill="#fff"/>
    <path id="Tracciato_64" data-name="Tracciato 64" d="M834.36,188.327c10.333,8.831,17.718,19.594,21.463,32.736-.259.239-.517.481-.777.719a13.338,13.338,0,0,1-2.919-2.226c-6.037-8.1-12.117-16.176-17.838-24.5-1.089-1.586-.656-4.213-.927-6.361.333-.123.664-.247,1-.373" transform="translate(-311.276 -70.344)" fill="#fff"/>
    <path id="Tracciato_65" data-name="Tracciato 65" d="M692.386,97.791c-6.76-9.6-13.523-19.2-20.358-28.908,1.809-1.644,3.077-2.793,4.691-4.258,7.513,10.07,16.25,19.216,16.62,32.589q-.476.291-.953.578" transform="translate(-251.015 -24.138)" fill="#fff"/>
    <path id="Tracciato_66" data-name="Tracciato 66" d="M345.431,189.936c6.815,3.938,22.338,26.575,20.384,33.8-7.411-6.639-12.847-14.423-17.607-22.721-3.457-6.022-3.468-6.393-2.777-11.081" transform="translate(-128.891 -70.944)" fill="#fff"/>
    <path id="Tracciato_67" data-name="Tracciato 67" d="M471.451,441.523c-2.042-.979-4.523-1.515-6.049-3.019-5.94-5.865-11.834-11.824-17.163-18.234-1.447-1.74-.843-5.182-.738-8.031,8.989,8.894,18.5,17.137,24.889,28.071-.312.4-.627.809-.94,1.213" transform="translate(-167.07 -153.979)" fill="#fff"/>
    <path id="Tracciato_68" data-name="Tracciato 68" d="M934.67,200.965c7.589,10.658,15.019,21.094,22.451,31.528-.241.376-.483.749-.724,1.124-1.171-.344-2.617-.362-3.468-1.082-5.539-4.691-10.866-9.571-14.6-15.969-1.325-2.268-3.61-3.961-5.1-6.156a5.977,5.977,0,0,1-.753-4c.273-1.633,1.229-3.152,2.195-5.45" transform="translate(-348.269 -75.064)" fill="#fff"/>
    <path id="Tracciato_69" data-name="Tracciato 69" d="M44.31,186.131c9.826,10.509,18.452,21.4,24.919,33.886-.239.231-.475.462-.712.69a5,5,0,0,1-1.531-.546,19.049,19.049,0,0,1-2.2-2.132c-6.445-7.1-12.994-14.113-19.253-21.374-3.2-3.709-3.4-6.555-1.224-10.524" transform="translate(-16.013 -69.523)" fill="#fff"/>
    <path id="Tracciato_70" data-name="Tracciato 70" d="M200.554,116.628c8.831,2.362,22.761,21.109,22.033,29.925a15.071,15.071,0,0,1-3.369-1.84,90.215,90.215,0,0,1-18.058-25.4,12.832,12.832,0,0,1-.606-2.68" transform="translate(-74.911 -43.563)" fill="#fff"/>
    <path id="Tracciato_71" data-name="Tracciato 71" d="M528.983,462.094c1.869,1.124,4.082,1.914,5.549,3.426,5.818,6,11.475,12.158,17.043,18.387,2.6,2.916-1.126,3.5-2,5.586-7.671-7.2-14.9-14.113-20.6-22.4-.782-1.136-.609-2.927-.876-4.415l.885-.583" transform="translate(-197.254 -172.6)" fill="#fff"/>
    <path id="Tracciato_72" data-name="Tracciato 72" d="M671.385,448.539c1.683.987,3.628,1.672,4.948,2.988,3.985,3.959,7.763,8.132,11.53,12.307.541.6.527,1.683.838,2.518a36.686,36.686,0,0,0,2.5,6.166c.439.73,2.095.835,3.232,1a15.054,15.054,0,0,0,2.866-.1c-.039.63.155,1.6-.165,1.828a15.873,15.873,0,0,1-3.431,1.651c-.244.092-.722-.318-1.047-.559A97.083,97.083,0,0,1,669.723,451.8a3.556,3.556,0,0,1-.378-2.483c.073-.347,1.189-.478,2.04-.78" transform="translate(-249.985 -167.537)" fill="#fff"/>
    <path id="Tracciato_73" data-name="Tracciato 73" d="M633.515,474.638c-9.34-6.133-25.023-25.921-24.078-31.363,1.531.843,3.15,1.328,4.2,2.378,5.2,5.216,10.259,10.579,15.363,15.9a1.426,1.426,0,0,1,.349.5c1.41,4.24,2.809,8.483,4.163,12.585" transform="translate(-227.62 -165.571)" fill="#fff"/>
    <path id="Tracciato_74" data-name="Tracciato 74" d="M586.314,206.419c2.622,3.25,5.253,6.243,7.571,9.456,2.993,4.15,5.676,8.521,8.616,12.711,1.575,2.245,1.1,4.1-.845,5.576-2.208,1.667-3.124-.6-4.043-1.837-4.09-5.511-7.92-11.215-12.094-16.66-2.431-3.171-2.641-5.917.8-9.246" transform="translate(-218.026 -77.101)" fill="#fff"/>
    <path id="Tracciato_75" data-name="Tracciato 75" d="M627.582,409.7c-7-7.671-14.035-15.321-20.957-23.065a2.623,2.623,0,0,1,.053-2.559,2.8,2.8,0,0,1,2.573-.657,20.068,20.068,0,0,1,5.4,3.4c4.62,4.468,9.057,9.13,13.483,13.793a3.757,3.757,0,0,1,.875,2.455c-.042,2.006-.352,4-.555,6.007l-.874.625" transform="translate(-226.47 -143.172)" fill="#fff"/>
    <path id="Tracciato_76" data-name="Tracciato 76" d="M622.272,94.968c-7.211-8.96-14.833-17.132-17.793-28.279-.2-.751.349-1.7.548-2.559,1,.244,2.46.15,2.932.785,2.914,3.93,5.731,7.944,8.325,12.092,1.615,2.585,2.772,5.455,4.145,8.193.667,1.328,1.1,2.872,3.242,2.481a3.8,3.8,0,0,1,1.155,2.651c-.422,1.494-1.494,2.806-2.554,4.636" transform="translate(-225.767 -23.954)" fill="#fff"/>
    <path id="Tracciato_77" data-name="Tracciato 77" d="M685.674,407.213c-9.679-5.692-15.678-14.46-23.3-21.831,1.5-1.142,2.78-2.113,4.445-3.376,2.874,2.423,5.867,4.7,8.563,7.29,2.872,2.751,5.3,5.964,8.222,8.658,2.628,2.42,2.88,5.161,2.069,9.259" transform="translate(-247.409 -142.686)" fill="#fff"/>
    <path id="Tracciato_78" data-name="Tracciato 78" d="M376.517,421.509a21.959,21.959,0,0,1,3.862,2.628c7.143,7.463,14.187,15.024,21.28,22.535,1.089,1.152,1.42,2.428.09,3.389-.919.664-2.555,1.375-3.332.987a13.518,13.518,0,0,1-4.41-3.644c-5.247-6.653-10.364-13.4-15.46-20.172a56.583,56.583,0,0,1-2.956-4.825q.461-.449.927-.9" transform="translate(-140.29 -157.441)" fill="#fff"/>
    <path id="Tracciato_79" data-name="Tracciato 79" d="M609.3,423.217c3.68.653,6.064,3.31,8.443,5.712,3.447,3.481,6.482,7.366,9.826,10.958,2.394,2.57,2.19,5.513,1.843,8.605-6.5-1.528-21.233-19.949-20.112-25.275" transform="translate(-227.561 -158.079)" fill="#fff"/>
    <path id="Tracciato_80" data-name="Tracciato 80" d="M201.109,213.36c-7.282-3.3-18.534-21.451-17.709-28.281,6.156,1.118,18.862,21.2,17.709,28.281" transform="translate(-68.487 -69.13)" fill="#fff"/>
    <path id="Tracciato_81" data-name="Tracciato 81" d="M179.613,33.438c-8.043-1.11-20.653-18.521-19.844-27.4,4.909,1.326,19.865,21.978,19.844,27.4" transform="translate(-59.663 -2.255)" fill="#fff"/>
    <path id="Tracciato_82" data-name="Tracciato 82" d="M462.594,68.8c1.552.874,3.591,1.383,4.568,2.691,2.988,4,5.594,8.28,8.288,12.491,1.063,1.667,1.956,3.357,4.408,3.127a2.592,2.592,0,0,1,1.851.927c2.9,3.463,5.729,6.993,9,11.025-4.534.725-7.416.048-9.792-2.751a166.657,166.657,0,0,1-18.909-26.654c.2-.283.391-.569.585-.856" transform="translate(-172.569 -25.698)" fill="#fff"/>
    <path id="Tracciato_83" data-name="Tracciato 83" d="M609.278,464.1c1.3.725,2.864,1.189,3.846,2.213q8.367,8.746,16.452,17.76c.554.617.344,1.916.488,2.9-1.183.152-2.748.874-3.5.373a48.58,48.58,0,0,1-17.6-20.039,9.7,9.7,0,0,1-.412-2.6l.725-.606" transform="translate(-227.305 -173.351)" fill="#fff"/>
    <path id="Tracciato_84" data-name="Tracciato 84" d="M548.773,468.868c-7.427-7.209-14.88-13.9-20.012-22.661a6.852,6.852,0,0,1-.4-2.282c.851-.12,1.888-.611,2.52-.3a24.786,24.786,0,0,1,5.941,3.635,95.488,95.488,0,0,1,7.695,8.353c4.127,4.87,4.331,5.683,4.261,13.25" transform="translate(-197.351 -165.665)" fill="#fff"/>
    <path id="Tracciato_85" data-name="Tracciato 85" d="M318.535,381.461c6.658,1.166,22.377,20.054,21,25.233-7.293-1.552-20.957-17.969-21-25.233" transform="translate(-118.979 -142.482)" fill="#fff"/>
    <path id="Tracciato_86" data-name="Tracciato 86" d="M527.895,416.051c7.458,6.655,14.767,13.449,19.2,22.708.362.759.039,1.842.034,2.777-.945-.2-2.111-.118-2.788-.653a49.63,49.63,0,0,1-7.114-6.267,105.591,105.591,0,0,1-8.61-11.537c-1.173-1.822-1.384-4.258-2.03-6.416.433-.2.87-.407,1.3-.611" transform="translate(-196.691 -155.402)" fill="#fff"/>
    <path id="Tracciato_87" data-name="Tracciato 87" d="M150.552,14.114c6.406,7.981,12.8,15.851,17.253,26.191a17.343,17.343,0,0,1-3.216-1.006,37.689,37.689,0,0,1-16.213-20.056c-.761-2.148-.349-3.78,2.176-5.13" transform="translate(-55.293 -5.272)" fill="#fff"/>
    <path id="Tracciato_88" data-name="Tracciato 88" d="M300.739,133.091a11.8,11.8,0,0,1-2.5-1.436,58.017,58.017,0,0,1-13.83-20.421c-.777-1.932-.554-3.63,2.185-4.563,6.6,7.616,13.32,15.237,15.019,25.706-.291.239-.58.475-.869.714" transform="translate(-106.085 -39.844)" fill="#fff"/>
    <path id="Tracciato_89" data-name="Tracciato 89" d="M780.635,233.279a32.074,32.074,0,0,1-4.6-3.3c-7.807-7.939-16.245-15.536-16.675-28.387a168.853,168.853,0,0,1,22.036,30.8c-.254.294-.507.591-.759.885" transform="translate(-283.634 -75.299)" fill="#fff"/>
    <path id="Tracciato_90" data-name="Tracciato 90" d="M687.607,448.557c-1.691-.961-3.5-1.539-4.673-2.738-4.689-4.817-9.348-9.684-13.627-14.858-1.158-1.4-.935-3.943-1.376-6.1,6.581.556,20.755,17.536,19.676,23.695" transform="translate(-249.484 -158.694)" fill="#fff"/>
    <path id="Tracciato_91" data-name="Tracciato 91" d="M468.567,460.4c-2.391-1.15-5-1.99-7.13-3.51a41.577,41.577,0,0,1-12.992-16c-.425-.871-.2-2.06-.271-3.105,1.019.258,2.245.234,3.019.811a70.9,70.9,0,0,1,17.586,19.4,6.043,6.043,0,0,1,.457,1.384q-.335.511-.67,1.024" transform="translate(-167.401 -163.52)" fill="#fff"/>
    <path id="Tracciato_92" data-name="Tracciato 92" d="M979.509,99.009c-4.208.877-6.97-.089-9.185-3.129-6.445-8.839-13.034-17.57-19.563-26.344.244-.308.491-.617.738-.924,1.5.95,3.441,1.58,4.416,2.914,2.953,4.038,5.553,8.335,8.243,12.562,1.084,1.709,2.089,3.328,4.586,2.478a2.347,2.347,0,0,1,1.715.459c4.321,2.891,6.833,7.1,9.051,11.984" transform="translate(-355.126 -25.628)" fill="#fff"/>
    <path id="Tracciato_93" data-name="Tracciato 93" d="M789.593,131.123c-1.234-.788-2.583-1.224-3.253-2.148q-6.43-8.9-12.575-18c-1.244-1.837-1.173-3.7,1.31-4.728,6.424,2.954,15.67,18.246,14.518,24.871" transform="translate(-288.719 -39.687)" fill="#fff"/>
    <path id="Tracciato_94" data-name="Tracciato 94" d="M319,462.758c10.729,8.052,18.93,18.681,28.234,28.187-.152.216-.307.43-.459.646-1.74-.961-3.489-1.9-5.219-2.885-3.623-2.05-7.264-4.072-10.829-6.219-.927-.557-2.244-1.5-2.286-2.315-.207-4.2-3.607-6.225-5.729-9.123-1.714-2.347-3.3-4.791-4.943-7.19.409-.368.821-.732,1.231-1.1" transform="translate(-118.692 -172.848)" fill="#fff"/>
    <path id="Tracciato_95" data-name="Tracciato 95" d="M445.289,206.6c9.165,8.524,15.147,18.957,22.2,28.559-.155.255-.307.512-.462.767a12.6,12.6,0,0,1-3.151-1.523c-5.492-4.917-11.01-9.794-14.6-16.452-1.124-2.084-1.856-5.066-5.418-4.786-.249.018-1.058-2.376-.917-3.565.11-.927,1.292-1.728,2.342-3" transform="translate(-165.442 -77.171)" fill="#fff"/>
    <path id="Tracciato_96" data-name="Tracciato 96" d="M548.578,405.836c-7.894-7.876-16.489-14.289-19.1-25.659,8.211,1.867,19.878,17.3,19.1,25.659" transform="translate(-197.769 -142.003)" fill="#fff"/>
    <path id="Tracciato_97" data-name="Tracciato 97" d="M689.423,490.891c-5.56.013-19.366-13.625-20.918-20.852,1.5.234,2.948.126,4.056.69,7.794,3.972,12.738,10.639,16.718,18.148a5.828,5.828,0,0,1,.144,2.013" transform="translate(-249.699 -175.568)" fill="#fff"/>
    <path id="Tracciato_98" data-name="Tracciato 98" d="M150.05,45.82c-1.512-.667-3.549-.922-4.45-2.069-4.092-5.214-7.912-10.645-11.693-16.095-.5-.719-.551-2.686-.2-2.867.953-.486,2.649-.848,3.334-.323,6.815,5.208,11.879,11.661,13.843,20.135-.278.407-.559.811-.838,1.218" transform="translate(-49.858 -9.043)" fill="#fff"/>
    <path id="Tracciato_99" data-name="Tracciato 99" d="M614.512,375.174c3.872-4.269,5.117-4.492,8.094-.73a135.635,135.635,0,0,1,7.534,11.4c.809,1.268,1.436,2.646,2.137,3.956.586-.126.864-.2,1.147-.247.977-.157,1.953-.3,2.928-.457a16.967,16.967,0,0,1-1.042,2.9,27.1,27.1,0,0,1-2.378,3.008q-9.305-10.026-18.419-19.839" transform="translate(-229.531 -138.869)" fill="#fff"/>
    <path id="Tracciato_100" data-name="Tracciato 100" d="M623.339,497.3l-3.56,5.148c-3.465-3.421-6.847-6.731-10.188-10.083a31.723,31.723,0,0,1-2.4-2.8c-3.528-4.474-3.1-2.993.029-8.225,6.388,4.282,11.044,10.178,16.116,15.964" transform="translate(-225.87 -179.787)" fill="#fff"/>
    <path id="Tracciato_101" data-name="Tracciato 101" d="M522.051,93.705c-1.344.543-2.622,1.57-3.591,1.334a7.753,7.753,0,0,1-4.1-2.515c-3.46-4.533-6.752-9.209-9.821-14.016-.483-.754.509-2.447.819-3.707,1.089.273,2.628.184,3.2.88,4.077,4.991,7.968,10.13,11.887,15.244a29.442,29.442,0,0,1,1.609,2.78" transform="translate(-188.405 -27.94)" fill="#fff"/>
    <path id="Tracciato_102" data-name="Tracciato 102" d="M436.418,342.244c-8.159.541-19.9-11.661-19.292-19.807,4.424.234,17.4,13.454,19.292,19.807" transform="translate(-155.795 -120.436)" fill="#fff"/>
    <path id="Tracciato_103" data-name="Tracciato 103" d="M91.863,68.414c-5.3-7.663-10.18-14.722-15.061-21.782.221-.449.439-.9.659-1.346,1.42-.081,3.105-.706,4.216-.163,7.172,3.526,12.063,14.244,10.186,23.291" transform="translate(-28.687 -16.772)" fill="#fff"/>
    <path id="Tracciato_104" data-name="Tracciato 104" d="M338.973,388.317c-1.074-.651-3.108-1.4-4.471-2.809-3.62-3.728-7.035-7.666-10.317-11.7a3.534,3.534,0,0,1,.058-3.3c.367-.562,2.287-.754,3.035-.31A39.489,39.489,0,0,1,341.7,385.71c1.074,1.971.234,2.964-2.728,2.607" transform="translate(-120.946 -138.184)" fill="#fff"/>
    <path id="Tracciato_105" data-name="Tracciato 105" d="M673.9,375.448c1.48-1.391,2.586-2.431,4-3.759,1.61,1.465,3.221,2.82,4.7,4.308,3.161,3.184,6.2,6.495,9.4,9.645,1.442,1.418,1.78,2.964.31,4.177a3.976,3.976,0,0,1-3.555.315c-6.4-3.263-10.165-9.209-14.853-14.685" transform="translate(-251.713 -138.832)" fill="#fff"/>
    <path id="Tracciato_106" data-name="Tracciato 106" d="M680.419,503.99c-3.523-3.964-7.582-7.794-10.65-12.3-1.549-2.273-1.31-5.767-1.88-8.707l1.809-1.328,16.694,16.98c-2.589,2.318-4.1,3.675-5.972,5.353" transform="translate(-249.468 -179.908)" fill="#fff"/>
    <path id="Tracciato_107" data-name="Tracciato 107" d="M529.2,482.455c1.247.512,2.845.7,3.681,1.591,4.061,4.374,7.939,8.921,11.821,13.454a2.758,2.758,0,0,1,.654,1.979,4.257,4.257,0,0,1-1.234,2.513,2.435,2.435,0,0,1-2.3-.407c-4.119-4.224-8.29-8.421-12.063-12.948-1.105-1.323-.982-3.67-1.423-5.549.289-.21.578-.423.866-.633" transform="translate(-197.343 -180.206)" fill="#fff"/>
    <path id="Tracciato_108" data-name="Tracciato 108" d="M846.7,235.456c-1.391-1.281-2.631-2.04-3.339-3.142-3.263-5.053-6.34-10.228-9.577-15.3a5.509,5.509,0,0,0-2.418-2.148c-3.169-1.21-3.557-2-1.916-4.964.339-.611.756-1.178,1.121-1.743,6.975,3.152,17.106,19.7,16.129,27.294" transform="translate(-309.459 -77.752)" fill="#fff"/>
    <path id="Tracciato_109" data-name="Tracciato 109" d="M1010.667,91.857c.07,2.25-2.145,3.694-3.736,2.381a46.947,46.947,0,0,1-6.885-6.9,93.076,93.076,0,0,1-6.484-9.66,2.721,2.721,0,0,1,.3-2.631,2.643,2.643,0,0,1,2.62.1c4.294,4.736,10.2,8.007,12.974,14.127.419.929.869,1.846,1.215,2.58" transform="translate(-371.034 -27.92)" fill="#fff"/>
    <path id="Tracciato_110" data-name="Tracciato 110" d="M134.622,54.416c-.764-1.93-2.148-3.854-2.166-5.791-.044-4.243-2.6-6.678-5.358-9.12-2.2-1.951-4.526-3.77-6.725-5.723-1.686-1.5-1.258-3.04.15-4.484,1.465-1.5,2.921-.908,3.937.385,4.08,5.193,8.043,10.475,12.023,15.744a2.067,2.067,0,0,1,.491,1.4c-.507,2.478-1.124,4.93-1.7,7.39-.218.068-.433.133-.651.2" transform="translate(-44.552 -10.612)" fill="#fff"/>
    <path id="Tracciato_111" data-name="Tracciato 111" d="M464.028,473.925c-7.311,1.619-17.523-9.884-16.156-18.2,4.479.964,15.817,13.738,16.156,18.2" transform="translate(-167.242 -170.222)" fill="#fff"/>
    <path id="Tracciato_112" data-name="Tracciato 112" d="M422.074,349.112a18.935,18.935,0,0,1-10.85-5.2,63.465,63.465,0,0,1-7.445-8.85,2.718,2.718,0,0,1,.042-2.651,3.342,3.342,0,0,1,2.864-.772c4.345,1.525,14.105,12.556,15.389,17.476" transform="translate(-150.698 -123.839)" fill="#fff"/>
    <path id="Tracciato_113" data-name="Tracciato 113" d="M1001.668,101.925c-1.809,2.176-3.5,2.05-5.316.683a28.486,28.486,0,0,1-9.926-13.719c-.47-1.368.349-3.177,1.189-4.962a52.7,52.7,0,0,1,14.053,18" transform="translate(-368.396 -31.348)" fill="#fff"/>
    <path id="Tracciato_114" data-name="Tracciato 114" d="M499.285,84.162q6.587,8.935,13.173,17.872c-.123.412-.249.824-.373,1.239-1.494.05-3.255.646-4.431.063-5.978-2.97-9.367-8.112-10.708-14.5-.278-1.334.8-2.951,1.26-4.439.36-.079.719-.155,1.079-.234" transform="translate(-185.601 -31.436)" fill="#fff"/>
    <path id="Tracciato_115" data-name="Tracciato 115" d="M183.426,204.515q6.824,9.289,13.617,18.534c-2.019,2.8-4.13,2.783-6.1,1.21-6.1-4.856-9.563-10.968-8.669-18.967.386-.259.769-.517,1.153-.777" transform="translate(-68.03 -76.39)" fill="#fff"/>
    <path id="Tracciato_116" data-name="Tracciato 116" d="M291.365,233.544c-9.249-8.553-19.2-16.617-20.695-31.395,7.54,10.572,14.678,20.576,21.815,30.581-.375.271-.748.543-1.121.814" transform="translate(-101.1 -75.506)" fill="#fff"/>
    <path id="Tracciato_117" data-name="Tracciato 117" d="M547.767,346.12c-4.8-4.778-9.529-9.49-14.249-14.192,3.5-3.625,4.46-3.793,7.715-1.489a21.662,21.662,0,0,1,8.122,9.713c.793,2.022,1.01,3.98-1.588,5.967" transform="translate(-199.279 -122.856)" fill="#fff"/>
    <path id="Tracciato_118" data-name="Tracciato 118" d="M63.806,113.2c-8.584-2.263-16.171-14.8-14.977-24.217,5.13,8.133,12.265,14.357,14.977,24.217" transform="translate(-18.192 -33.238)" fill="#fff"/>
    <path id="Tracciato_119" data-name="Tracciato 119" d="M325.584,507.5a13.4,13.4,0,0,1,1.032,3.2c.15,8.259,4.793,13.391,11.674,17.013,3.87,2.037,7.831,3.927,11.564,6.19,1.321.8,2.087,2.507,3.105,3.8q-.41.606-.819,1.207c-2.636-1.052-5.592-1.651-7.852-3.239a80.652,80.652,0,0,1-19.056-19.45c-2.116-2.964-2.076-5.516.352-8.716" transform="translate(-120.908 -189.559)" fill="#fff"/>
    <path id="Tracciato_120" data-name="Tracciato 120" d="M188.808,26.895C177.685,21.088,172.364,10.083,165.441.514c.208-.17.412-.341.62-.514.538.743,1.135,1.452,1.607,2.234a27.363,27.363,0,0,0,12.506,11.359,17.062,17.062,0,0,1,9.149,9.868,13.252,13.252,0,0,1,.42,2.99c-.31.147-.622.294-.935.444" transform="translate(-61.795)" fill="#fff"/>
    <path id="Tracciato_121" data-name="Tracciato 121" d="M555.624,385.035c-.3,4.586-2.2,5.809-5.125,3.234a166.2,166.2,0,0,1-11.643-12.005c-.538-.58-1-2.139-.719-2.394a4.129,4.129,0,0,1,2.9-1.189,6.477,6.477,0,0,1,3.67,1.786,48.45,48.45,0,0,1,5.232,7.124c1.3,2.163,2.344,4.311,5.681,3.444" transform="translate(-200.973 -139.195)" fill="#fff"/>
    <path id="Tracciato_122" data-name="Tracciato 122" d="M357.224,235.06a17.657,17.657,0,0,1-2.819-2.8c-3.08-4.812-6.009-9.721-9.021-14.575-1.089-1.756-2.1-3.41-4.822-2.68-1.488.4-2.229-.835-1.475-2.35.667-1.339,1.47-2.607,2.473-4.358,7.4,7.758,13.753,15.662,16.607,25.829-.312.31-.627.622-.942.932" transform="translate(-126.544 -77.803)" fill="#fff"/>
    <path id="Tracciato_123" data-name="Tracciato 123" d="M335.091,356.958c1.344.782,2.924,1.331,3.988,2.4,2.665,2.667,5.106,5.558,7.613,8.382.331.373.762.9.725,1.318-.13,1.457-.442,2.9-.686,4.342-1.115-.291-2.428-.3-3.313-.924-4.016-2.819-7.224-6.356-8.585-11.215a25.612,25.612,0,0,1-.488-3.738c.249-.187.5-.375.746-.562" transform="translate(-124.884 -133.33)" fill="#fff"/>
    <path id="Tracciato_124" data-name="Tracciato 124" d="M362.232,76.6c2.9,2.717,5.7,5.537,8.721,8.112a29.825,29.825,0,0,0,5.5,3.55,4.277,4.277,0,0,1,1.88,5.812,17.837,17.837,0,0,0-.906,2.245c-.239.669-.42,1.363-.911,2.985-5.335-7.644-10.319-14.79-15.3-21.933l1.021-.769" transform="translate(-134.919 -28.61)" fill="#fff"/>
    <path id="Tracciato_125" data-name="Tracciato 125" d="M423.087,316.215c.58.562,1.208,1.079,1.73,1.688a27.171,27.171,0,0,0,12.457,8.424c2.835.93,5.256,3.3,7.647,5.279.62.512.9,2.609.5,2.927a4.445,4.445,0,0,1-3.415.848,9.38,9.38,0,0,1-3.9-2.329c-5.4-5.187-10.69-10.487-16.022-15.749l1-1.089" transform="translate(-157.656 -118.112)" fill="#fff"/>
    <path id="Tracciato_126" data-name="Tracciato 126" d="M458.447,486.04c-1.788,2.651-3.471,2.838-5.566,2.095-4.415-1.57-6.864-5.035-8.566-9.033-.439-1.032.441-2.626.714-3.961,1.1.272,2.51.207,3.237.881,3.5,3.234,6.812,6.668,10.18,10.018" transform="translate(-165.915 -177.473)" fill="#fff"/>
    <path id="Tracciato_127" data-name="Tracciato 127" d="M10.24,271.138c3.956,5.818,9.243,9.928,15.431,13.176,2.287,1.2,3.927,3.8,5.573,5.982,1.373,1.819.242,3.114-1.683,2.875a7.532,7.532,0,0,1-4.484-2.084C19.7,284.844,14.564,278.4,9.342,272.02l.9-.882" transform="translate(-3.489 -101.275)" fill="#fff"/>
    <path id="Tracciato_128" data-name="Tracciato 128" d="M305.919,116.292c-5.965-1.888-11.115-12.344-8.563-16.953,5.66,1.467,9.256,8.484,8.563,16.953" transform="translate(-110.818 -37.105)" fill="#fff"/>
    <path id="Tracciato_129" data-name="Tracciato 129" d="M530.581,339.5c1.837.932,3.586,1.386,4.71,2.481a76.291,76.291,0,0,1,6.618,7.56,3.031,3.031,0,0,1,.449,2.746c-.42.578-1.835.712-2.764.6-5.405-.641-9.979-6.925-9.013-13.389" transform="translate(-198.133 -126.809)" fill="#fff"/>
    <path id="Tracciato_130" data-name="Tracciato 130" d="M794.861,115.363c-5.264-4.045-8.506-8.367-8.949-14.36a2.776,2.776,0,0,1,1.061-2.287,3.087,3.087,0,0,1,2.465.646c3.329,2.46,4.759,6.051,5.379,9.965a43.792,43.792,0,0,1,.044,6.036" transform="translate(-293.55 -36.84)" fill="#fff"/>
    <path id="Tracciato_131" data-name="Tracciato 131" d="M153.98,115.558c-4.03.546-7.673.4-10.131-3.6-2.691-4.379-4.187-8.892-2.951-13.916l1.25-.417a49.59,49.59,0,0,1,2.092,5.287,16.4,16.4,0,0,1,.386,4.266c.018,2.408.858,3.481,3.525,3.179,2.754-.313,4.993,1.879,5.828,5.2" transform="translate(-52.464 -36.464)" fill="#fff"/>
    <path id="Tracciato_132" data-name="Tracciato 132" d="M340.07,351.126c3.539-4.116,4.865-4.269,8.429-.609a21.254,21.254,0,0,1,3.615,5.2c.969,1.913.068,3.284-2.126,3.1a10.425,10.425,0,0,1-3.909-1.352,9.7,9.7,0,0,1-2.179-2.106c-1.3-1.4-2.567-2.83-3.83-4.226" transform="translate(-127.022 -129.946)" fill="#fff"/>
    <path id="Tracciato_133" data-name="Tracciato 133" d="M406.807,352c-4.429-2.187-8.883-4.324-13.276-6.581-1.93-.99-1.187-2.525-.467-3.938.764-1.5,1.772-2.139,3.426-1.118,4.505,2.78,7.787,6.708,10.873,10.834-.186.267-.373.536-.556.8" transform="translate(-146.532 -126.947)" fill="#fff"/>
    <path id="Tracciato_134" data-name="Tracciato 134" d="M100.078,50.873c-3.985-1.78-6.936-6.466-6.542-10.38.257-2.554,1.5-3.171,3.706-1.832,4.148,2.523,5.319,7.564,2.835,12.213" transform="translate(-34.924 -14.183)" fill="#fff"/>
    <path id="Tracciato_135" data-name="Tracciato 135" d="M854.652,80.413c2.441,2.318,4.754,4.8,7.377,6.889,1.391,1.113,3.363,1.472,4.988,2.334.974.517,2.554,1.4,2.512,2.019a9.6,9.6,0,0,1-1.712,4.276c-.155.239-2.211-.2-2.77-.858-3.883-4.531-7.6-9.2-11.372-13.83.326-.276.651-.554.977-.829" transform="translate(-318.863 -30.036)" fill="#fff"/>
    <path id="Tracciato_136" data-name="Tracciato 136" d="M666.592,218.763l14.945,19.812-.858.677c-5.39-6.338-13.919-10.162-15.562-19.5l1.475-.992" transform="translate(-248.433 -81.712)" fill="#fff"/>
    <path id="Tracciato_137" data-name="Tracciato 137" d="M140.29,134.674c-2.914-4.108-5.474-7.716-8.07-11.375l5.649-2.712c4.875,3.184,3.833,8.212,2.421,14.087" transform="translate(-49.387 -45.041)" fill="#fff"/>
    <path id="Tracciato_138" data-name="Tracciato 138" d="M686.893,64.49c2.956,4.253,6,8.453,8.834,12.782,1.47,2.245,2.837,3.578,5.7,2.005,1.753-.966,2.932.174,2.462,2-.491,1.911-1.557,3.675-2.735,6.316-5.5-7.857-10.53-15.046-15.559-22.233.432-.291.869-.58,1.3-.871" transform="translate(-256.081 -24.088)" fill="#fff"/>
    <path id="Tracciato_139" data-name="Tracciato 139" d="M435.938,493.225c2.294-3.877,4.353-4.253,7.474-1.313a15.335,15.335,0,0,1,2.806,3.562c.447.785.762,2.181.357,2.762-.425.606-1.8.824-2.725.762-3.715-.255-6.038-2.589-7.912-5.773" transform="translate(-162.831 -183.014)" fill="#fff"/>
    <path id="Tracciato_140" data-name="Tracciato 140" d="M179.336,224.616c3.273,2.933,6.309,5.673,5.948,10.323a3.364,3.364,0,0,1-1.252,2.5,3.51,3.51,0,0,1-2.754-.665c-3.72-2.572-4.461-6.838-1.943-12.154" transform="translate(-66.434 -83.898)" fill="#fff"/>
    <path id="Tracciato_141" data-name="Tracciato 141" d="M77.332,309.275c-3.841.047-9.013-4.142-9.6-7.87-.081-.517,1.071-1.8,1.383-1.722,4.13,1.089,7.844,2.88,9.8,7.015.814,1.717.467,2.79-1.586,2.578" transform="translate(-25.299 -111.935)" fill="#fff"/>
    <path id="Tracciato_142" data-name="Tracciato 142" d="M46.741,296.107a19.948,19.948,0,0,1,11.693,6.663,2.76,2.76,0,0,1-.139,2.712,3.378,3.378,0,0,1-2.935.832c-4.234-1.785-7.012-4.975-8.619-10.207" transform="translate(-17.459 -110.601)" fill="#fff"/>
    <path id="Tracciato_143" data-name="Tracciato 143" d="M89.3,299.578c1.762,1.313,3.877,2.515,5.421,4.226.615.68.439,2.922-.241,3.671a3.775,3.775,0,0,1-3.636.525,17.482,17.482,0,0,1-4.256-4.285,3.252,3.252,0,0,1-.559-2.78c.307-.63,1.672-.746,3.271-1.357" transform="translate(-32.084 -111.898)" fill="#fff"/>
    <path id="Tracciato_144" data-name="Tracciato 144" d="M379.61,474.823c3.83,1.528,7.679,3.017,11.47,4.636.488.207,1.105,1.4.95,1.609a12.832,12.832,0,0,1-3.093,3.234c-.488.315-1.94-.231-2.53-.814-2.617-2.583-5.083-5.321-7.6-8l.806-.662" transform="translate(-141.49 -177.355)" fill="#fff"/>
    <path id="Tracciato_145" data-name="Tracciato 145" d="M530.984,80.183c1.056,1.646,2.492,3.006,2.77,4.571.27,1.541-.635,3.287-1.024,4.943-1.42-.47-3.2-.554-4.193-1.48-2.909-2.725-2.237-4.841,2.446-8.033" transform="translate(-196.767 -29.95)" fill="#fff"/>
    <path id="Tracciato_146" data-name="Tracciato 146" d="M34.6,201.946c-1.619-.927-3.7-1.633-4.991-3.058-.622-.688.194-2.74.5-4.148.09-.417.785-1.108.972-1.039,1.349.491,3,.829,3.862,1.819,1.265,1.442,1.958,3.386,2.893,5.117-.875.355-1.746.706-3.235,1.31" transform="translate(-10.973 -72.349)" fill="#fff"/>
    <path id="Tracciato_147" data-name="Tracciato 147" d="M807.245,98.729c-3.026-.179-5.489-3.043-7.6.283-3.061-2.045-3.8-4.016-2.66-6.576.866-1.945,2.25-2.507,3.767-1.011,2.2,2.171,4.129,4.613,6.495,7.3" transform="translate(-297.497 -33.831)" fill="#fff"/>
    <path id="Tracciato_148" data-name="Tracciato 148" d="M199.328,23.186c1.861-.226,3.279-.383,4.689-.567a4.571,4.571,0,0,1,5.258,3.807c.392,2.171-1.176,3.544-3.638,3.119-3.416-.588-4.518-3.476-6.309-6.358" transform="translate(-74.453 -8.432)" fill="#fff"/>
    <path id="Tracciato_149" data-name="Tracciato 149" d="M360.449,347.733c-3.691-.011-5.631-1.853-5.311-4.494a4.537,4.537,0,0,1,2.166-3.271c1.656-.6,6.366,3.591,5.754,4.933a10.165,10.165,0,0,1-2.609,2.832" transform="translate(-132.638 -126.962)" fill="#fff"/>
    <path id="Tracciato_150" data-name="Tracciato 150" d="M1020.271,79.244c3.245,2.51,4.14,5.4,2.586,8.306a3.384,3.384,0,0,1-1.667,1.287c-1.479-1.268-3.2-2.494-4.059-4.145-.438-.84.6-2.575,1.21-3.783.333-.654,1.182-1.045,1.93-1.665" transform="translate(-379.877 -29.599)" fill="#fff"/>
    <path id="Tracciato_151" data-name="Tracciato 151" d="M303.643,94.8c5.03-3.292,8.39-1.861,9.411,3-1.391.908-2.7,1.767-4.694,3.069-1.315-1.693-2.953-3.8-4.717-6.069" transform="translate(-113.416 -34.744)" fill="#fff"/>
    <path id="Tracciato_152" data-name="Tracciato 152" d="M111.2,303.322c-.142,2.838-2.748,4.415-4.749,2.822-1.631-1.3-2.659-3.376-3.835-5.185-.081-.126.979-1.376,1.262-1.289,2.368.719,4.694,1.591,6.986,2.533.281.115.281.913.336,1.118" transform="translate(-38.327 -111.931)" fill="#fff"/>
    <path id="Tracciato_153" data-name="Tracciato 153" d="M398.172,553.776c-2.184-1.234-4.466-2.436-6.629-3.825-.409-.263-.556-1.313-.417-1.9.079-.347,1.037-.8,1.48-.693a40.3,40.3,0,0,1,7,2.037c.827.362,1.134,1.916,1.677,2.927l-3.108,1.457" transform="translate(-146.073 -204.441)" fill="#fff"/>
    <path id="Tracciato_154" data-name="Tracciato 154" d="M429.857,501.662c3.6.113,6.642,2.528,5.9,4.145-.48,1.044-2.481,1.774-3.875,1.926-2.428.262-5.172-2.063-4.56-3.811.407-1.166,2.087-1.888,2.536-2.26" transform="translate(-159.58 -187.38)" fill="#fff"/>
    <path id="Tracciato_155" data-name="Tracciato 155" d="M121.668,208.485q-6.053-8.451-12.1-16.9c8.052,2.79,8.955,10.705,12.8,16.512l-.7.386" transform="translate(-40.924 -71.561)" fill="#fff"/>
    <path id="Tracciato_156" data-name="Tracciato 156" d="M1.977,243.285q1.8,7.36,3.591,14.717c-4.694-4.019-6.9-10.149-4.731-14.533.381-.06.759-.123,1.14-.184" transform="translate(0 -90.871)" fill="#fff"/>
    <path id="Tracciato_157" data-name="Tracciato 157" d="M142.927,86.178c-2.712-4.255-2.911-8.364-2.045-12.887,3.578,1.982,4.665,8.671,2.045,12.887" transform="translate(-52.451 -27.375)" fill="#fff"/>
    <path id="Tracciato_158" data-name="Tracciato 158" d="M417.251,547.77c-3.313,2.292-6.211,2.315-8.1.071-1.182-1.41-1.588-2.6.876-3.273,3.817-1.045,5.568-.415,7.22,3.2" transform="translate(-152.477 -203.236)" fill="#fff"/>
    <path id="Tracciato_159" data-name="Tracciato 159" d="M121.054,295.492c2.234.882,4.762.459,4.442,3.114-.152,1.284-1.935,2.373-2.98,3.552l-4.3-4.158q1.418-1.256,2.838-2.507" transform="translate(-44.156 -110.372)" fill="#fff"/>
    <path id="Tracciato_160" data-name="Tracciato 160" d="M462.59,337.014l-4.329-4.828c1.48-.958,2.864-2.282,4.484-2.706.69-.184,2.772,1.659,2.657,2.3-.276,1.541-1.481,2.916-2.812,5.232" transform="translate(-171.169 -123.062)" fill="#fff"/>
    <path id="Tracciato_161" data-name="Tracciato 161" d="M107.911,40.49a9.933,9.933,0,0,1-1.919-2.137c-.541-1.2-1.438-3.248-.979-3.694a6.347,6.347,0,0,1,4.085-1.3,3.447,3.447,0,0,1,2.549,1.654c.276.53-.5,1.762-1.034,2.52a32.378,32.378,0,0,1-2.7,2.956" transform="translate(-39.177 -12.46)" fill="#fff"/>
    <path id="Tracciato_162" data-name="Tracciato 162" d="M373.594,336.516c-1.363,1.034-2.693,2.809-4.1,2.869-1.168.05-3.1-1.72-3.484-3.032-.64-2.218,1.609-3.074,3.266-3,1.447.063,2.846,1.218,4.266,1.89.016.425.032.848.05,1.273" transform="translate(-136.67 -124.511)" fill="#fff"/>
    <path id="Tracciato_163" data-name="Tracciato 163" d="M171.012,248.52c-1.268-1.848-2.8-3.287-2.533-3.843.759-1.551,2.268-2.738,3.481-4.069,1.029,1.237,2.956,2.555,2.854,3.686-.121,1.286-2.053,2.4-3.8,4.226" transform="translate(-62.918 -89.871)" fill="#fff"/>
    <path id="Tracciato_164" data-name="Tracciato 164" d="M219.5,12.8c.462,1.557,1.51,3.24,1.21,4.628a5,5,0,0,1-3.219,2.932c-.669.187-2.9-2.071-2.711-2.512a29.242,29.242,0,0,1,3.389-5.156c.444.037.887.071,1.331.108" transform="translate(-80.221 -4.74)" fill="#fff"/>
    <path id="Tracciato_165" data-name="Tracciato 165" d="M320.314,215.047c2.444.735,5.221,1.536,7.973,2.423a5.088,5.088,0,0,1,1.859,1.068,11.892,11.892,0,0,1-1.72,3.374c-.236.3-1.609.192-1.987-.194-2.263-2.3-4.384-4.749-6.125-6.671" transform="translate(-119.643 -80.324)" fill="#fff"/>
    <path id="Tracciato_166" data-name="Tracciato 166" d="M142.992,158.58c-2.362-2.106-3.166-8.442-1.517-11.981,2.557,2.541,3.295,8.359,1.517,11.981" transform="translate(-52.519 -54.757)" fill="#fff"/>
    <path id="Tracciato_167" data-name="Tracciato 167" d="M811.43,217.5c3,.313,6,.622,10.047,1.042-1.8,1.764-3.654,4.266-4.214,4.006-2.389-1.118-4.4-3.053-6.547-4.689l.714-.36" transform="translate(-302.817 -81.241)" fill="#fff"/>
    <path id="Tracciato_168" data-name="Tracciato 168" d="M402.846,467.817c4.019,2.673,4.6,5.284,1.554,7.521a2.9,2.9,0,0,1-2.4.357c-.438-.179-.751-1.417-.628-2.092.357-1.956.964-3.865,1.473-5.786" transform="translate(-149.91 -174.738)" fill="#fff"/>
    <path id="Tracciato_169" data-name="Tracciato 169" d="M143.494,232.211c-3.623-3.885-.984-8.07-1.938-12.026,3.009,1.46,3.941,7.382,1.938,12.026" transform="translate(-52.856 -82.243)" fill="#fff"/>
    <path id="Tracciato_170" data-name="Tracciato 170" d="M386.5,348.039c2.882,2.9-.174,6.074.911,9.23-4.764-2.384-5.027-6.061-.911-9.23" transform="translate(-143.286 -129.999)" fill="#fff"/>
    <path id="Tracciato_171" data-name="Tracciato 171" d="M19.792,208.81c-.977-1.376-2.064-2.368-1.879-2.741a37.467,37.467,0,0,1,2.966-4.541c.966.874,2.882,2.276,2.738,2.536a32.749,32.749,0,0,1-3.825,4.746" transform="translate(-6.683 -75.274)" fill="#fff"/>
    <path id="Tracciato_172" data-name="Tracciato 172" d="M139.406,293.4c-1.321,1.034-2.525,2.56-4.006,2.9-.782.184-2.822-1.6-2.937-2.644-.281-2.533,2.089-2.26,3.728-2.307a11.069,11.069,0,0,1,2.94.732q.138.657.276,1.315" transform="translate(-49.468 -108.826)" fill="#fff"/>
    <path id="Tracciato_173" data-name="Tracciato 173" d="M143.547,183.577c-2.809-3.615-1.5-7.611-1.237-11.508,2.62,3.63,2.087,7.555,1.237,11.508" transform="translate(-52.956 -64.271)" fill="#fff"/>
    <path id="Tracciato_174" data-name="Tracciato 174" d="M142.234,196.1c2.8,3.588,2.153,7.631,1.449,11.69-2.877-3.536-1.509-7.705-1.449-11.69" transform="translate(-52.986 -73.248)" fill="#fff"/>
    <path id="Tracciato_175" data-name="Tracciato 175" d="M3.575,234.516a10.445,10.445,0,0,1-.105-7.529,1.977,1.977,0,0,1,1.5-1.155c.489.05,1.321.948,1.271,1.391-.281,2.5-.782,4.972-1.208,7.456-.486-.055-.974-.108-1.462-.163" transform="translate(-1.053 -84.351)" fill="#fff"/>
    <path id="Tracciato_176" data-name="Tracciato 176" d="M417.61,513.447l-4.043-1.98c1.441-.645,2.872-1.322,4.331-1.921a1.607,1.607,0,0,1,1.195,0c.892.47,1.722,1.063,2.575,1.607a21.425,21.425,0,0,1-2.365,1.817c-.375.223-.99.039-1.5.039-.066.145-.131.289-.2.436" transform="translate(-154.475 -190.282)" fill="#fff"/>
    <path id="Tracciato_177" data-name="Tracciato 177" d="M150.845,283.166c.893,3.591-1.452,4.442-3.163,5.521-.334.21-1.906-.746-2.174-1.443a2.7,2.7,0,0,1,.732-2.518,23.352,23.352,0,0,1,4.6-1.559" transform="translate(-54.32 -105.768)" fill="#fff"/>
    <path id="Tracciato_178" data-name="Tracciato 178" d="M426,544.257c-1.25-1.213-2.644-2.011-2.552-2.57.441-2.762,3.043-2.048,4.854-2.426.556-.118,1.331.806,2.009,1.255-1.321,1.145-2.639,2.289-4.311,3.741" transform="translate(-158.163 -201.42)" fill="#fff"/>
    <path id="Tracciato_179" data-name="Tracciato 179" d="M8.683,217.337a9.194,9.194,0,0,1,.869-2.846,16.8,16.8,0,0,1,2.691-2.347,27.529,27.529,0,0,1,.478,4.059,3.16,3.16,0,0,1-1.124,1.762A11.766,11.766,0,0,1,9.7,219.216c-.357-.658-.717-1.317-1.021-1.879" transform="translate(-3.243 -79.24)" fill="#fff"/>
    <path id="Tracciato_180" data-name="Tracciato 180" d="M403.938,513.895c-3.612,1.665-7.463.958-9.622-1.769,3.518-1.084,8.283-.21,9.622,1.769" transform="translate(-147.284 -191.112)" fill="#fff"/>
    <path id="Tracciato_181" data-name="Tracciato 181" d="M152.524,249.953h8.2c-2.544,3.93-5.972,3.977-8.2,0" transform="translate(-56.97 -93.362)" fill="#fff"/>
    <path id="Tracciato_182" data-name="Tracciato 182" d="M645.077,92.336c.265.874,1.013,2.242.708,2.541a20.432,20.432,0,0,1-4.46,3.232c-.273.149-1.239-.953-1.888-1.479l3.938-3.591q.851-.351,1.7-.7" transform="translate(-238.842 -34.489)" fill="#fff"/>
    <path id="Tracciato_183" data-name="Tracciato 183" d="M1005.433,215.028c-.963-1.373-1.827-2.294-1.7-2.465,1.176-1.546,2.523-2.964,3.82-4.418.538.509,1.617,1.334,1.533,1.478-.969,1.651-2.116,3.2-3.654,5.405" transform="translate(-374.908 -77.746)" fill="#fff"/>
    <path id="Tracciato_184" data-name="Tracciato 184" d="M517.939,208.428c1.68,2.819.294,6.091-2.287,6.431-.488.063-1.359-.217-1.489-.554a2.326,2.326,0,0,1,.11-1.935c1.034-1.323,2.276-2.481,3.665-3.943" transform="translate(-191.991 -77.852)" fill="#fff"/>
    <path id="Tracciato_185" data-name="Tracciato 185" d="M11.2,284.455q-3.182-4.706-6.366-9.409c.368-.268.732-.536,1.1-.8q3.422,4.572,6.841,9.141L11.2,284.455" transform="translate(-1.804 -102.435)" fill="#fff"/>
    <path id="Tracciato_186" data-name="Tracciato 186" d="M925.236,214.408c.971,1.3,1.869,2.232,1.749,2.389a42.378,42.378,0,0,1-3.78,4.229,5.569,5.569,0,0,1-1.329-1.039c.919-1.686,1.956-3.308,3.36-5.579" transform="translate(-344.336 -80.085)" fill="#fff"/>
    <path id="Tracciato_187" data-name="Tracciato 187" d="M436.593,216.779c.142,1.008.764,2.4.328,2.946a21.68,21.68,0,0,1-3.87,3.116c-.26-.7-.937-1.623-.7-2.043A38.193,38.193,0,0,1,435.3,216.7c.43.026.858.049,1.289.076" transform="translate(-161.472 -80.942)" fill="#fff"/>
    <path id="Tracciato_188" data-name="Tracciato 188" d="M579.349,218.724q2.04,2.8,4.08,5.6l-.84,1.068c-1.5-.763-3.392-1.207-4.347-2.4-.643-.8.039-2.67.129-4.061.328-.065.653-.133.979-.2" transform="translate(-215.881 -81.697)" fill="#fff"/>
    <path id="Tracciato_189" data-name="Tracciato 189" d="M378.924,330.607c1.279-3.263,3.484-4.08,6.463-2.394-1.67,3.022-3.6,3.736-6.463,2.394" transform="translate(-141.535 -122.275)" fill="#fff"/>
    <path id="Tracciato_190" data-name="Tracciato 190" d="M435.729,533.568a41.5,41.5,0,0,1,2.922-3.063,2.453,2.453,0,0,1,1.854-.512c.417.086,1.081,1.126.972,1.289a10.228,10.228,0,0,1-2.6,3.03c-.8.507-2.084.247-3.153.328,0-.357.006-.714.008-1.071" transform="translate(-162.75 -197.95)" fill="#fff"/>
    <path id="Tracciato_191" data-name="Tracciato 191" d="M539.9,69.939c-.281,2.659-.507,4.778-.788,7.424-3.043-2.672-2.748-5.289.788-7.424" transform="translate(-200.588 -26.123)" fill="#fff"/>
    <path id="Tracciato_192" data-name="Tracciato 192" d="M914.82,101.056c1.2,1.074,3.1,2.022,1.2,4-.5.522-1.714.365-2.6.52q.02-2.233.042-4.463c.454-.018.906-.039,1.36-.058" transform="translate(-341.178 -37.746)" fill="#fff"/>
    <path id="Tracciato_193" data-name="Tracciato 193" d="M575.66,96.416c-2.36.611-4.179,1.084-6.925,1.8,1.52-2.016,2.5-3.318,3.662-4.862,1.179,1.108,2.108,1.982,3.263,3.063" transform="translate(-212.433 -34.869)" fill="#fff"/>
    <path id="Tracciato_194" data-name="Tracciato 194" d="M328.246,501.1c-2.232-1.683-1.181-3.2-.16-4.521a15.185,15.185,0,0,1,2.6-2.155c.194.273.386.546.578.819l-3.014,5.857" transform="translate(-122.112 -184.677)" fill="#fff"/>
    <path id="Tracciato_195" data-name="Tracciato 195" d="M709.278,383.223c.6,2.929-.181,4.521-2.19,5.46-.388.181-1.253.218-1.323.063-.207-.467-.378-1.255-.128-1.57.982-1.242,2.132-2.347,3.641-3.954" transform="translate(-263.522 -143.141)" fill="#fff"/>
    <path id="Tracciato_196" data-name="Tracciato 196" d="M471.95,326.94c-.488-.916-1.564-2.037-1.334-2.7.365-1.031,1.614-1.751,2.489-2.6l.992.57q-.48,2.287-.956,4.573c-.4.053-.795.105-1.192.16" transform="translate(-175.772 -120.137)" fill="#fff"/>
    <path id="Tracciato_197" data-name="Tracciato 197" d="M419.831,383.424c-2.1,1.953-3.612,3.352-5.426,5.038-.35-3.357,1.643-5.353,5.426-5.038" transform="translate(-154.773 -143.203)" fill="#fff"/>
    <path id="Tracciato_198" data-name="Tracciato 198" d="M725.959,209.181c-1.016,1.691-1.748,2.911-2.481,4.129-.554-.467-1.564-.916-1.583-1.4-.078-1.958,1.016-2.919,4.064-2.725" transform="translate(-269.639 -78.124)" fill="#fff"/>
    <path id="Tracciato_199" data-name="Tracciato 199" d="M159.89,275.755c-.475,1.921-.864,3.5-1.339,5.423-3.163-2.906-2.864-4.029,1.339-5.423" transform="translate(-58.427 -102.999)" fill="#fff"/>
    <path id="Tracciato_200" data-name="Tracciato 200" d="M329.2,532.7q2.891,2.619,5.778,5.242-.489.469-.977.942-2.646-2.859-5.3-5.715c.163-.157.328-.313.494-.47" transform="translate(-122.777 -198.975)" fill="#fff"/>
    <path id="Tracciato_201" data-name="Tracciato 201" d="M556.04,335.591l-4.728-5.227c3.308-.108,4.83,1.594,4.728,5.227" transform="translate(-205.925 -123.395)" fill="#fff"/>
    <path id="Tracciato_202" data-name="Tracciato 202" d="M605.363,498.443q-2.571-1.776-5.14-3.555.449-.61.9-1.224,2.449,1.941,4.9,3.878l-.664.9" transform="translate(-224.194 -184.393)" fill="#fff"/>
    <path id="Tracciato_203" data-name="Tracciato 203" d="M540.436,510.92q-2.851-2.839-5.7-5.681c.195-.2.392-.4.586-.593q2.8,2.891,5.6,5.781l-.486.494" transform="translate(-199.733 -188.494)" fill="#fff"/>
    <path id="Tracciato_204" data-name="Tracciato 204" d="M394.642,90.82q-1.489,1.563-2.977,3.129l-.871-.3c.039-.84-.249-2.019.189-2.447a9.7,9.7,0,0,1,2.945-1.375c.236.333.476.664.714,1" transform="translate(-145.947 -33.55)" fill="#fff"/>
    <path id="Tracciato_205" data-name="Tracciato 205" d="M525.767,208.167c-.811-1.688-1.709-2.917-1.475-3.2a11.217,11.217,0,0,1,2.8-1.884c.242.192.483.386.725.58-.549,1.2-1.1,2.4-2.053,4.5" transform="translate(-195.818 -75.857)" fill="#fff"/>
    <path id="Tracciato_206" data-name="Tracciato 206" d="M424.6,101.265c2.819,2.357,2.19,3.757-.677,4.878.2-1.449.4-2.9.677-4.878" transform="translate(-158.344 -37.824)" fill="#fff"/>
    <path id="Tracciato_207" data-name="Tracciato 207" d="M227.262,6.671v4.867c-2.819-2.337-2.817-3.1,0-4.867" transform="translate(-84.097 -2.492)" fill="#fff"/>
    <path id="Tracciato_208" data-name="Tracciato 208" d="M570.573,493.306c-.916-.782-1.572-1.344-2.4-2.05l4.258-2.045.541.457c-.751,1.14-1.5,2.276-2.4,3.639" transform="translate(-212.224 -182.729)" fill="#fff"/>
  </g>
</svg>
