<svg xmlns="http://www.w3.org/2000/svg" xmlns:xlink="http://www.w3.org/1999/xlink" width="139.698" height="136.364" viewBox="0 0 139.698 136.364">
  <defs>
    <clipPath id="clip-path">
      <rect id="Rettangolo_13" data-name="Rettangolo 13" width="75.21" height="120.263" fill="none"/>
    </clipPath>
  </defs>
  <g id="Raggruppa_14" data-name="Raggruppa 14" transform="translate(0 55.892) rotate(-48)">
    <g id="Raggruppa_13" data-name="Raggruppa 13" transform="translate(0 0)" clip-path="url(#clip-path)">
      <path id="Tracciato_49240" data-name="Tracciato 49240" d="M32.8,9.98a.427.427,0,0,0,.13-.483.979.979,0,0,1,.564-.158c.145,2.052-.332,4.146.636,6.159V9.348a2.292,2.292,0,0,1,.582.055l-.025-.059a4.9,4.9,0,0,0,.656,2.559l-.033-.046q.066,1.524.13,3.05c-.466,2.8-.4,5.532,1.373,7.909.544.731-.119,1.108-.15,1.653.891.951,2.057.427,3.1.575q-.323.935-.648,1.87l.025-.031a1.375,1.375,0,0,1-.616.021c-.094-.511-.21-1-.825-1.148a2.7,2.7,0,0,0-2.3.607c-1.073.806-.511,1.611.174,2.307.5.5,1.08.924,1.624,1.382q.067,2.192.132,4.384c-.833-.788-1.68-1.517-2.816-.473-1.456,1.337-2.3.737-2.822-.883.375-.033.961.207,1.055-.283.337-1.741,1.248-3.488.153-5.276l.016.029a1.293,1.293,0,0,0-.594-1.336l.037.046-.214-1.113c1.263.375,2.09.238,1.658-1.4-.1-.4-.182-.8-.272-1.2,1.027-1.467.569-3.126.946-5-1.282.712-1.034,2.185-2.205,2.42-.013-.189-.025-.379-.039-.568l-.584-.669a1.574,1.574,0,0,0-.142-.55l.128-.707c.815.651,1.346.533,1.334-.584-.025-2.3-.108-4.607-.167-6.909" transform="translate(4.778 1.417)" fill="#748b67"/>
      <path id="Tracciato_49241" data-name="Tracciato 49241" d="M25.859,46.705l.161.154.212-.07a2.871,2.871,0,0,0,2.094.677l-.054-.033a1.32,1.32,0,0,0,1.335.57l0,0,1.286.667a1.618,1.618,0,0,0,1.88.54l.029.008c.2.212.4.425.606.637-.823,1.709-2.37,1.185-3.738,1.21-1.908-2.308-4.128-2.293-5.7.037-1.566-1.271-3.2-1.961-5.062-.569l0,0c-.159-.461.458-1.069-.506-1.412-1.183-.42-2.116-1.26-3.555-1.335-1.187-.062-1.95-1.747-3.438-1.676.265-1.728,1.586-1.433,2.576-1.113a13.688,13.688,0,0,0,5.111.388l2.932.245-.066-.052a1.883,1.883,0,0,0,1.995.552l-.021-.013a2.571,2.571,0,0,0,1.929.586" transform="translate(1.729 6.788)" fill="#3f533a"/>
      <path id="Tracciato_49242" data-name="Tracciato 49242" d="M38.175,40.234a2.567,2.567,0,0,0,0,1.911q.017,1.518.036,3.035a17.209,17.209,0,0,0-1.334,2.035c-.6,1.26-.274,2.165,1.22,2.429.084,1.07.843,2,.643,3.129l-.612.67c-1.064-.05-2.042.077-2.519,1.229a1.5,1.5,0,0,0-.514-.086l-.024.037c-1.561-1.406-3.38-.364-5.072-.537.667-.967,1.753-.494,2.624-.761.908-.076,2.111.5,2.336-1.07l.017-1.313a.86.86,0,0,0,.325-1.255c-.529-.918-.1-1.7.318-2.489.79-1.55-.318-3.8,1.822-4.9.174-.089-.059-.964-.1-1.475l.062-2.423c.056-.26.112-.521.168-.78,1,.686.4,1.747.61,2.619" transform="translate(4.55 5.705)" fill="#827660"/>
      <path id="Tracciato_49243" data-name="Tracciato 49243" d="M58.145,74.877l-.1.169.1.174c-.7,1.027-.477,2.245-.7,3.37l.045-.073c-.765.477-.589,1.26-.639,1.968l.044-.052a3.361,3.361,0,0,0-.654,1.942l.018-.078c-.175.04-.351.078-.529.115-.161-.241-.519-.586-.455-.706,1.3-2.432,1.125-5.054,1.332-7.684A2.7,2.7,0,0,0,55.117,71.1c0-.419,0-.84,0-1.259l-.015.032.633-.67c1.071.673,1.951.6,2.489-.67a6.255,6.255,0,0,0,.051-5.6c.1-.8.7-.561,1.182-.572l-.048-.059c.538,2.088-.251,4.169-.032,6.256l.04-.058c-1.263,1.961-1.356,4.155-1.266,6.385" transform="translate(8.357 9.449)" fill="#647f5f"/>
      <path id="Tracciato_49244" data-name="Tracciato 49244" d="M41.776,91.247a.924.924,0,0,0-.1-.977c.379-1.338-.481-2.443-.694-3.67a7.285,7.285,0,0,0,.785-.458c.567-.428,1.928-.57,1.21-1.59s-1.609-.116-2.269.473c-.193.172-.195.557-.284.846a2.787,2.787,0,0,1-.557-.107l.032.077-.2-1.717c.179-.242.56-.552.5-.715-.515-1.548.217-2.011,1.615-2.07a3.562,3.562,0,0,0,1.133-.485c.031.675-.276,1.433.476,1.93q.646,1.9,1.291,3.792c-1.342,1.273-.3,2.469.119,3.685l-1.214.665c-.158-.433-.1-1.123-.837-.954-.443.1-.4.614-.445,1-.022.2-.05.4-.075.6a3.089,3.089,0,0,0-.491-.324" transform="translate(6.022 12.264)" fill="#6e5d4a"/>
      <path id="Tracciato_49245" data-name="Tracciato 49245" d="M36.15,67.625a.209.209,0,0,0-.032-.347,4.536,4.536,0,0,0-.621-2.6l.044.055c.252-2.1-.561-4.171-.113-6.27,1.276,1.511.3,3.406.866,5.039,2.843.293,2.843.293,3.553-.63a.289.289,0,0,1,.124.4,6.056,6.056,0,0,0,.477,4.04c-1.739.149-1.2,1.4-1.17,2.41l-.092.16c-.822-.448-.607-2.776-2.46-1.358l-.576-.893" transform="translate(5.353 8.867)" fill="#88745e"/>
      <path id="Tracciato_49246" data-name="Tracciato 49246" d="M17,6.824a.464.464,0,0,0-.111-.466,1.7,1.7,0,0,0-.515-1.435c0-.256-.01-.512-.015-.769.736-.479,1.245,0,1.769.416l-.041-.038a2.342,2.342,0,0,0,1.319,1.9L19.379,6.4A1.355,1.355,0,0,0,20.1,7.589l.021.033a.768.768,0,0,0,.538.728l-.06-.05a1.313,1.313,0,0,0,.7,1.276l-.021-.032a.79.79,0,0,0,.644.7l-.076-.048c-.008.218-.017.436-.028.654-.609.485-.455,1.17-.473,1.81a3.659,3.659,0,0,1-.615-.016c-.061-.59-.07-1.3-.789-1.406-.461-.07-.43.521-.527.87a1.235,1.235,0,0,0-.509-.177l.022.079c-.131-.876.007-1.823-.678-2.551l.036.036a1.335,1.335,0,0,0-.653-1.307l.03.046A1.836,1.836,0,0,0,17,6.824" transform="translate(2.481 0.6)" fill="#859982"/>
      <path id="Tracciato_49247" data-name="Tracciato 49247" d="M36.175,23.735c.032-.545.694-.921.15-1.652-1.77-2.378-1.839-5.111-1.373-7.91a1.567,1.567,0,0,1,.547.159.735.735,0,0,0,0,.536,27.575,27.575,0,0,0,.257,3.714c.144.744.608,1.688,1.679.716l-.006,0a2.78,2.78,0,0,0,1.354-2.493l-.054.048a.681.681,0,0,0,.545-.709.382.382,0,0,0,.1-.4,1.138,1.138,0,0,0,.6-.853l-.013.03a1.717,1.717,0,0,1,.587-.064c-.661,2.735-2.1,5.176-2.971,7.831a1.459,1.459,0,0,1-1.394,1.046" transform="translate(5.264 2.15)" fill="#8fa88d"/>
      <path id="Tracciato_49248" data-name="Tracciato 49248" d="M6.828,43.135a.445.445,0,0,0,.506.1l.758.574c-1.1,1.269-2.648-.964-3.814.557a9.549,9.549,0,0,0,4.472,1.319c1.459-.084,2.04.775,2.466,1.921l-1.832-.1.03.022A83.142,83.142,0,0,0,0,43.631l.017.166.158-.05c.472-.8,1.261-.578,1.966-.587,1.563-.021,3.124-.018,4.687-.025" transform="translate(0 6.543)" fill="#667b60"/>
      <path id="Tracciato_49249" data-name="Tracciato 49249" d="M12.6,22.688a.289.289,0,0,0,.384.152,1.793,1.793,0,0,0,1.452.707l-.1-.028a2.68,2.68,0,0,0,.1.512c-.48.055-.963.107-1.207.621-1.069-.09-2-.843-3.133-.637a1.8,1.8,0,0,0-.569-.1l.032.047a.761.761,0,0,0-.682-.636l.021.021a.781.781,0,0,0-.659-.618.829.829,0,0,0-.609-.689l.045.043c-.09-.655-.463-1.392.511-1.734l-.046-.048a1.6,1.6,0,0,0,1.326.578h0a2.172,2.172,0,0,0,1.9,1.22l.041.016a1.348,1.348,0,0,0,1.2.57" transform="translate(1.142 3.08)" fill="#6a6d5d"/>
      <path id="Tracciato_49250" data-name="Tracciato 49250" d="M23.572,5.852a.379.379,0,0,0-.124-.411c.017-.685.062-1.38-.589-1.853L22.85,3.57l.114-1.857-.061.075c.389.008.777.018,1.167.028l-.063-.092a3.035,3.035,0,0,0,.75,1.833l.006.01a.729.729,0,0,0,.574.72l-.056-.056q.114.871.229,1.74c-.674.269-.722.895-.845,1.479a3.572,3.572,0,0,1-.521-.137l.008.02a1.944,1.944,0,0,0-.578-1.48" transform="translate(3.466 0.26)" fill="#818978"/>
      <path id="Tracciato_49251" data-name="Tracciato 49251" d="M53.39,88a.6.6,0,0,0-.179.462l-.6.82.012-.018A2.384,2.384,0,0,0,51.391,91.8l0,.01a.958.958,0,0,1-.541.068c-.822-1.051-.306-2.132-.069-3.206.732-.622,1.3-1.562,2.5-1.276a3.184,3.184,0,0,1,.116.6" transform="translate(7.644 13.248)" fill="#82a089"/>
      <path id="Tracciato_49252" data-name="Tracciato 49252" d="M37.223,48.646C35.73,48.382,35.4,47.478,36,46.218a16.985,16.985,0,0,1,1.335-2.035,2.332,2.332,0,0,1,.509.208.548.548,0,0,0,.083.53q-.022.938-.044,1.877c-.693.446-.524,1.2-.663,1.847" transform="translate(5.418 6.702)" fill="#aa917a"/>
      <path id="Tracciato_49253" data-name="Tracciato 49253" d="M16.735,64.035a.26.26,0,0,0,.37.14,1.709,1.709,0,0,0,1.5.608l-.039-.014c.035.168.069.337.1.507-1.313,1.247-2.182-.031-3.183-.56a1.3,1.3,0,0,0-1.261-.623l-.616-.02L13.46,62.98l.131-.132.638-.039.032.015a2.345,2.345,0,0,0,1.8.788l-.073-.062a.669.669,0,0,0,.75.486" transform="translate(2.042 9.526)" fill="#60715a"/>
      <path id="Tracciato_49254" data-name="Tracciato 49254" d="M17.5,21.345c-.026-.211-.053-.423-.079-.632.04-.686.134-1.388-.56-1.852l0-.007c-.006-.677-.175-1.41.614-1.818l-.021-.043.645.646-.024-.021a1.418,1.418,0,0,0,.661,1.259l-.009-.015a1.448,1.448,0,0,0,.638,1.274l-.013-.016c-.017.222-.036.445-.053.667a1.268,1.268,0,0,0-1.258.653c-.181-.028-.359-.059-.538-.094" transform="translate(2.554 2.577)" fill="#c5d3c3"/>
      <path id="Tracciato_49255" data-name="Tracciato 49255" d="M14.76,74.634l-1.068-.127,0,.008-.636-.658.032.03c.012-.4.023-.8.036-1.2l-.052.058.287.015.282-.059-.017-.017a2.9,2.9,0,0,0,1.891.5.593.593,0,0,0,.492.154,3.27,3.27,0,0,0,.236.5c-.078.092-.154.184-.229.279a1.11,1.11,0,0,0-1.256.521" transform="translate(1.981 11.024)" fill="#899180"/>
      <path id="Tracciato_49256" data-name="Tracciato 49256" d="M13.354,62.351a.226.226,0,0,0,.348.117,4.62,4.62,0,0,0,.276.562l-.13.131c-1.122-.251-2.343-.316-2.937-1.561l1.764.3-.071-.063a.663.663,0,0,0,.75.511" transform="translate(1.655 9.343)" fill="#60715a"/>
      <path id="Tracciato_49257" data-name="Tracciato 49257" d="M8.137,43.811l1.243-.143,1.215.088c.075.151.151.3.227.453-.941.175-1.893.432-2.685-.4" transform="translate(1.234 6.623)" fill="#667b60"/>
      <path id="Tracciato_49258" data-name="Tracciato 49258" d="M28.323,48.174l.629-.166,1.048.21a3.709,3.709,0,0,1,.2.5,1.618,1.618,0,0,1-1.88-.54" transform="translate(4.296 7.282)" fill="#657a5d"/>
      <path id="Tracciato_49259" data-name="Tracciato 49259" d="M16.4,73.677a.347.347,0,0,0,.375.154,3.781,3.781,0,0,1,.249.57,1.523,1.523,0,0,1-1.4-.439c.075-.094.152-.188.23-.279l.271.016Z" transform="translate(2.37 11.175)" fill="#899180"/>
      <path id="Tracciato_49260" data-name="Tracciato 49260" d="M48.123,63.465l1.23,5.024.211,2.939c-.04.72-.137,1.442-.111,2.159.157,4.132.994,8.226.67,12.385a1.275,1.275,0,0,0,.62,1.28h0l-.021.652a2.19,2.19,0,0,0-1.214,1.171c-.167.351-.4.357-.652.068-.474-1.129-1.03-2.149-2.536-1.893a13.358,13.358,0,0,1,.46-1.475c.67-1.529,1.533-3.023-.079-4.54a.912.912,0,0,1,.15-1.382,2.211,2.211,0,0,0,.739-1.641c.348-3.855.048-7.71.016-11.565a1.817,1.817,0,0,0-.555-1.4c-.257-.963-.448-1.886,1.072-1.779" transform="translate(7.026 9.625)" fill="#32432f"/>
      <path id="Tracciato_49261" data-name="Tracciato 49261" d="M39.935,68.315a6.056,6.056,0,0,1-.477-4.04c.661.6.014,2.162,1.39,2.127,1.221-.031,1.488-1.06,1.876-2.114.683-1.853,1.194-3.774,1.929-5.58.934-2.293,1.3-4.821,2.769-6.9q.06,1.005.12,2.01l-.014.029c-.088.05-.213.076-.257.151-.115.2-.025.355.222.449,0,.2-.01.4-.02.6a1.3,1.3,0,0,0-.574,1.3l-.059.587a1.373,1.373,0,0,0-.6,1.281c-.193.226-.387.45-.579.676a2.538,2.538,0,0,0,.024.561q-.048.314-.1.629l-.5.715a1.619,1.619,0,0,0-.044.547,5.655,5.655,0,0,0-.127.606l-.516.7c-.047.419-.1.837-.142,1.255l-.488.636c-.015.195-.036.389-.061.583l.008-.007-.516.618-.073.658a3.093,3.093,0,0,0-.044.618l0,0a1.34,1.34,0,0,0-.575,1.252,3.3,3.3,0,0,0-.064.61c-.917.828-.583,1.876-.872,3.446l2.051-2.169a2.224,2.224,0,0,0,.121-.533l1.169-.1a4.216,4.216,0,0,1-2.052,3c-1.964,1.172-1.851,2.8-1.73,4.58-.57-.758-1.154-1.049-1.777-.052q-.307-.938-.614-1.877a3.752,3.752,0,0,0-.077-4.275l.091-.159c1.8-.484,1.837-.561,1.171-2.412" transform="translate(5.866 7.858)" fill="#81836c"/>
      <path id="Tracciato_49262" data-name="Tracciato 49262" d="M38.38,81.466c-.054-.372-.107-.743-.161-1.115-.008-.409-.017-.818-.025-1.228a3.727,3.727,0,0,0-.587-1.936h0l.635-.618.632-.63c1,1.206,2.617.532,3.781,1.237.587.489.532,1.207.656,1.86q-.021,1.282-.04,2.565a3.558,3.558,0,0,1-1.133.484c-1.4.06-2.129.522-1.615,2.07.055.165-.326.473-.5.715l-.009-.02a.645.645,0,0,0-.435-.735l-.64-.7c0-.7.082-1.427-.553-1.95" transform="translate(5.704 11.518)" fill="#434336"/>
      <path id="Tracciato_49263" data-name="Tracciato 49263" d="M47.2,65.01a1.812,1.812,0,0,1,.554,1.4c.033,3.855.333,7.71-.015,11.565A2.215,2.215,0,0,1,47,79.617.912.912,0,0,0,46.852,81c1.612,1.517.75,3.009.079,4.54a13.535,13.535,0,0,0-.461,1.475l-1.147.632q.244-2.515.489-5.028c.078-5.9,1.6-11.686,1.389-17.608" transform="translate(6.875 9.86)" fill="#4c664e"/>
      <path id="Tracciato_49264" data-name="Tracciato 49264" d="M42.487,77.6c-1.164-.7-2.78-.031-3.781-1.237.81-.7.017-1.815.654-2.561.622-1,1.206-.706,1.776.053A12.07,12.07,0,0,1,42.487,77.6" transform="translate(5.871 11.097)" fill="#4e5440"/>
      <path id="Tracciato_49265" data-name="Tracciato 49265" d="M47.756,60.233q-.159.814-.319,1.626c-.625.3-.31,1.218-.984,1.486-.077-.071-.153-.144-.229-.215.038-.375.075-.753.112-1.13a5.386,5.386,0,0,0,.043-.594l.578-.663c.023-.2.039-.4.047-.6a2.088,2.088,0,0,0,.487-.124c.09.068.179.139.265.213" transform="translate(7.011 9.104)" fill="#627759"/>
      <path id="Tracciato_49266" data-name="Tracciato 49266" d="M45.5,64.579a1.691,1.691,0,0,1-.674,1.843l-.195-.143c-.28-.8-.739-1.661.661-1.867Z" transform="translate(6.724 9.77)" fill="#506245"/>
      <path id="Tracciato_49267" data-name="Tracciato 49267" d="M44.254,67.356l-1.169.1a1.978,1.978,0,0,1,1.739-1.421l.195.143-.765,1.18" transform="translate(6.535 10.016)" fill="#506245"/>
      <path id="Tracciato_49268" data-name="Tracciato 49268" d="M45.936,64.057a.728.728,0,0,1-.538.679l-.206-.166c-.2-.612-.44-1.239.617-1.207.041.231.084.462.127.693" transform="translate(6.828 9.611)" fill="#506245"/>
      <path id="Tracciato_49269" data-name="Tracciato 49269" d="M45.832,64.155c-.043-.231-.085-.462-.127-.693.033-.208.066-.416.1-.624a1.553,1.553,0,0,0,.5-.117c.076.073.153.144.231.215.023.554-.01,1.076-.7,1.22" transform="translate(6.932 9.513)" fill="#627759"/>
      <path id="Tracciato_49270" data-name="Tracciato 49270" d="M45.5,10.972c-.04.35-.082.7-.122,1.05-.686.658-.617,1.562-.784,2.39a1.617,1.617,0,0,0-.5,1.361,1.319,1.319,0,0,0-.585,1.291,5.733,5.733,0,0,0-1.3,2.483,1.185,1.185,0,0,0-.644,1.25,2.039,2.039,0,0,0-.734,1.8,1.357,1.357,0,0,0-.532,1.335l-1.223,1.3c-1.041-.147-2.207.377-3.1-.575a1.459,1.459,0,0,0,1.394-1.046c.87-2.656,2.31-5.1,2.971-7.831.544-1.187,1.38-2.262,1.391-3.651.914-.384.972-1.435,1.593-2.048.994-.314.806-1.122.777-1.862l-.01.014c.719.137,1.882-.842,2,.8a.484.484,0,0,1-.136.489,1.192,1.192,0,0,0-.465,1.449" transform="translate(5.458 1.224)" fill="#516649"/>
      <path id="Tracciato_49271" data-name="Tracciato 49271" d="M30.476,26.665a3.6,3.6,0,0,1,.512.166c.445,1.208.492,2.565,1.347,3.62.526,1.62,1.367,2.22,2.823.883,1.136-1.043,1.983-.314,2.816.473l0-.031A9.931,9.931,0,0,1,36.7,34.965c-1.151,1.3-1.151,1.3-2.687,1.349,1.008,2.045.781,4.181.713,6.3a4.064,4.064,0,0,1-.567-2.943,2.6,2.6,0,0,0-1.884-2.805c.655-.941.667-1.623-.58-2.128-1.69-.684-.852.794-1.2,1.265a7.786,7.786,0,0,1-.868.875l-.507,0L29.1,35.638l-.631-.622-1.237-.025q.629-.625,1.256-1.253l.607-.02.62-.527c.72.094,1.372,1.061,2.173.191-.344-1.748-1.74-2.961-2.245-4.608.726-.526.225-1.536.833-2.109" transform="translate(4.13 4.044)" fill="#536f49"/>
      <path id="Tracciato_49272" data-name="Tracciato 49272" d="M27.872,15.547a.325.325,0,0,1-.18-.436c.986-1.8,2.166-.94,3.334-.244l.009-.079c-.246.958.59,1.687.549,2.6a1.24,1.24,0,0,0,.629,1.275q.3.014.6.024c.014.189.028.379.039.569.275.931,1.346,1.472,1.26,2.579.09.4.168.8.272,1.2.432,1.638-.4,1.775-1.658,1.4l.041-.023c.31-2.038-1.053-2.964-2.537-3.81l.025.032.069-1.332c.081-.06.2-.1.236-.183.1-.2,0-.357-.246-.441l0,0c.006-.92.02-1.846-1.284-1.867l-.651.017H28.4a1.287,1.287,0,0,0-.529-1.275" transform="translate(4.196 2.129)" fill="#4b5f43"/>
      <path id="Tracciato_49273" data-name="Tracciato 49273" d="M38.086,24.749a.721.721,0,0,0-.066.6,3.048,3.048,0,0,0-.685,1.83c-.191.237-.382.476-.575.713-.545-.458-1.127-.878-1.625-1.382-.685-.7-1.247-1.5-.173-2.306a2.7,2.7,0,0,1,2.3-.608c.614.147.729.637.825,1.148" transform="translate(5.212 3.57)" fill="#5c754f"/>
      <path id="Tracciato_49274" data-name="Tracciato 49274" d="M33.428,21.466c.086-1.107-.985-1.648-1.26-2.579,1.171-.236.924-1.709,2.205-2.421-.377,1.874.082,3.532-.946,5" transform="translate(4.879 2.498)" fill="#5b7156"/>
      <path id="Tracciato_49275" data-name="Tracciato 49275" d="M33.231,9.393c.22-.622.43-.474.636.008v6.152c-.969-2.013-.491-4.108-.636-6.16" transform="translate(5.04 1.362)" fill="#4a5542"/>
      <path id="Tracciato_49276" data-name="Tracciato 49276" d="M31.147,17.29c.04-.914-.8-1.643-.549-2.6a2.81,2.81,0,0,1,.5.146.712.712,0,0,0,.465.772l.214,1.056q-.064.354-.127.707c-.166-.032-.334-.059-.5-.079" transform="translate(4.634 2.228)" fill="#5b7156"/>
      <path id="Tracciato_49277" data-name="Tracciato 49277" d="M31.069,16.947c.168.021.336.047.5.079a1.6,1.6,0,0,1,.141.55l-.014.645a1.235,1.235,0,0,1-.629-1.275" transform="translate(4.712 2.57)" fill="#4e6046"/>
      <path id="Tracciato_49278" data-name="Tracciato 49278" d="M31.615,18.139l.014-.645q.292.333.583.669c-.2-.007-.4-.015-.6-.024" transform="translate(4.795 2.653)" fill="#5b7156"/>
      <path id="Tracciato_49279" data-name="Tracciato 49279" d="M8.808,43.8c.791.829,1.744.572,2.685.4l4.8.21a7.936,7.936,0,0,0,3.765.628,2.159,2.159,0,0,1,.2.506,13.672,13.672,0,0,1-5.112-.389c-.989-.319-2.311-.614-2.575,1.113a1.224,1.224,0,0,1-.612,1.213l-1.3.044-.006,0c-.426-1.147-1.007-2.006-2.466-1.921a9.55,9.55,0,0,1-4.472-1.32c1.167-1.52,2.719.713,3.814-.557l1.28.081" transform="translate(0.563 6.632)" fill="#4e5f44"/>
      <path id="Tracciato_49280" data-name="Tracciato 49280" d="M10.872,47.144a1.225,1.225,0,0,0,.612-1.213c1.488-.07,2.25,1.615,3.438,1.677,1.44.075,2.372.914,3.555,1.335.963.342.347.95.506,1.412l-2.36-.2-5.757-2.5q.005-.257.007-.515" transform="translate(1.648 6.966)" fill="#586f52"/>
      <path id="Tracciato_49281" data-name="Tracciato 49281" d="M29.379,52.849l-.24-.067-.24.063c-1.182-.738-2.512-.506-3.795-.578a1.831,1.831,0,0,1-.1-.457L27.6,50.393c1.368-.024,2.914.5,3.737-1.209l.018-.016.633.029c-.286,1.227.488,1.836,1.383,2.375-.871.267-1.957-.206-2.624.761l-1.372.516" transform="translate(3.793 7.458)" fill="#657a5d"/>
      <path id="Tracciato_49282" data-name="Tracciato 49282" d="M28.011,50.458l-2.595,1.417-2.389-.2a3.427,3.427,0,0,0-.109-.466l-.609-.714c1.573-2.331,3.794-2.345,5.7-.038" transform="translate(3.384 7.392)" fill="#546b4b"/>
      <path id="Tracciato_49283" data-name="Tracciato 49283" d="M22.976,50.44l.608.714-3.023-.2c-.75-.686-1.98-.2-2.647-1.081,1.866-1.394,3.5-.7,5.062.569" transform="translate(2.717 7.448)" fill="#586f52"/>
      <path id="Tracciato_49284" data-name="Tracciato 49284" d="M29.98,48.628l.6.024c0,.2.008.4.02.6l-.017.017-.606-.638" transform="translate(4.547 7.376)" fill="#657a5d"/>
      <path id="Tracciato_49285" data-name="Tracciato 49285" d="M30.835,47a1.3,1.3,0,0,0-.658-1.225c.09-.56.035-1.055-.579-1.3a1.362,1.362,0,0,0-.7-1.193c-.159-.973.274-2.225-1.214-2.572a1.3,1.3,0,0,0-.61-1.251,1.126,1.126,0,0,0-.62-1.269L24.972,34l.7-.1.652.6.013,0a3.339,3.339,0,0,0,1.281,2.481l.012.037.567.655c.02.2.045.4.074.593l.554.651,0,.006.629.618,0,.006c.612,3.482,2.512,6.409,4.893,7.54.557-1.186-.644-2.169-.386-3.32a1.56,1.56,0,0,0,1.231-1.1c.18.008.359.017.54.029l0,0a4.623,4.623,0,0,0,.636,5.052c-.417.789-.846,1.57-.318,2.489a.858.858,0,0,1-.324,1.254,5.054,5.054,0,0,0-3.123-.632,1.22,1.22,0,0,0-.523-1.982A2.339,2.339,0,0,0,30.835,47" transform="translate(3.788 5.142)" fill="#707e62"/>
      <path id="Tracciato_49286" data-name="Tracciato 49286" d="M33.83,41.523c.068-2.121.295-4.257-.713-6.3,1.536-.05,1.536-.05,2.687-1.349l-.008.01a1.2,1.2,0,0,0,.6,1.271,4.343,4.343,0,0,1,.192.53c-.168,1.122-.511,2.262.336,3.28q-.033,1.211-.062,2.423c-.724.552-1.283,1.4-2.357,1.328l0-.006-.546-.633a.617.617,0,0,1-.126-.552" transform="translate(5.023 5.137)" fill="#374330"/>
      <path id="Tracciato_49287" data-name="Tracciato 49287" d="M37.688,46.54a1.081,1.081,0,0,0,1.726.344c.47-.327.934-.665,1.4-1l.206.2c-.03,1.031-1.929,2.361.478,3-.764,1.324-2.727,1.8-2.642,3.723-.154,0-.309.009-.463.018-.062-.54-.144-1.068-.727-1.321.2-1.127-.557-2.059-.643-3.128.139-.646-.03-1.4.663-1.848" transform="translate(5.616 6.96)" fill="#5b6b56"/>
      <path id="Tracciato_49288" data-name="Tracciato 49288" d="M34.382,41.724c1.075.07,1.633-.776,2.357-1.327.043.51.275,1.385.1,1.474-2.14,1.1-1.032,3.354-1.823,4.9a4.621,4.621,0,0,1-.636-5.051" transform="translate(5.144 6.127)" fill="#5c5a49"/>
      <path id="Tracciato_49289" data-name="Tracciato 49289" d="M32.463,51.571c-.895-.539-1.669-1.148-1.384-2.376h.3l.3-.022c1.27-.1,1.9,1.283,3.112,1.327-.225,1.565-1.428.994-2.336,1.07" transform="translate(4.705 7.458)" fill="#3b4d34"/>
      <path id="Tracciato_49290" data-name="Tracciato 49290" d="M34.866,52.588c.478-1.153,1.456-1.28,2.519-1.23l-.01,1.909c-.922.208-1.82.311-2.454-.621Z" transform="translate(5.288 7.788)" fill="#515143"/>
      <path id="Tracciato_49291" data-name="Tracciato 49291" d="M34.711,50.583c-1.207-.044-1.843-1.43-3.113-1.326,0-.206,0-.412,0-.618H31.6a5.052,5.052,0,0,1,3.123.632l-.017,1.313" transform="translate(4.793 7.375)" fill="#657a5d"/>
      <path id="Tracciato_49292" data-name="Tracciato 49292" d="M37.043,53.355l.01-1.909.612-.669c.584.252.665.78.726,1.32-.036.4-.069.81-.1,1.215l-1.243.045Z" transform="translate(5.619 7.702)" fill="#343b31"/>
      <path id="Tracciato_49293" data-name="Tracciato 49293" d="M36.494,38.724c-.846-1.018-.5-2.158-.336-3.279q.221.371.446.744l.059,1.755c-.056.259-.112.519-.168.78" transform="translate(5.452 5.376)" fill="#5c5a49"/>
      <path id="Tracciato_49294" data-name="Tracciato 49294" d="M55.119,86.844a1.4,1.4,0,0,0-.579,1.294,1.738,1.738,0,0,1-.442.085l-1.423-.068c-.225-.243-.357-.812-.817-.233l.817.233c-.052,1.258-.948,1.27-1.859,1.262-.015-.212-.03-.424-.046-.636l-.007-1.247c.017-.214.036-.427.053-.64.462-.053.988.15,1.345-.34-.408-.409-.925-.237-1.4-.278l-.6-.009h0l.6-.631c1.54-.41,1.863-2.573,3.7-2.61a10.373,10.373,0,0,0,.094-1.16l.261-.144-.117-.119-.144.263c-2.034.767-2.029.767-1.913-1.14A7.909,7.909,0,0,0,52.6,79.8a.347.347,0,0,1,.109-.434c.461.15.882.443,1.308-.174.654-.949.219-1.744-.193-2.573l.159-1.623a2.274,2.274,0,0,0,.629-1.876c.147-.028.295-.056.441-.088,1.126-.643.688-1.7.691-2.634a.387.387,0,0,1,.117-.46,2.7,2.7,0,0,1,1.488,2.926c-.207,2.63-.035,5.253-1.331,7.684-.064.121.294.466.455.707l-.117,2.432a1.307,1.307,0,0,0-.548,1.322,1.861,1.861,0,0,0-.691,1.836" transform="translate(7.608 10.608)" fill="#577150"/>
      <path id="Tracciato_49295" data-name="Tracciato 49295" d="M56.854,64.7a1.473,1.473,0,0,0,.666-1.23l.666-.63a6.257,6.257,0,0,1-.05,5.6c-.538,1.267-1.419,1.342-2.49.669l.086-.652a1.447,1.447,0,0,0,.384-1.542c.039-.319.077-.638.116-.957a1.417,1.417,0,0,0,.622-1.262" transform="translate(8.44 9.531)" fill="#5b705a"/>
      <path id="Tracciato_49296" data-name="Tracciato 49296" d="M44.263,89.508c-.42-1.216-1.46-2.412-.119-3.684l.048.051a1.691,1.691,0,0,0,1.285,1.675q.022.992.047,1.983c1.394,2.59,1.7,5.6,3.153,8.168l0,.059L46.8,97.632l-.754-1.838-.532-.609-.009-.008c-.044-.887.267-1.855-.586-2.557a1.967,1.967,0,0,0-.091-.541c0-.895.326-1.863-.567-2.564Z" transform="translate(6.595 13.017)" fill="#423e32"/>
      <path id="Tracciato_49297" data-name="Tracciato 49297" d="M42.515,92.806q.041-.32.085-.639c.806-.681.435-1.645.6-2.48l1.214-.665v.007q0,1.256,0,2.512c-1.281,1.336-.093,2.188.614,3.135,0,.706.122,1.455-.632,1.912-.811-1.168-.7-2.793-1.873-3.782" transform="translate(6.449 13.503)" fill="#7d6953"/>
      <path id="Tracciato_49298" data-name="Tracciato 49298" d="M40.332,85.443c.09-.288.092-.674.284-.846.66-.59,1.554-1.49,2.269-.473s-.644,1.163-1.21,1.592a7.688,7.688,0,0,1-.785.458l0-.008a.7.7,0,0,0-.561-.72Z" transform="translate(6.117 12.69)" fill="#463e30"/>
      <path id="Tracciato_49299" data-name="Tracciato 49299" d="M43.285,89.729c-.16.836.211,1.8-.6,2.48l-.639-.678-.121-1.156c.025-.2.053-.4.075-.6.041-.387,0-.9.445-1,.738-.169.681.522.837.954" transform="translate(6.359 13.461)" fill="#4c4c41"/>
      <path id="Tracciato_49300" data-name="Tracciato 49300" d="M39.746,61.4q.045.943.091,1.888c-.709.922-.709.922-3.553.63-.565-1.633.41-3.528-.866-5.039q-.028-.876-.058-1.751.154-.722.306-1.443c.791,1.494,2.545.367,3.541,1.3l.024-.026c0,1.5-.512,3.058.514,4.439" transform="translate(5.363 8.447)" fill="#5e5140"/>
      <path id="Tracciato_49301" data-name="Tracciato 49301" d="M39.077,68.612a3.754,3.754,0,0,1,.076,4.275l-.021-.031c-.038-.537-.2-.984-.805-1.108-.547-.779-1.125-1.512-2.226-1.433a1.527,1.527,0,0,1-.079-.615c.88.094,1.265-.313,1.2-1.178.29-.124.343-.23.146-.257-.043-.006-.106.157-.16.241a1.038,1.038,0,0,1-.592-1.253c1.853-1.418,1.638.911,2.461,1.359" transform="translate(5.463 10.132)" fill="#ab957f"/>
      <path id="Tracciato_49302" data-name="Tracciato 49302" d="M39.937,66.141c.666,1.851.628,1.928-1.171,2.412-.03-1.009-.568-2.263,1.171-2.412" transform="translate(5.864 10.032)" fill="#4b463a"/>
      <path id="Tracciato_49303" data-name="Tracciato 49303" d="M22.27,18.9a1.388,1.388,0,0,0-.618-1.24c-.055-1.528-1.282-2.618-1.525-4.076a1.2,1.2,0,0,0-.571-1.427l0,.018.675-.681a3.552,3.552,0,0,0,.616.016,3.661,3.661,0,0,0,1.933.589h0c-.77,1.943-.675,2.113,1.379,2.468a.628.628,0,0,1,.532.618c-.357.358-.708,1.016-1.07,1.022-1.342.023-1.539.494-.975,1.619a3.3,3.3,0,0,1,.091,1.207,2.6,2.6,0,0,0-.472-.135" transform="translate(2.966 1.744)" fill="#5a6850"/>
      <path id="Tracciato_49304" data-name="Tracciato 49304" d="M22.613,12.339a3.67,3.67,0,0,1-1.933-.587c.018-.64-.136-1.326.473-1.81l.659.66q.4.869.8,1.738" transform="translate(3.136 1.508)" fill="#6d7e67"/>
      <path id="Tracciato_49305" data-name="Tracciato 49305" d="M20.319,11.684l-.676.681c-.165-.048-.331-.09-.5-.126L19,11.147c.1-.348.067-.939.527-.87.719.109.728.817.789,1.406" transform="translate(2.882 1.558)" fill="#6d7e67"/>
      <path id="Tracciato_49306" data-name="Tracciato 49306" d="M52.773,79.731a7.909,7.909,0,0,1,.045.932c-.116,1.907-.121,1.907,1.913,1.14a10.371,10.371,0,0,1-.094,1.16c-1.837.037-2.161,2.2-3.7,2.61-.253-.508-.736-.585-1.224-.648.322-4.159-.514-8.254-.67-12.385-.028-.717.07-1.44.109-2.159,1.085,4.156,1.117,8.42,1.3,12.99a4.962,4.962,0,0,0,1.8-3.424q.266-.1.526-.214" transform="translate(7.438 10.675)" fill="#5d7853"/>
      <path id="Tracciato_49307" data-name="Tracciato 49307" d="M45.611,101.074a2.006,2.006,0,0,0-1.84-.692c-1.457-1.081-3.463-1.278-4.609-2.861,1.126-.993,2.652-.889,3.94-1.437l1.777.681.307,0,.307.008q-.3.575-.6,1.148c-.127,1.527,1.369,2.088,1.913,3.215l-1.2-.06" transform="translate(5.94 14.574)" fill="#6e8461"/>
      <path id="Tracciato_49308" data-name="Tracciato 49308" d="M38.479,91.039a.76.76,0,0,0,.676.556c.162.958,1.186,1.35,1.464,2.232-.093.812-.424,1.4-1.347,1.435l0,0A1.3,1.3,0,0,0,38.649,94c-.552-1.307-1.45-1.276-2.5-.647l-1.274-1.23c1.221-.5,1.281-1.585,1.328-2.672l2.278,1.593" transform="translate(5.289 13.567)" fill="#4e6143"/>
      <path id="Tracciato_49309" data-name="Tracciato 49309" d="M44.142,98.244c.2-.382.4-.765.6-1.147-.185-.212-.37-.424-.555-.635-.014-.206-.029-.412-.043-.618.754-.458.629-1.207.632-1.913v0l.632.01.008.008.534.609q.377.919.752,1.839c.363.832,2.116,1.356.575,2.606-1.091-.067-2-.87-3.135-.765" transform="translate(6.695 14.247)" fill="#8f6d53"/>
      <path id="Tracciato_49310" data-name="Tracciato 49310" d="M38.693,94.685c.922-.033,1.253-.623,1.346-1.435a9.568,9.568,0,0,1,2.484,2.577.814.814,0,0,0,.639.691l.012,0c-1.289.548-2.815.445-3.941,1.437l.018,0c-.2-1.085.231-2.278-.559-3.262" transform="translate(5.869 14.144)" fill="#5d734f"/>
      <path id="Tracciato_49311" data-name="Tracciato 49311" d="M15,24.142l1.794.142q.682.565,1.366,1.127c.438,1.167,1.668,1.3,2.519,1.923l.639.564-.015.016c0,.422-.008.842-.012,1.263a16.109,16.109,0,0,1-5.739-2.8,2.778,2.778,0,0,0-1.789-.349l-.683.043,0,.015c.007-.431.013-.861.02-1.292-.2-.211-.4-.422-.607-.631l-.013,0c.244-.514.727-.565,1.207-.621l.07.031A1.15,1.15,0,0,0,15,24.142" transform="translate(1.892 3.57)" fill="#575c49"/>
      <path id="Tracciato_49312" data-name="Tracciato 49312" d="M13.505,24.8c-.006.431-.013.861-.018,1.293l-1.093-.189a.822.822,0,0,0-.726-.518,1.562,1.562,0,0,0-1.151-.749.818.818,0,0,0-.682-.551c-.03-.185-.058-.372-.082-.56,1.129-.2,2.063.547,3.133.638l.012,0q.3.314.607.631" transform="translate(1.479 3.564)" fill="#788674"/>
      <path id="Tracciato_49313" data-name="Tracciato 49313" d="M39.29,57.564c-1-.935-2.751.19-3.541-1.3q-.152.722-.306,1.443c-.908-1.639-.568-3.4-.517-5.141.636.933,1.533.829,2.455.621h0c.06.355-.016.866.544.8.413-.048.6-.448.7-.845l.1-1.215c.154-.009.31-.015.464-.018a35.3,35.3,0,0,1,.1,5.658" transform="translate(5.281 7.873)" fill="#736755"/>
      <path id="Tracciato_49314" data-name="Tracciato 49314" d="M20.128,28.62c0-.422.008-.842.012-1.263l1.256.1q.347.247.692.5c.629-.987,1.564-.726,2.465-.608a1.078,1.078,0,0,0,.518.113c.273,1.254,1.458,1.857,2.055,2.879.124.655.6.787,1.168.78l.036.035a.734.734,0,0,0,.682.548l-.017-.021a.786.786,0,0,0,.7.65.847.847,0,0,1,.479.229l0,1.075-.606.02c-1.829.086-1.837.093-1.258,1.254l1.237.024.632.623q.009.618.02,1.237l.488.62.131.646c-.926,1.587.472,1.086,1.126,1.254a.417.417,0,0,1,.23.439,3.825,3.825,0,0,1-.023.6c-.124.621,1.01,1.426-.026,1.8-.985.36-.868-.732-1.14-1.3-.084-.177-.518-.19-.791-.278l0-.006-.629-.618-.006-.006c-.184-.217-.369-.434-.554-.651-.029-.2-.053-.4-.074-.593l-.567-.655L28.35,38c.822-2.133.806-2.164-1.28-2.481l-.014,0c-.217-.2-.434-.4-.652-.6l-.7.1.055-.055a.8.8,0,0,0-.645-.652l.024.016a.927.927,0,0,0-.875-.58.283.283,0,0,1-.36-.2.747.747,0,0,0-.675-.485l0,0c.742-1.306,1.9.522,2.764-.415l-3.363-2.109a5.04,5.04,0,0,0-.59-.008L21.4,30.5c.913-1.536-1.089-1.093-1.276-1.882" transform="translate(3.053 4.129)" fill="#4b543e"/>
      <path id="Tracciato_49315" data-name="Tracciato 49315" d="M27.372,30.708c-.568.007-1.043-.124-1.168-.781.533.045,1,.184,1.168.781" transform="translate(3.975 4.539)" fill="#51664a"/>
      <path id="Tracciato_49316" data-name="Tracciato 49316" d="M28.464,31.115q.031.314.064.627a.787.787,0,0,1-.7-.648l.639.022" transform="translate(4.22 4.716)" fill="#51664a"/>
      <path id="Tracciato_49317" data-name="Tracciato 49317" d="M27.931,31.183a.735.735,0,0,1-.682-.549.7.7,0,0,1,.682.549" transform="translate(4.133 4.646)" fill="#51664a"/>
      <path id="Tracciato_49318" data-name="Tracciato 49318" d="M38.1,71.142a1.554,1.554,0,0,0,.077.616c-.54.086-1.094.145-1.4.7-.447.235-.427.446.033.632a1.22,1.22,0,0,1,1.208.638c-.295.107-.343.205-.136.251.029.006.094-.159.143-.244,1.1-.05.966.541.637,1.232-.244,1.733-.244,1.733-2.56,1.3a2.943,2.943,0,0,1-.577-.048c-.1-.274-.22-.79-.31-.785-1.681.081-2.085-1.331-2.822-2.349a3.339,3.339,0,0,1-.064-.576c.014-.225.029-.449.043-.673.456.113.992.636,1.352.036.412-.685-.416-.745-.737-1.03a14.885,14.885,0,0,0-1.23-.9c.142-1.7-1.845-.609-2.316-1.822A3.8,3.8,0,0,0,26.91,65.68c-.1-.024-.195-.059-.291-.089a1.677,1.677,0,0,0-.449-.111,2.471,2.471,0,0,0-1.209-1.919,1.369,1.369,0,0,0-.686-1.209.733.733,0,0,0-.521-.727c-.083-1.186-1-1.964-1.449-2.971a1.4,1.4,0,0,1,1.407-1.361q1.164,1.011,2.33,2.019a.682.682,0,0,0,.623.638.79.79,0,0,0,.519.724c1.783,2.422,3.644,4.763,6.323,6.281a.716.716,0,0,0,.658.589.711.711,0,0,0,.721.536A3.544,3.544,0,0,0,36.6,69.512a2.538,2.538,0,0,0,.182.554l.533.518.1.088.58.537Zm-1.071,4.106a1.781,1.781,0,0,0-.271-.453c-.18-.161-.4-.1-.426.138a.536.536,0,0,0,.23.441c.106.055.307-.076.466-.127" transform="translate(3.383 8.69)" fill="#41523a"/>
      <path id="Tracciato_49319" data-name="Tracciato 49319" d="M31.518,16.175c-1.168-.7-2.348-1.559-3.334.244q-.259-.1-.511-.221a1.445,1.445,0,0,0-.529-1.336,2.553,2.553,0,0,0-.7-1.823,2.248,2.248,0,0,0-.671-1.857,1.365,1.365,0,0,0-.536-1.328A1.474,1.474,0,0,0,24.7,8.515l-.276-1.626c.123-.584.172-1.209.844-1.479l1.079.784A2.645,2.645,0,0,0,27.6,8.084a2.531,2.531,0,0,0,1.167,1.967,1.489,1.489,0,0,0,.717,1.175,1.419,1.419,0,0,0,.578,1.3,1.4,1.4,0,0,0,.645,1.244A1.129,1.129,0,0,0,31.366,15l.152,1.17" transform="translate(3.705 0.821)" fill="#4e6046"/>
      <path id="Tracciato_49320" data-name="Tracciato 49320" d="M45.269,89.8q-.024-.992-.047-1.982-.029-.662-.061-1.326l.187-1.736,1.148-.632c1.508-.256,2.062.765,2.536,1.892-.881.1-1.573.617-.979,1.4.616.812,1.218,1.981,2.567,1.876.576-.866-.073-2.033.908-2.652.015.213.031.425.046.637l0,1.9c-.237,1.073-.753,2.154.069,3.205a.841.841,0,0,1-.677.575c-.789.153-1.388.889-2.628.693.893-2.2-1.761-2.944-1.684-5.15l-1.381,1.3" transform="translate(6.85 12.753)" fill="#364a32"/>
      <path id="Tracciato_49321" data-name="Tracciato 49321" d="M50.726,88.917l0-1.9c.911.008,1.808,0,1.86-1.262h0l1.425.068L53.74,86.93q-.257.356-.516.712c-1.2-.286-1.766.654-2.5,1.276" transform="translate(7.694 13.007)" fill="#5d7853"/>
      <path id="Tracciato_49322" data-name="Tracciato 49322" d="M24.46,33.376a.8.8,0,0,1,.645.652c-.393-.041-.534-.331-.645-.652" transform="translate(3.71 5.062)" fill="#51664a"/>
      <path id="Tracciato_49323" data-name="Tracciato 49323" d="M22.822,32.29a.746.746,0,0,1,.675.484c-.188.023-.377.037-.565.041-.035-.175-.07-.35-.109-.525" transform="translate(3.462 4.898)" fill="#51664a"/>
      <path id="Tracciato_49324" data-name="Tracciato 49324" d="M23.721,32.887a.925.925,0,0,1,.875.58.966.966,0,0,1-.875-.58" transform="translate(3.598 4.988)" fill="#51664a"/>
      <path id="Tracciato_49325" data-name="Tracciato 49325" d="M34.7,73.811a2.862,2.862,0,0,0,.578.048l1.3,1.859c-.311.106-.362.2-.144.25.024.006.088-.169.134-.26.568.441,1.946.347,1.068,1.752-.151.242.434.609.823.761a3.25,3.25,0,0,0,1.217,1.318q.012.613.026,1.227c-.179-.029-.355-.067-.53-.112a.768.768,0,0,0-.557-.7.85.85,0,0,0-.636-.623.8.8,0,0,0-.682-.58c-1.777-2.589-4.458-1.877-6.938-1.9a1.583,1.583,0,0,0-1.28-.577,1.535,1.535,0,0,0-1.2-.677,2.419,2.419,0,0,0-.126-.493c.419-.841,2.025-.5,1.889-1.892l.663.008c.222,1.67,1.323,1.537,2.512,1.224a3.728,3.728,0,0,0,1.874-.633" transform="translate(4.211 11.105)" fill="#638269"/>
      <path id="Tracciato_49326" data-name="Tracciato 49326" d="M14.459,67.617a.745.745,0,0,0-.751-.493,2.3,2.3,0,0,0-1.822-1.337c-.768-.723-1.292-1.772-2.521-1.877a4.449,4.449,0,0,0-1.871-1.27c-.717-.678-1.415-1.381-2.162-2.026a1.247,1.247,0,0,1-.438-1.574l1.153.055c.494.646,1.218.563,1.9.606a1.446,1.446,0,0,0,1.28.6,1.317,1.317,0,0,0,1.237.655,1.677,1.677,0,0,0,1.3.567c.02.157.043.312.07.468.594,1.246,1.815,1.311,2.937,1.561q.074.549.151,1.1c-.83.457-1.471.964-.3,1.742,1.353.9,2.727,1.764,4.092,2.644l-.012.014a.834.834,0,0,0,.651.6c.2,0,.392.017.587.036a1.278,1.278,0,0,0,1.26.625l0,0,.632.617.012,0c-.008.417-.015.834-.023,1.25l-1.813-.7a4.541,4.541,0,0,0-1.8-1.35,2.69,2.69,0,0,0-1.928-1.214,3.327,3.327,0,0,0-1.833-1.307" transform="translate(0.724 8.955)" fill="#526850"/>
      <path id="Tracciato_49327" data-name="Tracciato 49327" d="M17.511,68.295c-1.365-.88-2.74-1.746-4.093-2.644-1.172-.779-.532-1.286.3-1.744l.617.02a1.284,1.284,0,0,0,1.261.623c1,.529,1.87,1.807,3.183.56v.008a1.068,1.068,0,0,0,1.2.694l.023.013a.832.832,0,0,0,.768.546l1.051.144a1.258,1.258,0,0,0,1.216.684,1.515,1.515,0,0,0,1.281.592.743.743,0,0,0,.712.531,1.211,1.211,0,0,0,1.2.693l.668.677c.183.592-.727,1.189.009,1.778q.01,1.261.022,2.521l-.715.724v0c-.078-1.615-.244-3.044-2.541-2.676-.993.159-1.933-.759-3.021-.57l-.031-.018c.007-.417.015-.833.022-1.25l3.984,1.228c-.357-2.818-3.148-2.534-4.319-4.068-.707.906-1.686.119-2.483.411-.149.054-.211.344-.313.525" transform="translate(1.938 9.693)" fill="#455d43"/>
      <path id="Tracciato_49328" data-name="Tracciato 49328" d="M15.388,64.547a1.285,1.285,0,0,1-1.261-.623,1.3,1.3,0,0,1,1.261.623" transform="translate(2.143 9.696)" fill="#526850"/>
      <path id="Tracciato_49329" data-name="Tracciato 49329" d="M41.33,27.174l.228-1.064A15.01,15.01,0,0,0,45.27,20.4q.56-.411,1.118-.823c-.76,3.149-2.182,5.859-5.058,7.6" transform="translate(6.269 2.969)" fill="#7b9172"/>
      <path id="Tracciato_49330" data-name="Tracciato 49330" d="M24.111,57.768A1.4,1.4,0,0,0,22.7,59.129a4.642,4.642,0,0,1-.536-.091A2.785,2.785,0,0,0,20.986,57.1a1.517,1.517,0,0,0-.794-1.122.827.827,0,0,0-.525-.714v-1.1l1.706.016.552.678,2.187,2.906" transform="translate(2.983 8.216)" fill="#687762"/>
      <path id="Tracciato_49331" data-name="Tracciato 49331" d="M36.679,37.182c-.149-.248-.3-.5-.446-.744a4.337,4.337,0,0,0-.191-.53,1.375,1.375,0,0,0-.6-1.271l.008-.01a9.925,9.925,0,0,0,1.282-3.188,2.854,2.854,0,0,0,2.615-2.286l.955-.261c.291.623-.81,2.691,1.385,1.331,0,.214.008.427.012.64l-.808,1.744-.59.655-1.738,2.026a.813.813,0,0,0-.694.565,1.426,1.426,0,0,0-.719,1.17c-.159.05-.316.1-.472.159" transform="translate(5.376 4.382)" fill="#799072"/>
      <path id="Tracciato_49332" data-name="Tracciato 49332" d="M25.068,73.082q-.012-1.261-.023-2.521l1.93-.662,1.187.068.669.584c.951.706,1.862,1.623,3.154.629.736,1.018,1.139,2.43,2.82,2.349.091,0,.206.511.31.785a3.735,3.735,0,0,1-1.873.633,2.174,2.174,0,0,0-2.513-1.224l-.662-.008a4.288,4.288,0,0,1-2.521-.723c-.865-1.02-1.664-.257-2.48.09" transform="translate(3.799 10.602)" fill="#4b6443"/>
      <path id="Tracciato_49333" data-name="Tracciato 49333" d="M26.05,64.5c.1.03.192.064.291.089a3.8,3.8,0,0,1,2.538,2.448c.47,1.213,2.458.127,2.316,1.822l-.7.706-1.357-.625c-.906-.765-1.107-2.129-2.269-2.676a.76.76,0,0,0-.559-.69c-.088-.358-.176-.715-.265-1.073" transform="translate(3.951 9.783)" fill="#4e6848"/>
      <path id="Tracciato_49334" data-name="Tracciato 49334" d="M28.8,68.354l1.357.624c.02.188.047.375.085.561l.6.623h0l.584.675a3.431,3.431,0,0,0,.066.575c-1.292,1-2.2.078-3.154-.629,2.027-.453.305-1.62.464-2.43" transform="translate(4.297 10.368)" fill="#718c64"/>
      <path id="Tracciato_49335" data-name="Tracciato 49335" d="M11.042,46.984q0,.257-.007.515l-1.168.015c-.046-.161-.089-.324-.124-.487l1.3-.043" transform="translate(1.478 7.126)" fill="#667b60"/>
      <path id="Tracciato_49336" data-name="Tracciato 49336" d="M39.185,94.664c.79.984.359,2.177.559,3.262l-1.066-.255a.8.8,0,0,0-.631-.616.854.854,0,0,0-.727-.53,3.022,3.022,0,0,0-1.792-1.347c-.025-.177-.053-.354-.081-.531a1.265,1.265,0,0,0,.6-1.246c.979-.126,1.232.874,1.9,1.229l1.237.032Z" transform="translate(5.376 14.165)" fill="#6e8461"/>
      <path id="Tracciato_49337" data-name="Tracciato 49337" d="M19.187,23.428l-.519-.119a1.706,1.706,0,0,0-.628-1.239q-.079-.567-.16-1.131a1.272,1.272,0,0,1,1.258-.653l.66.632c.23.19.463.379.694.568,0,.208,0,.417,0,.625a1.207,1.207,0,0,0-1.307,1.316" transform="translate(2.712 3.077)" fill="#a7b6a2"/>
      <path id="Tracciato_49338" data-name="Tracciato 49338" d="M19.614,70.473c1.088-.189,2.028.729,3.021.57,2.3-.367,2.462,1.062,2.541,2.678-1.632-.26-2.63-1.8-4.244-2.1a1.4,1.4,0,0,0-1.229-.644c-.026-.169-.056-.337-.089-.506" transform="translate(2.975 10.685)" fill="#536a4e"/>
      <path id="Tracciato_49339" data-name="Tracciato 49339" d="M27.479,72.584a4.289,4.289,0,0,0,2.52.723c.136,1.4-1.468,1.051-1.888,1.892l-1.172-.121c-.439-.182-.874-.364-1.312-.547-.039-.181-.083-.362-.127-.541,1.057.09,1.3-.964,1.979-1.406" transform="translate(3.868 11.009)" fill="#749578"/>
      <path id="Tracciato_49340" data-name="Tracciato 49340" d="M27.639,72.651c-.679.442-.921,1.5-1.979,1.406-.458-.088-.964-.082-1.216-.592l.715-.724c.815-.346,1.615-1.109,2.48-.09" transform="translate(3.708 10.942)" fill="#536a4e"/>
      <path id="Tracciato_49341" data-name="Tracciato 49341" d="M19.558,12.073a1.2,1.2,0,0,1,.571,1.427,1.378,1.378,0,0,1-.571-1.427" transform="translate(2.964 1.831)" fill="#6d7e67"/>
      <path id="Tracciato_49342" data-name="Tracciato 49342" d="M36.961,94.062a1.267,1.267,0,0,1-.6,1.246,3.751,3.751,0,0,0-.564-.1.772.772,0,0,0-.63-.615.8.8,0,0,0-.6-.654.779.779,0,0,0-.683-.577c-1.419-1.312-2.431-3.1-4.4-3.772a4.964,4.964,0,0,1-.077-.552l1.906-.016c1.2.577,2.314,1.377,3.738,1.283.258.607-1.024,1.752.65,1.867l0,0,1.274,1.231-.026.037c-.082.059-.2.1-.237.179-.1.2,0,.351.249.435Z" transform="translate(4.46 13.503)" fill="#5e7755"/>
      <path id="Tracciato_49343" data-name="Tracciato 49343" d="M40.447,45.561a.752.752,0,0,0,.624-.613L42.1,44.71c.083.079.164.158.245.238a1.306,1.306,0,0,0-.1.517v.008l-1.716.8-.206-.2a2.314,2.314,0,0,0,.13-.506" transform="translate(6.115 6.781)" fill="#5b6b56"/>
      <path id="Tracciato_49344" data-name="Tracciato 49344" d="M37.3,92.6c-1.426.1-2.543-.706-3.738-1.282-.207-.225-.587-.445-.593-.674-.045-1.646-.81-2.085-2.316-1.57-.236.081-.579-.158-.873-.249-2.22-2.116-4.454-4.22-6.653-6.357-.612-.594-1.132-1.26-2.079-.615a2.746,2.746,0,0,0-.571-.091,3.829,3.829,0,0,0-1.957-2.438.753.753,0,0,0-.645-.613.77.77,0,0,0-.5-.747A9.6,9.6,0,0,0,15.2,75.1c-.013-.387-.193-.607-.6-.6l-.06-.051a1.108,1.108,0,0,1,1.256-.521,1.522,1.522,0,0,0,1.4.439,1.834,1.834,0,0,0,.576.071.653.653,0,0,0,.659.593,2.645,2.645,0,0,0,1.835,1.315.686.686,0,0,0,.712.537,1.292,1.292,0,0,0,1.2.7,3.613,3.613,0,0,0,1.907,1.228.779.779,0,0,0,.685.565,1.242,1.242,0,0,0,1.106.8.719.719,0,0,0,.711.53,2.859,2.859,0,0,0,1.842,1.311.684.684,0,0,0,.7.542c1.217,1.093,2.047,2.634,3.706,3.219a.7.7,0,0,0,.669.578c.872,1.049,1.666,2.189,3.086,2.583a.707.707,0,0,0,.661.586,2.428,2.428,0,0,0,1.335,1.175l.708,1.1c-.046,1.087-.106,2.167-1.327,2.672l0,0c-.022-.69.132-1.442-.65-1.867" transform="translate(2.205 11.208)" fill="#3f5238"/>
      <path id="Tracciato_49345" data-name="Tracciato 49345" d="M14.588,74.421c.407,0,.587.217.6.6a.6.6,0,0,1-.6-.6" transform="translate(2.213 11.288)" fill="#899180"/>
      <path id="Tracciato_49346" data-name="Tracciato 49346" d="M30.44,30.587l-1.108-.1c-.627-.631-1-1.5-1.836-1.936-.714-1.536-1.134-3.241-2.515-4.4a1.321,1.321,0,0,0-.668-1.223q-.969-2.189-1.939-4.378a3.277,3.277,0,0,0-.092-1.207c-.563-1.124-.365-1.6.977-1.618.362-.006.713-.663,1.069-1.023l-.012.023q-.031.98-.063,1.959c-.309.108-.359.21-.142.259.028.006.1-.166.146-.255l1.353-.073-.013-.043c-.309,2.065.7,3.454,2.328,4.519l1.18,1.4a2.343,2.343,0,0,0,.766,1.768,1.413,1.413,0,0,0,.641,1.248,1.349,1.349,0,0,0,.527,1.341q.116.814.233,1.628c-.608.572-.107,1.582-.833,2.109" transform="translate(3.335 2.23)" fill="#4f5f45"/>
      <path id="Tracciato_49347" data-name="Tracciato 49347" d="M45.03,10.258c-.12-1.639-1.283-.661-2-.8L43.1,8.252a2.428,2.428,0,0,0,.717-1.815,2.626,2.626,0,0,0,.646-1.865l.509-.724,1.764-2.6a.641.641,0,0,0,.191-.483.761.761,0,0,0,.541-.706c1.077-.264,1.151.458,1.193,1.212a9.373,9.373,0,0,0-1.943,4.981c-.606.526-.481,1.262-.559,1.941a2.108,2.108,0,0,0-.653,1.859,4.185,4.185,0,0,0-.477.21" transform="translate(6.527 0)" fill="#6a7b61"/>
      <path id="Tracciato_49348" data-name="Tracciato 49348" d="M41.053,32.534c-2.2,1.36-1.1-.709-1.385-1.331l0,.009a.839.839,0,0,0,.785-.5,1.48,1.48,0,0,0,.629-1.268v-.007c.207-.214.416-.427.624-.641-.03-.235-.059-.47-.089-.7l-.035-.017c2.876-1.74,4.3-4.449,5.058-7.6.154-1.136,1.145-1.835,1.5-2.865a1.409,1.409,0,0,0,.617-1.271c.547-.548,1.208-1.025,1.212-1.918a.78.78,0,0,0,.541-.7,4.875,4.875,0,0,0,.532-.07c1,.663.6,1.723.742,2.63-.056.36-.114.722-.17,1.084a1.579,1.579,0,0,0-.647,1.24,3.8,3.8,0,0,0-1.185,2.577q-.325.615-.648,1.229a.686.686,0,0,0-.577.678,1.561,1.561,0,0,0-.709,1.194,9.8,9.8,0,0,0-2.481,3.782,1.119,1.119,0,0,0-.483.123,1.87,1.87,0,0,0-1.936,1.224l-.6.63c.073,1.1-1.384,1.391-1.3,2.492" transform="translate(6.013 2.07)" fill="#64785c"/>
      <path id="Tracciato_49349" data-name="Tracciato 49349" d="M19.259,23.187a1.207,1.207,0,0,1,1.307-1.316l1.079.805a1.545,1.545,0,0,0,.7,1.169,2.662,2.662,0,0,0,1.337,1.822.85.85,0,0,0,.519.724l.764,1.766c-.9-.117-1.836-.379-2.465.608l-.692-.5-1.256-.1.015-.016-.639-.564c-.851-.627-2.081-.757-2.519-1.923,2.581.1,2.63.054,1.885-1.895a1.279,1.279,0,0,0-.036-.583" transform="translate(2.641 3.317)" fill="#7e896d"/>
      <path id="Tracciato_49350" data-name="Tracciato 49350" d="M40.335,85.212a.7.7,0,0,1,.561.72.582.582,0,0,1-.561-.72" transform="translate(6.117 12.925)" fill="#6e5d4a"/>
      <path id="Tracciato_49351" data-name="Tracciato 49351" d="M43.14,8.2c.029.741.217,1.548-.776,1.863q.105-.895.212-1.79A3.209,3.209,0,0,1,43.14,8.2" transform="translate(6.426 1.244)" fill="#6a7b61"/>
      <path id="Tracciato_49352" data-name="Tracciato 49352" d="M46.364,41.106a.709.709,0,0,0,.607-.643c1.436-.348,2.118-1.645,3.151-2.5l1.6-.86,1.412.088c-3.86,2.1-6.14,6.151-10.084,8.142q-.019-.37-.039-.739l.252-.941c1.455-.337,2.246-1.483,3.1-2.546" transform="translate(6.523 5.628)" fill="#3f5442"/>
      <path id="Tracciato_49353" data-name="Tracciato 49353" d="M35.408,68.9l-.533-.518c.167,0,.334.009.5.02.01.166.021.333.032.5" transform="translate(5.29 10.372)" fill="#4b6443"/>
      <path id="Tracciato_49354" data-name="Tracciato 49354" d="M36,69.446c-.193-.179-.387-.358-.58-.536a.568.568,0,0,1,.58.536" transform="translate(5.373 10.452)" fill="#4b6443"/>
      <path id="Tracciato_49355" data-name="Tracciato 49355" d="M51.982,38.025l-1.412-.088.9-1.048a2.915,2.915,0,0,0,1.883-1.26,1.541,1.541,0,0,0,1.189-.708.677.677,0,0,0,.73-.517,3.383,3.383,0,0,0,2.5-1.265,1.478,1.478,0,0,0,1.271-.61,1.589,1.589,0,0,0,1.216-.678l1.664-.24c-.131.583-.628.782-1.075,1.045Q57.353,34.7,53.87,36.762c-.658.37-1.44.554-1.876,1.255Z" transform="translate(7.67 4.795)" fill="#54675a"/>
      <path id="Tracciato_49356" data-name="Tracciato 49356" d="M40.867,30.62c-.083-1.1,1.374-1.4,1.3-2.492l.6-.63A1.87,1.87,0,0,1,44.7,26.273c-.187.967-1.428,1.318-1.405,2.408a1.633,1.633,0,0,0-.7,1.186.815.815,0,0,0-.553.689l-1.16.7c0-.213-.008-.427-.012-.64" transform="translate(6.198 3.985)" fill="#7b9172"/>
      <path id="Tracciato_49357" data-name="Tracciato 49357" d="M20.194,80.844c.947-.645,1.468.021,2.079.615,2.2,2.137,4.433,4.242,6.653,6.357l-.041.732-1.115-.233a.79.79,0,0,0-.6-.646.785.785,0,0,0-.638-.618.715.715,0,0,0-.653-.614,3.922,3.922,0,0,0-2.485-1.921.766.766,0,0,0-.6-.643.748.748,0,0,0-.623-.64l-.646-.608a.8.8,0,0,0-.678-.579.764.764,0,0,0-.615-.63c-.022-.19-.035-.381-.039-.572" transform="translate(3.063 12.222)" fill="#597558"/>
      <path id="Tracciato_49358" data-name="Tracciato 49358" d="M55.173,36.763q3.486-2.056,6.973-4.108c.448-.263.944-.461,1.076-1.043l.007-.006c2.065.609,2.078.622.838,1.883-.434.442-.982.773-1.414,1.217-1.065,1.094-2.741,1.662-3.013,3.448l-.783,1.024a.689.689,0,0,0-.707.541l-1.114.772c-1.1-.04-1.666.852-2.438,1.387L50.8,43.689c-2.709,1.382-5.719,2.3-7.61,4.937a2.083,2.083,0,0,1-.591.067q-.307-.617-.617-1.233v-.008l.614-.629c.2-.219.4-.438.6-.655,3.944-1.992,6.225-6.046,10.084-8.142l.012-.008c.912.012,1.813,0,1.876-1.254" transform="translate(6.368 4.794)" fill="#334637"/>
      <path id="Tracciato_49359" data-name="Tracciato 49359" d="M52.938,40.709c.772-.534,1.339-1.428,2.438-1.388l-.059,2.5a2.925,2.925,0,0,0-.561,1.933l-.577.62-.587-.084c.271-1.282-.759-2.325-.654-3.577" transform="translate(8.028 5.964)" fill="#9cb8a2"/>
      <path id="Tracciato_49360" data-name="Tracciato 49360" d="M39.316,83.037a.645.645,0,0,1,.435.735.565.565,0,0,1-.435-.735" transform="translate(5.961 12.595)" fill="#6e5d4a"/>
      <path id="Tracciato_49361" data-name="Tracciato 49361" d="M27.739,87.6l.041-.732c.294.091.638.329.873.249,1.506-.515,2.272-.075,2.316,1.57.007.23.387.449.593.674l-1.906.016a5.566,5.566,0,0,0-.553-.084L27.739,87.6" transform="translate(4.207 13.175)" fill="#587354"/>
      <path id="Tracciato_49362" data-name="Tracciato 49362" d="M40.453,28.629a.836.836,0,0,1-.785.5q.136-.827.275-1.654a3.982,3.982,0,0,0,.518-.108l.05.046c-.02.4-.038.81-.058,1.214" transform="translate(6.017 4.151)" fill="#7b9172"/>
      <path id="Tracciato_49363" data-name="Tracciato 49363" d="M40.357,27.462a.7.7,0,0,1,.557-.7l.1.1a3.122,3.122,0,0,0-.037.586v.006a2.371,2.371,0,0,0-.57.055Z" transform="translate(6.121 4.059)" fill="#7b9172"/>
      <path id="Tracciato_49364" data-name="Tracciato 49364" d="M41.44,26.187c.029.235.059.47.088.7a4.371,4.371,0,0,0-.586.056l-.1-.1a.743.743,0,0,1,.6-.658" transform="translate(6.195 3.972)" fill="#7b9172"/>
      <path id="Tracciato_49365" data-name="Tracciato 49365" d="M21.119,28.851c.187.789,2.189.346,1.276,1.882-.463-.127-.92-.283-1.39-.372-1.243-.236-.614.463-.449.927l-.063.084-1.087-.2a.8.8,0,0,0-.724-.509,5.268,5.268,0,0,0-2.468-1.941.744.744,0,0,0-.679-.571,3.468,3.468,0,0,0-1.769-1.372.965.965,0,0,0-.17-.471c0-.2,0-.4,0-.6a2.777,2.777,0,0,1,1.789.349,16.109,16.109,0,0,0,5.739,2.8" transform="translate(2.062 3.899)" fill="#576a50"/>
      <path id="Tracciato_49366" data-name="Tracciato 49366" d="M23.8,14.492c-2.053-.355-2.148-.526-1.379-2.469.173.035.346.069.518.1a1.425,1.425,0,0,0,.685,1.2c.059.389.116.779.175,1.168" transform="translate(3.333 1.824)" fill="#6d7e67"/>
      <path id="Tracciato_49367" data-name="Tracciato 49367" d="M25.311,16.615l-1.352.073-.006-.006q.033-.978.064-1.958l1.109.779q.093.556.184,1.113" transform="translate(3.633 2.233)" fill="#5a6850"/>
      <path id="Tracciato_49368" data-name="Tracciato 49368" d="M31.765,48.637c0,.206,0,.412,0,.618l-.3.022h-.3l-.633-.029c-.012-.2-.017-.4-.02-.6l1.262-.013" transform="translate(4.627 7.377)" fill="#707e62"/>
      <path id="Tracciato_49369" data-name="Tracciato 49369" d="M49.851,102.809q-.019,1.259-.039,2.52l-.744.119h0a.641.641,0,0,0-.426-.746l-.539-.776a1.156,1.156,0,0,0-.683-1.214c-.177-.813-.886-1.229-1.361-1.818-.542-1.127-2.038-1.688-1.912-3.215,1.132-.1,2.043.7,3.134.764a3.646,3.646,0,0,0,2.529,3.125c-.041.416-.686.853.045,1.243" transform="translate(6.694 14.814)" fill="#464437"/>
      <path id="Tracciato_49370" data-name="Tracciato 49370" d="M50.285,16.833c-.141-.906.259-1.966-.743-2.63l.145-1.152a1.281,1.281,0,0,0,.665-1.23,4.854,4.854,0,0,0,1.329-1.792C53.308,9.8,52.426,11.1,52.7,11.7a2.134,2.134,0,0,0-.689,1.84,1.81,1.81,0,0,0-.577,1.293c-.658.456-.536,1.194-.663,1.84a3.308,3.308,0,0,0-.491.162" transform="translate(7.514 1.517)" fill="#7c8770"/>
      <path id="Tracciato_49371" data-name="Tracciato 49371" d="M48.239,59.126a1.361,1.361,0,0,1-.587,1.277c-.086-.073-.175-.144-.264-.212l-.48-.577c.227-.455.682-.557,1.1-.716l.23.228" transform="translate(7.115 8.933)" fill="#627759"/>
      <path id="Tracciato_49372" data-name="Tracciato 49372" d="M48.706,58c-.041.382-.082.765-.123,1.147a2.232,2.232,0,0,0-.488.138c-.076-.076-.153-.152-.229-.226q.308-.617.614-1.232Z" transform="translate(7.26 8.771)" fill="#627759"/>
      <path id="Tracciato_49373" data-name="Tracciato 49373" d="M45.255,89.215l1.381-1.3c-.077,2.207,2.576,2.946,1.684,5.15,1.24.2,1.839-.54,2.628-.693-.068.367-.135.736-.2,1.1a1.245,1.245,0,0,0-.56,1.319q-.314.672-.628,1.346l-1.147,1.244c-1.451-2.568-1.76-5.578-3.156-8.168" transform="translate(6.864 13.334)" fill="#526149"/>
      <path id="Tracciato_49374" data-name="Tracciato 49374" d="M48,96.3l1.147-1.244c.151.675-.276,1.509.549,2,.28.8-.061,1.784.722,2.436a2.044,2.044,0,0,0,.72,1.821,1.422,1.422,0,0,0,.521,1.337,1.535,1.535,0,0,0,.062.6c-.258.555-1.024-.01-1.269.574l-1.182-.622c-.731-.389-.086-.827-.044-1.243.314-2.026-1.561-3.574-1.223-5.6Z" transform="translate(7.275 14.418)" fill="#7a6d5a"/>
      <path id="Tracciato_49375" data-name="Tracciato 49375" d="M57.314,38.383c.273-1.786,1.947-2.354,3.013-3.448.433-.445.98-.775,1.414-1.217,1.239-1.261,1.228-1.274-.838-1.883a.891.891,0,0,1,.121-.5,1.371,1.371,0,0,0,1.282-.6,2.458,2.458,0,0,0,1.878-.636l1.8.044q.266.527.53,1.053a1.572,1.572,0,0,0-1.192,1.3.742.742,0,0,0-.582.665.772.772,0,0,0-.65.6.753.753,0,0,0-.7.542,3.688,3.688,0,0,0-1.815,1.336.8.8,0,0,0-.717.53,2.905,2.905,0,0,0-1.766,1.392.761.761,0,0,0-.669.582l-1.108.234" transform="translate(8.693 4.566)" fill="#54675a"/>
      <path id="Tracciato_49376" data-name="Tracciato 49376" d="M27.457,20.848c-1.632-1.065-2.636-2.455-2.328-4.52a3.418,3.418,0,0,1,.534.122,1.432,1.432,0,0,0,.63,1.254.733.733,0,0,0,.458.78c.222.6.129,1.339.772,1.754-.016.2-.038.408-.067.61" transform="translate(3.803 2.477)" fill="#5a6850"/>
      <path id="Tracciato_49377" data-name="Tracciato 49377" d="M55.1,70.335c0,.937.435,1.991-.691,2.634q.1-1.211.195-2.422c.167-.066.333-.137.5-.212" transform="translate(8.253 10.668)" fill="#647f5f"/>
      <path id="Tracciato_49378" data-name="Tracciato 49378" d="M56.116,66.383a1.447,1.447,0,0,1-.382,1.542q-.047-.606-.091-1.213a3.442,3.442,0,0,0,.473-.329" transform="translate(8.44 10.069)" fill="#647f5f"/>
      <path id="Tracciato_49379" data-name="Tracciato 49379" d="M29.891,19.736c1.483.845,2.846,1.771,2.536,3.81a4.306,4.306,0,0,1-.527-.116,2.19,2.19,0,0,0-1.246-1.9.767.767,0,0,0-.554-.693c-.07-.369-.139-.736-.208-1.1" transform="translate(4.534 2.993)" fill="#5b7156"/>
      <path id="Tracciato_49380" data-name="Tracciato 49380" d="M53.491,75.736c.412.829.848,1.625.193,2.573-.426.618-.848.324-1.309.174.014-.4.026-.8.04-1.206a1.457,1.457,0,0,0,.534-1.33,2.165,2.165,0,0,1,.541-.211" transform="translate(7.944 11.487)" fill="#5d7853"/>
      <path id="Tracciato_49381" data-name="Tracciato 49381" d="M27.845,15.348a1.287,1.287,0,0,1,.529,1.275,1.944,1.944,0,0,0-.47-.164l-.059-1.111" transform="translate(4.223 2.328)" fill="#4e6046"/>
      <path id="Tracciato_49382" data-name="Tracciato 49382" d="M49.651,57.283A1.5,1.5,0,0,0,49.1,58.6a4.372,4.372,0,0,0-.48.135l-.226-.173A13.057,13.057,0,0,1,50.4,52.995q.038.677.075,1.353c-.055.36-.109.722-.164,1.083-.63.471-.5,1.214-.665,1.852" transform="translate(7.341 8.038)" fill="#627759"/>
      <path id="Tracciato_49383" data-name="Tracciato 49383" d="M50.3,56.239q-.038-.677-.075-1.353c.242-1.23.914-2.381.684-3.7,1.611-1.824,1.306-4.2,1.831-6.338.068-.962.126-1.876-1.276-1a4.719,4.719,0,0,1-1.139.362c-.044-.565-.05-1.152-.75-1.353a2.261,2.261,0,0,1,.077-.526l3.794-1.81c-.1,1.251.925,2.3.655,3.577l.586.084-.069,1.255c-.615.5-.549,1.223-.6,1.9a2.016,2.016,0,0,0-.69,1.842,2.472,2.472,0,0,0-.66,1.861,1.738,1.738,0,0,0-.522,1.336,2.243,2.243,0,0,0-.674,1.855,2.7,2.7,0,0,0-.659,1.848c-.172.045-.342.1-.51.151" transform="translate(7.52 6.147)" fill="#7e987b"/>
      <path id="Tracciato_49384" data-name="Tracciato 49384" d="M43.219,44.347l-.6.656a1.626,1.626,0,0,0-.512.111c-.082-.079-.162-.159-.244-.237q.147-.485.3-.971l1.023-.3.038.739" transform="translate(6.349 6.614)" fill="#5b6b56"/>
      <path id="Tracciato_49385" data-name="Tracciato 49385" d="M44.254,10.781a1.192,1.192,0,0,1,.465-1.449l0,1.2q-.235.116-.462.249" transform="translate(6.702 1.415)" fill="#6a7b61"/>
      <path id="Tracciato_49386" data-name="Tracciato 49386" d="M14.829,24.138a1.15,1.15,0,0,1-1.246-.571l1.126.092c.041.16.082.319.12.479" transform="translate(2.06 3.575)" fill="#6a6d5d"/>
      <path id="Tracciato_49387" data-name="Tracciato 49387" d="M30.146,18.784q-.035.665-.068,1.332c-.179-.031-.355-.069-.527-.115a1.392,1.392,0,0,0-.592-1.278c-.045-.384-.089-.767-.135-1.151L29,17.439l1.134.716,0,0q0,.313.01.625" transform="translate(4.372 2.645)" fill="#5b7156"/>
      <path id="Tracciato_49388" data-name="Tracciato 49388" d="M19.814,66.122a.833.833,0,0,1-.769-.547l.637-.028a2.586,2.586,0,0,1,.132.575" transform="translate(2.889 9.942)" fill="#60715a"/>
      <path id="Tracciato_49389" data-name="Tracciato 49389" d="M19.182,65.652a1.07,1.07,0,0,1-1.2-.693l1.1.179c.036.172.067.342.093.515" transform="translate(2.728 9.853)" fill="#60715a"/>
      <path id="Tracciato_49390" data-name="Tracciato 49390" d="M27.014,70.051l-1.93.663c-.736-.59.175-1.186-.008-1.778a4.079,4.079,0,0,1,.592-.051,1.291,1.291,0,0,0,1.21.669,3.906,3.906,0,0,0,.136.5" transform="translate(3.76 10.448)" fill="#536a4e"/>
      <path id="Tracciato_49391" data-name="Tracciato 49391" d="M20.8,31.312l-1.08-.185a3.027,3.027,0,0,0-.132-.491l.063-.084c.5.084.959.214,1.149.76" transform="translate(2.97 4.634)" fill="#576a50"/>
      <path id="Tracciato_49392" data-name="Tracciato 49392" d="M20.827,31.44c-.19-.546-.654-.676-1.149-.76-.165-.463-.792-1.162.45-.927.47.089.927.245,1.39.372l.635.026c.191.344.388.358.59.008l3.364,2.109c-.865.936-2.022-.891-2.764.415l-1.079-.176a1.212,1.212,0,0,0-.152-.451,1.156,1.156,0,0,0-1.289-.621Z" transform="translate(2.939 4.506)" fill="#51664a"/>
      <path id="Tracciato_49393" data-name="Tracciato 49393" d="M20.632,31.209a1.155,1.155,0,0,1,1.289.621l-1.16-.117a3.981,3.981,0,0,0-.129-.5" transform="translate(3.129 4.733)" fill="#576a50"/>
      <path id="Tracciato_49394" data-name="Tracciato 49394" d="M28.281,16.457l.651-.017c.05.384.1.767.15,1.152l-.174.132a2.293,2.293,0,0,0-.473-.145q-.076-.561-.153-1.122" transform="translate(4.29 2.494)" fill="#5b7156"/>
      <path id="Tracciato_49395" data-name="Tracciato 49395" d="M13.682,25.7c0,.2,0,.4,0,.6l-.629.015c-.025-.191-.044-.385-.055-.577l.682-.043" transform="translate(1.972 3.899)" fill="#788674"/>
      <path id="Tracciato_49396" data-name="Tracciato 49396" d="M51.176,86.545c-.981.62-.332,1.786-.908,2.651-1.35.1-1.951-1.064-2.567-1.875-.594-.783.1-1.3.979-1.4.25.29.485.284.653-.068a2.186,2.186,0,0,1,1.214-1.171l.621.615q.005.624.008,1.247" transform="translate(7.201 12.844)" fill="#253825"/>
      <path id="Tracciato_49397" data-name="Tracciato 49397" d="M49.623,83.008c.489.063.971.14,1.225.648q-.3.314-.606.631a1.275,1.275,0,0,1-.62-1.28" transform="translate(7.527 12.59)" fill="#364a32"/>
      <path id="Tracciato_49398" data-name="Tracciato 49398" d="M50.765,85.384l-.622-.615.021-.651.6.009a3.681,3.681,0,0,0,.055.616c-.018.214-.036.427-.054.64" transform="translate(7.606 12.759)" fill="#364a32"/>
      <path id="Tracciato_49399" data-name="Tracciato 49399" d="M52.065,50.209c.229,1.318-.443,2.467-.684,3.7a13.041,13.041,0,0,0-2.005,5.568c-.206.41-.41.821-.615,1.231-.42.159-.875.261-1.1.715q0,.351-.008.7c-.008.2-.024.4-.047.6l-.578.665a5.427,5.427,0,0,1-.043.594,1.306,1.306,0,0,0-.612,1.246l-.1.624c-1.058-.032-.823.6-.618,1.208-1.4.205-.941,1.068-.661,1.866a1.978,1.978,0,0,0-1.739,1.421,2.212,2.212,0,0,1-.121.533c-.821-.029-1.146-.517-1.179-1.276a3.288,3.288,0,0,1,.064-.61,1.294,1.294,0,0,0,.575-1.252l0,0c.085-.054.2-.089.249-.166.119-.193.036-.354-.2-.454l.073-.656.516-.62-.008.008.6-.7a2.682,2.682,0,0,0-.05-.516q.071-.627.143-1.255l.516-.7a5.655,5.655,0,0,1,.127-.606l.562-.627c-.006-.212-.01-.424-.016-.636q.05-.314.1-.629l.555-.6,0-.007.617-.636q-.014-.636-.026-1.271l.059-.589a1.309,1.309,0,0,0,.574-1.294c.009-.2.015-.4.02-.6s.031-.4.035-.6l.013-.029,3.11-6.3a1.286,1.286,0,0,0,.63-1.228l1.237-.039c1.187,1.057-.5,2.155.046,3.221" transform="translate(6.364 7.127)" fill="#4b6042"/>
      <path id="Tracciato_49400" data-name="Tracciato 49400" d="M35.6,75.9q-.653-.929-1.3-1.858c2.315.43,2.315.43,2.559-1.3.739,0,1.51.091,1.975-.692l.283.028.283-.012.022.032.615,1.877c-.637.746.155,1.858-.654,2.561l-.633.629-.635.62h0l-.63.618c-.388-.152-.974-.519-.822-.761.879-1.405-.5-1.311-1.069-1.752Z" transform="translate(5.201 10.927)" fill="#4b6443"/>
      <path id="Tracciato_49401" data-name="Tracciato 49401" d="M49.5,48.843l-3.11,6.3q-.059-1.005-.119-2.011c1.164-2.746,2.953-5.192,3.867-8.058a.838.838,0,0,0,.481-.833.568.568,0,0,1,.207-.415,4.719,4.719,0,0,0,1.139-.362c1.4-.88,1.345.035,1.276,1-1.791.337-1.76,1.771-1.876,3.118l-1.237.039a1.242,1.242,0,0,0-.63,1.228" transform="translate(7.018 6.538)" fill="#627759"/>
      <path id="Tracciato_49402" data-name="Tracciato 49402" d="M42.072,66.622c.032.759.358,1.247,1.179,1.277L41.2,70.068c.289-1.57-.045-2.618.872-3.446" transform="translate(6.249 10.105)" fill="#506245"/>
      <path id="Tracciato_49403" data-name="Tracciato 49403" d="M45.844,56.26c.009.424.017.848.026,1.271a3.084,3.084,0,0,0-.563.068l-.059-.059a1.372,1.372,0,0,1,.6-1.281" transform="translate(6.863 8.533)" fill="#627759"/>
      <path id="Tracciato_49404" data-name="Tracciato 49404" d="M46.392,54.625a1.309,1.309,0,0,1-.575,1.294,1.3,1.3,0,0,1,.575-1.294" transform="translate(6.949 8.285)" fill="#627759"/>
      <path id="Tracciato_49405" data-name="Tracciato 49405" d="M42.588,65a1.293,1.293,0,0,1-.576,1.252A1.342,1.342,0,0,1,42.588,65" transform="translate(6.372 9.86)" fill="#506245"/>
      <path id="Tracciato_49406" data-name="Tracciato 49406" d="M46.4,53.581c0,.2-.015.4-.036.6-.246-.094-.336-.253-.221-.449.044-.075.169-.1.257-.151" transform="translate(6.992 8.127)" fill="#627759"/>
      <path id="Tracciato_49407" data-name="Tracciato 49407" d="M44.749,58.992c0,.212.01.424.015.637a3.779,3.779,0,0,0-.518.078l.5-.715" transform="translate(6.711 8.948)" fill="#627759"/>
      <path id="Tracciato_49408" data-name="Tracciato 49408" d="M44.252,59.623a3.564,3.564,0,0,1,.518-.079l-.561.625a1.644,1.644,0,0,1,.043-.546" transform="translate(6.705 9.031)" fill="#506245"/>
      <path id="Tracciato_49409" data-name="Tracciato 49409" d="M45.326,57.922l-.555.6a2.621,2.621,0,0,1-.025-.562q.288-.035.58-.041" transform="translate(6.786 8.785)" fill="#506245"/>
      <path id="Tracciato_49410" data-name="Tracciato 49410" d="M45.325,58.005q-.292.007-.58.041l.58-.675.058.058A3.617,3.617,0,0,0,45.33,58Z" transform="translate(6.787 8.702)" fill="#627759"/>
      <path id="Tracciato_49411" data-name="Tracciato 49411" d="M43.125,63.363l-.517.618c.173-.206.347-.412.517-.618" transform="translate(6.463 9.611)" fill="#506245"/>
      <path id="Tracciato_49412" data-name="Tracciato 49412" d="M43.648,62.76l-.6.7c.026-.193.046-.387.061-.583l.537-.119" transform="translate(6.53 9.519)" fill="#506245"/>
      <path id="Tracciato_49413" data-name="Tracciato 49413" d="M42.552,64.471c.241.1.324.26.2.454-.047.076-.164.112-.249.166a3.186,3.186,0,0,1,.044-.62" transform="translate(6.447 9.779)" fill="#506245"/>
      <path id="Tracciato_49414" data-name="Tracciato 49414" d="M44.166,60.613l-.516.7.516-.7" transform="translate(6.621 9.194)" fill="#627759"/>
      <path id="Tracciato_49415" data-name="Tracciato 49415" d="M43.64,62.828l-.537.119.488-.636a2.788,2.788,0,0,1,.048.517" transform="translate(6.538 9.451)" fill="#88745e"/>
      <path id="Tracciato_49416" data-name="Tracciato 49416" d="M37.058,77.643l.63-.62a3.707,3.707,0,0,1,.587,1.937,3.25,3.25,0,0,1-1.217-1.318" transform="translate(5.621 11.683)" fill="#4e5440"/>
      <path id="Tracciato_49417" data-name="Tracciato 49417" d="M37.6,77.1l.635-.618L37.6,77.1" transform="translate(5.704 11.601)" fill="#4e5440"/>
      <path id="Tracciato_49418" data-name="Tracciato 49418" d="M45.322,86.218q.031.663.061,1.326A1.693,1.693,0,0,1,44.1,85.868l1.222.35" transform="translate(6.689 13.024)" fill="#6e5d4a"/>
      <path id="Tracciato_49419" data-name="Tracciato 49419" d="M45.79,62.986a1.311,1.311,0,0,1,.612-1.247q-.055.567-.111,1.13a1.574,1.574,0,0,1-.5.117" transform="translate(6.945 9.364)" fill="#506245"/>
      <path id="Tracciato_49420" data-name="Tracciato 49420" d="M46.9,60.22c0-.234,0-.466.008-.7l.479.577a2.159,2.159,0,0,1-.487.123" transform="translate(7.114 9.028)" fill="#506245"/>
      <path id="Tracciato_49421" data-name="Tracciato 49421" d="M46.358,61.31l.578-.663-.578.663" transform="translate(7.031 9.199)" fill="#506245"/>
      <path id="Tracciato_49422" data-name="Tracciato 49422" d="M31.96,35.827c-.905.092-2.094-.249-2.024,1.329a3.143,3.143,0,0,1-.509-.055q-.066-.323-.13-.646a2.085,2.085,0,0,0,.018-.616,7.678,7.678,0,0,0,.867-.875c.344-.471-.493-1.949,1.2-1.265,1.247.506,1.236,1.187.58,2.128" transform="translate(4.444 5.084)" fill="#90a98e"/>
      <path id="Tracciato_49423" data-name="Tracciato 49423" d="M27.277,34.059c-.579-1.16-.571-1.168,1.256-1.254l-1.256,1.254" transform="translate(4.086 4.976)" fill="#51664a"/>
      <path id="Tracciato_49424" data-name="Tracciato 49424" d="M28.853,31.856a.666.666,0,0,1,.617.547c-.207.176-.415.351-.621.527l0-1.075" transform="translate(4.376 4.832)" fill="#51664a"/>
      <path id="Tracciato_49425" data-name="Tracciato 49425" d="M28.937,34.538l-.631-.622.631.622" transform="translate(4.293 5.144)" fill="#51664a"/>
      <path id="Tracciato_49426" data-name="Tracciato 49426" d="M29.379,35.534a2.085,2.085,0,0,1-.018.616q-.245-.309-.488-.62l.507,0" transform="translate(4.379 5.389)" fill="#51664a"/>
      <path id="Tracciato_49427" data-name="Tracciato 49427" d="M29,17.592c-.05-.384-.1-.768-.15-1.152,1.3.021,1.29.947,1.284,1.867L29,17.592" transform="translate(4.375 2.494)" fill="#4e6046"/>
      <path id="Tracciato_49428" data-name="Tracciato 49428" d="M29.973,18.689q-.012-.313-.01-.625c.246.085.347.24.246.441-.039.081-.155.124-.236.184" transform="translate(4.545 2.74)" fill="#4e6046"/>
      <path id="Tracciato_49429" data-name="Tracciato 49429" d="M30.848,38.1c1.4,1.4,1.708,3.349,2.526,5.042-.257,1.152.944,2.134.387,3.32-2.383-1.131-4.282-4.06-4.893-7.54.274.088.708.1.792.278.271.571.155,1.664,1.139,1.3,1.037-.38-.1-1.185.026-1.806a3.551,3.551,0,0,0,.023-.6" transform="translate(4.378 5.779)" fill="#51664a"/>
      <path id="Tracciato_49430" data-name="Tracciato 49430" d="M26.156,34.432c2.086.317,2.1.347,1.28,2.481a3.338,3.338,0,0,1-1.28-2.481" transform="translate(3.967 5.223)" fill="#51664a"/>
      <path id="Tracciato_49431" data-name="Tracciato 49431" d="M25.578,33.9l.652.6-.652-.6" transform="translate(3.88 5.142)" fill="#51664a"/>
      <path id="Tracciato_49432" data-name="Tracciato 49432" d="M27.833,37.7l.554.651-.554-.651" transform="translate(4.222 5.718)" fill="#51664a"/>
      <path id="Tracciato_49433" data-name="Tracciato 49433" d="M28.319,38.271l.629.618-.629-.618" transform="translate(4.295 5.805)" fill="#51664a"/>
      <path id="Tracciato_49434" data-name="Tracciato 49434" d="M33.859,41.6a.706.706,0,0,1,0-.606q.271.318.545.633c-.18-.01-.36-.02-.54-.028" transform="translate(5.125 6.218)" fill="#5c5a49"/>
      <path id="Tracciato_49435" data-name="Tracciato 49435" d="M27.277,36.617l.567.655-.567-.655" transform="translate(4.137 5.554)" fill="#51664a"/>
      <path id="Tracciato_49436" data-name="Tracciato 49436" d="M35.445,33.88a1.373,1.373,0,0,1,.6,1.271,1.2,1.2,0,0,1-.6-1.271" transform="translate(5.375 5.139)" fill="#536f49"/>
      <path id="Tracciato_49437" data-name="Tracciato 49437" d="M42.309,45.373l.617,1.232c-1.6.145-2.011,1.147-1.852,2.562l0,.006c-2.408-.644-.508-1.974-.478-3q.859-.4,1.716-.8" transform="translate(6.045 6.882)" fill="#3f5442"/>
      <path id="Tracciato_49438" data-name="Tracciato 49438" d="M38.287,52.977c-.1.4-.284.8-.7.846-.56.064-.484-.447-.544-.8l1.242-.045" transform="translate(5.619 8.035)" fill="#515143"/>
      <path id="Tracciato_49439" data-name="Tracciato 49439" d="M50.736,84.743a3.821,3.821,0,0,1-.055-.617c.476.04.993-.131,1.4.278-.357.489-.883.287-1.345.34" transform="translate(7.687 12.759)" fill="#5d7853"/>
      <path id="Tracciato_49440" data-name="Tracciato 49440" d="M52.451,85.82l-.817-.233C52.094,85.008,52.226,85.577,52.451,85.82Z" transform="translate(7.832 12.943)" fill="#5d7853"/>
      <path id="Tracciato_49441" data-name="Tracciato 49441" d="M53.981,80.332l.144-.263.119.117Z" transform="translate(8.188 12.145)" fill="#5d7853"/>
      <path id="Tracciato_49442" data-name="Tracciato 49442" d="M48.246,96.2c-.339,2.03,1.537,3.578,1.223,5.6a3.64,3.64,0,0,1-2.529-3.123c1.541-1.25-.212-1.775-.575-2.605l1.881.126" transform="translate(7.032 14.573)" fill="#765e47"/>
      <path id="Tracciato_49443" data-name="Tracciato 49443" d="M44.728,91.593c-.19-.018-.38-.035-.57-.051q0-1.258,0-2.513c.891.7.562,1.669.565,2.564" transform="translate(6.698 13.504)" fill="#6e5d4a"/>
      <path id="Tracciato_49444" data-name="Tracciato 49444" d="M50.644,42.1a2.324,2.324,0,0,0-.077.526L43.844,47.2l-.81-.169c1.892-2.64,4.9-3.555,7.61-4.937" transform="translate(6.527 6.385)" fill="#3f5442"/>
      <path id="Tracciato_49445" data-name="Tracciato 49445" d="M43.36,46.385l.81.169-3.252,2.46c-.159-1.417.252-2.419,1.852-2.562a2.083,2.083,0,0,0,.591-.067" transform="translate(6.201 7.036)" fill="#5b6b56"/>
      <path id="Tracciato_49446" data-name="Tracciato 49446" d="M39.252,61.235c-1.026-1.381-.509-2.939-.514-4.439.683,1.42.381,2.955.514,4.439" transform="translate(5.857 8.615)" fill="#88745e"/>
      <path id="Tracciato_49447" data-name="Tracciato 49447" d="M50.111,44.09a.84.84,0,0,1-.481.833.824.824,0,0,1,.481-.833" transform="translate(7.527 6.687)" fill="#7e987b"/>
      <path id="Tracciato_49448" data-name="Tracciato 49448" d="M38.737,72.376c-.465.783-1.236.692-1.975.692.331-.691.465-1.282-.637-1.232l-.007-.007a1.218,1.218,0,0,0-1.208-.638c-.012-.211-.022-.422-.033-.633.3-.56.856-.617,1.4-.7,1.1-.081,1.678.653,2.227,1.432.078.364.158.727.236,1.091" transform="translate(5.29 10.594)" fill="#34402e"/>
      <path id="Tracciato_49449" data-name="Tracciato 49449" d="M38.26,72.187c-.078-.364-.158-.727-.236-1.091.6.124.766.571.8,1.108l-.283.01Z" transform="translate(5.767 10.784)" fill="#81836c"/>
      <path id="Tracciato_49450" data-name="Tracciato 49450" d="M37.051,68.313c.054-.084.119-.245.16-.24.2.025.144.131-.146.256l-.014-.016" transform="translate(5.62 10.325)" fill="#88745e"/>
      <path id="Tracciato_49451" data-name="Tracciato 49451" d="M37.869,94.768c-.669-.355-.922-1.353-1.9-1.228h0c0-.205-.006-.41-.012-.614l.026-.037c1.053-.629,1.951-.661,2.5.647q-.309.615-.617,1.231" transform="translate(5.454 14.025)" fill="#5e7755"/>
      <path id="Tracciato_49452" data-name="Tracciato 49452" d="M19.6,26.836l.639.564-.639-.564" transform="translate(2.972 4.07)" fill="#576a50"/>
      <path id="Tracciato_49453" data-name="Tracciato 49453" d="M13.091,24.714q-.3-.316-.607-.631c.2.211.405.42.607.631" transform="translate(1.894 3.653)" fill="#6a6d5d"/>
      <path id="Tracciato_49454" data-name="Tracciato 49454" d="M29.45,36.629a3.129,3.129,0,0,0,.508.055c.207.4.412.8.62,1.2-.655-.169-2.052.332-1.127-1.255" transform="translate(4.42 5.556)" fill="#51664a"/>
      <path id="Tracciato_49455" data-name="Tracciato 49455" d="M21.229,27.427l.692.5-.692-.5" transform="translate(3.22 4.16)" fill="#575c49"/>
      <path id="Tracciato_49456" data-name="Tracciato 49456" d="M22.378,30.1c-.2.35-.4.336-.591-.008a5.323,5.323,0,0,1,.591.008" transform="translate(3.305 4.564)" fill="#576a50"/>
      <path id="Tracciato_49457" data-name="Tracciato 49457" d="M30,69.55c-.038-.185-.066-.373-.085-.561l.7-.706a14.874,14.874,0,0,1,1.229.9c.322.284,1.149.344.738,1.03-.36.6-.9.076-1.352-.037H30.6c-.2-.207-.4-.416-.6-.623" transform="translate(4.537 10.357)" fill="#4b6443"/>
      <path id="Tracciato_49458" data-name="Tracciato 49458" d="M35.184,72.954c-.159.05-.36.181-.466.127a.538.538,0,0,1-.23-.442c.028-.235.246-.3.426-.137a1.742,1.742,0,0,1,.271.453" transform="translate(5.231 10.983)" fill="#4b6443"/>
      <path id="Tracciato_49459" data-name="Tracciato 49459" d="M36,71.575c-.048.085-.114.25-.142.244-.208-.046-.16-.144.135-.251l.007.007" transform="translate(5.419 10.855)" fill="#4b6443"/>
      <path id="Tracciato_49460" data-name="Tracciato 49460" d="M34.92,70.464c.012.211.022.422.033.632-.461-.187-.48-.4-.033-.632" transform="translate(5.247 10.688)" fill="#4b6443"/>
      <path id="Tracciato_49461" data-name="Tracciato 49461" d="M30.508,69.925h.628c-.015.225-.029.449-.044.673-.195-.223-.389-.449-.584-.674" transform="translate(4.627 10.606)" fill="#4e6848"/>
      <path id="Tracciato_49462" data-name="Tracciato 49462" d="M29.982,73.225a2.172,2.172,0,0,1,2.512,1.224c-1.189.313-2.29.446-2.512-1.224" transform="translate(4.548 11.1)" fill="#90ad95"/>
      <path id="Tracciato_49463" data-name="Tracciato 49463" d="M35.451,75.379c-.045.091-.109.266-.134.261-.217-.048-.166-.145.144-.251l-.01-.01" transform="translate(5.337 11.433)" fill="#4b6443"/>
      <path id="Tracciato_49464" data-name="Tracciato 49464" d="M16.89,67.84c.1-.181.165-.471.313-.525.8-.293,1.776.5,2.483-.411,1.171,1.534,3.962,1.25,4.319,4.068l-3.984-1.228-.01,0-.633-.617,0,0a1.312,1.312,0,0,0-1.26-.627c-.195-.018-.39-.03-.586-.035q-.327-.3-.651-.606Z" transform="translate(2.56 10.148)" fill="#2e432e"/>
      <path id="Tracciato_49465" data-name="Tracciato 49465" d="M17.952,68.284a1.308,1.308,0,0,1,1.26.627,1.281,1.281,0,0,1-1.26-.627" transform="translate(2.723 10.357)" fill="#455d43"/>
      <path id="Tracciato_49466" data-name="Tracciato 49466" d="M16.878,67.728l.651.6a.831.831,0,0,1-.651-.6" transform="translate(2.56 10.273)" fill="#455d43"/>
      <path id="Tracciato_49467" data-name="Tracciato 49467" d="M19.048,68.83l.633.617-.633-.617" transform="translate(2.889 10.44)" fill="#455d43"/>
      <path id="Tracciato_49468" data-name="Tracciato 49468" d="M29.987,69.383c.2.207.4.416.6.623-.2-.207-.4-.416-.6-.623" transform="translate(4.548 10.524)" fill="#4e6848"/>
      <path id="Tracciato_49469" data-name="Tracciato 49469" d="M42.087,44.931a1.6,1.6,0,0,1,.514-.112l-.614.629a1.329,1.329,0,0,1,.1-.517" transform="translate(6.368 6.798)" fill="#3f5442"/>
      <path id="Tracciato_49470" data-name="Tracciato 49470" d="M23.995,16.429c-.05.089-.119.26-.146.255-.218-.05-.167-.151.142-.259Z" transform="translate(3.597 2.491)" fill="#5a6850"/>
      <path id="Tracciato_49471" data-name="Tracciato 49471" d="M40.408,27.416a2.371,2.371,0,0,1,.57-.055,1.477,1.477,0,0,1-.628,1.269c.02-.4.038-.81.058-1.214" transform="translate(6.12 4.15)" fill="#799072"/>
      <path id="Tracciato_49472" data-name="Tracciato 49472" d="M42.592,27.336c-.2.21-.4.42-.6.63l.6-.63" transform="translate(6.37 4.146)" fill="#799072"/>
      <path id="Tracciato_49473" data-name="Tracciato 49473" d="M40.933,26.854a4.172,4.172,0,0,1,.586-.055l-.624.641a3.122,3.122,0,0,1,.038-.586" transform="translate(6.203 4.065)" fill="#799072"/>
      <path id="Tracciato_49474" data-name="Tracciato 49474" d="M53.683,36.084c-.063,1.259-.964,1.266-1.876,1.254.436-.7,1.217-.886,1.876-1.254" transform="translate(7.858 5.473)" fill="#3f5442"/>
      <path id="Tracciato_49475" data-name="Tracciato 49475" d="M50.7,47.4c.117-1.345.085-2.78,1.877-3.118-.525,2.136-.22,4.513-1.831,6.338-.542-1.065,1.141-2.163-.046-3.22" transform="translate(7.681 6.716)" fill="#4e6845"/>
      <path id="Tracciato_49476" data-name="Tracciato 49476" d="M49.073,48.25a1.242,1.242,0,0,1,.63-1.228,1.287,1.287,0,0,1-.63,1.228" transform="translate(7.443 7.132)" fill="#4e6845"/>
      <path id="Tracciato_49477" data-name="Tracciato 49477" d="M45.253,58a3.618,3.618,0,0,1,.054-.569,3.083,3.083,0,0,1,.563-.067L45.253,58" transform="translate(6.864 8.701)" fill="#506245"/>
    </g>
  </g>
</svg>
