<svg id="Raggruppa_20" data-name="Raggruppa 20" xmlns="http://www.w3.org/2000/svg" xmlns:xlink="http://www.w3.org/1999/xlink" width="73.487" height="97.797" viewBox="0 0 73.487 97.797">
  <defs>
    <clipPath id="clip-path">
      <rect id="Rettangolo_14" data-name="Rettangolo 14" width="73.487" height="97.796" fill="none"/>
    </clipPath>
  </defs>
  <g id="Raggruppa_19" data-name="Raggruppa 19" clip-path="url(#clip-path)">
    <path id="Tracciato_49478" data-name="Tracciato 49478" d="M163.129,115.691c1.375-1.311,2.15-.406,2.777.332,2.431,2.86,4.861,5.727,7.16,8.693a84.333,84.333,0,0,1,10.329,16.64,5.074,5.074,0,0,1,.51,2.222,195.907,195.907,0,0,1-20.775-27.887" transform="translate(-112.489 -79.318)" fill="#fff"/>
    <path id="Tracciato_49479" data-name="Tracciato 49479" d="M94.4,183.039a10.421,10.421,0,0,1,1.627,1.457c3.874,5.262,7.694,10.561,11.563,15.827.688.938,1.569,1.734,2.277,2.659.584.765,1.206,1.653.312,2.577-.626.646-2.168.254-2.868-.7-4.16-5.682-8.8-11.039-11.944-17.41a42.271,42.271,0,0,1-1.522-4.038l.555-.369" transform="translate(-64.712 -126.219)" fill="#fff"/>
    <path id="Tracciato_49480" data-name="Tracciato 49480" d="M196.192,137.317a155.773,155.773,0,0,1-17.471-24.129,2.228,2.228,0,0,1,2.832.489c5.97,6.505,11.183,13.523,14.655,21.712a16.929,16.929,0,0,1,.52,1.675l-.536.252" transform="translate(-123.241 -77.855)" fill="#fff"/>
    <path id="Tracciato_49481" data-name="Tracciato 49481" d="M72.821,179.458c.96.441,1.88.565,2.256,1.081Q82.53,190.818,89.836,201.2a11.987,11.987,0,0,1,.9,2.1c-5.013-2.442-17.576-19.018-17.916-23.846" transform="translate(-50.215 -123.749)" fill="#fff"/>
    <path id="Tracciato_49482" data-name="Tracciato 49482" d="M73.5,83.989c-1.577-1.458-3.23-2.841-4.714-4.388A90.74,90.74,0,0,1,56.912,63.293c-.544-.9-.7-1.674.726-2.369A113.67,113.67,0,0,1,74.111,83.448l-.613.541" transform="translate(-38.975 -42.012)" fill="#fff"/>
    <path id="Tracciato_49483" data-name="Tracciato 49483" d="M72.33,205.636c-1.15-.578-2.172-.8-2.756-1.43a99.862,99.862,0,0,1-13.951-19.111,7.291,7.291,0,0,1-.411-1.14c3.407.494,15.972,16.212,17.119,21.681" transform="translate(-38.072 -126.85)" fill="#fff"/>
    <path id="Tracciato_49484" data-name="Tracciato 49484" d="M69.914,51.035a13.8,13.8,0,0,1,1.943,1.8q3.922,5.325,7.707,10.749a7.661,7.661,0,0,1,.687,2.149c1.016,3.365,2.625,6.248,6.076,7.721a4.207,4.207,0,0,1,1.545,1.2c.261.325.217.9.311,1.358-.444-.057-1.041.049-1.308-.2-2.042-1.9-4.136-3.766-6-5.837A60.137,60.137,0,0,1,70.142,53.469c-.289-.675-.464-1.4-.692-2.1l.464-.333" transform="translate(-47.891 -35.192)" fill="#fff"/>
    <path id="Tracciato_49485" data-name="Tracciato 49485" d="M179.295,150.017c5.115,6.758,10.853,13.135,13.124,21.634-6.235-6.072-11.307-12.856-13.124-21.634" transform="translate(-123.637 -103.448)" fill="#fff"/>
    <path id="Tracciato_49486" data-name="Tracciato 49486" d="M52.07,73.868A73.962,73.962,0,0,1,65.564,92.705C60.63,91.08,51.92,78.979,52.07,73.868" transform="translate(-35.905 -50.937)" fill="#fff"/>
    <path id="Tracciato_49487" data-name="Tracciato 49487" d="M43.584,186.131a75.715,75.715,0,0,1,12.348,16.791l-.353.342a2.475,2.475,0,0,1-.759-.27,9.438,9.438,0,0,1-1.09-1.056c-3.193-3.52-6.439-6.993-9.54-10.591-1.586-1.838-1.685-3.248-.606-5.215" transform="translate(-29.562 -128.351)" fill="#fff"/>
    <path id="Tracciato_49488" data-name="Tracciato 49488" d="M200.554,116.628c4.376,1.171,11.278,10.46,10.918,14.828a7.468,7.468,0,0,1-1.669-.912,44.7,44.7,0,0,1-8.948-12.588,6.359,6.359,0,0,1-.3-1.328" transform="translate(-138.296 -80.423)" fill="#fff"/>
    <path id="Tracciato_49489" data-name="Tracciato 49489" d="M192.153,199.093c-3.608-1.636-9.184-10.629-8.775-14.014,3.05.554,9.346,10.5,8.775,14.014" transform="translate(-126.438 -127.625)" fill="#fff"/>
    <path id="Tracciato_49490" data-name="Tracciato 49490" d="M169.583,19.613c-3.986-.55-10.234-9.177-9.833-13.578,2.433.657,9.843,10.89,9.833,13.578" transform="translate(-110.147 -4.162)" fill="#fff"/>
    <path id="Tracciato_49491" data-name="Tracciato 49491" d="M149.281,14.114c3.174,3.955,6.343,7.854,8.549,12.978a8.594,8.594,0,0,1-1.593-.5,18.675,18.675,0,0,1-8.034-9.938,1.841,1.841,0,0,1,1.078-2.542" transform="translate(-102.079 -9.733)" fill="#fff"/>
    <path id="Tracciato_49492" data-name="Tracciato 49492" d="M141.692,34.918c-.749-.33-1.759-.457-2.2-1.025-2.028-2.583-3.921-5.275-5.794-7.975-.247-.356-.273-1.331-.1-1.421.472-.241,1.312-.42,1.652-.16a17.406,17.406,0,0,1,6.859,9.977c-.138.2-.277.4-.415.6" transform="translate(-92.046 -16.694)" fill="#fff"/>
    <path id="Tracciato_49493" data-name="Tracciato 49493" d="M84.265,56.552,76.8,45.759l.327-.667c.7-.04,1.539-.35,2.089-.081,3.554,1.747,5.977,7.058,5.047,11.541" transform="translate(-52.961 -30.963)" fill="#fff"/>
    <path id="Tracciato_49494" data-name="Tracciato 49494" d="M126.881,41.3a9.065,9.065,0,0,1-1.073-2.87c-.022-2.1-1.286-3.309-2.655-4.519-1.092-.967-2.243-1.868-3.332-2.836-.835-.742-.623-1.507.074-2.222a1.177,1.177,0,0,1,1.951.191c2.021,2.573,3.986,5.19,5.958,7.8a1.024,1.024,0,0,1,.243.693c-.251,1.228-.557,2.443-.843,3.662l-.323.1" transform="translate(-82.251 -19.592)" fill="#fff"/>
    <path id="Tracciato_49495" data-name="Tracciato 49495" d="M182.774,204.515l6.747,9.184c-1,1.387-2.046,1.379-3.023.6-3.02-2.406-4.739-5.435-4.3-9.4l.571-.385" transform="translate(-125.594 -141.028)" fill="#fff"/>
    <path id="Tracciato_49496" data-name="Tracciato 49496" d="M56.188,100.986c-4.253-1.121-8.013-7.331-7.421-12,2.542,4.03,6.077,7.114,7.421,12" transform="translate(-33.586 -61.362)" fill="#fff"/>
    <path id="Tracciato_49497" data-name="Tracciato 49497" d="M177.02,13.327C171.508,10.449,168.871,5,165.441.255c.1-.084.2-.169.307-.255.267.368.562.719.8,1.107a13.558,13.558,0,0,0,6.2,5.628,8.454,8.454,0,0,1,4.533,4.89,6.567,6.567,0,0,1,.208,1.482l-.463.22" transform="translate(-114.084)" fill="#fff"/>
    <path id="Tracciato_49498" data-name="Tracciato 49498" d="M9.787,271.138a20.3,20.3,0,0,0,7.646,6.529,9.8,9.8,0,0,1,2.762,2.964c.68.9.12,1.543-.834,1.425a3.732,3.732,0,0,1-2.222-1.033c-2.665-3.093-5.21-6.288-7.8-9.448l.445-.437" transform="translate(-6.442 -186.969)" fill="#fff"/>
    <path id="Tracciato_49499" data-name="Tracciato 49499" d="M147.159,106.509c-2,.271-3.8.2-5.02-1.785a8.777,8.777,0,0,1-1.462-6.9l.619-.207a24.6,24.6,0,0,1,1.037,2.62,8.126,8.126,0,0,1,.191,2.114c.009,1.193.425,1.725,1.747,1.575,1.365-.155,2.474.931,2.888,2.578" transform="translate(-96.857 -67.317)" fill="#fff"/>
    <path id="Tracciato_49500" data-name="Tracciato 49500" d="M96.76,44.365a5.58,5.58,0,0,1-3.241-5.143c.127-1.266.745-1.571,1.836-.908a4.383,4.383,0,0,1,1.4,6.051" transform="translate(-64.475 -26.185)" fill="#fff"/>
    <path id="Tracciato_49501" data-name="Tracciato 49501" d="M136.219,127.566l-4-5.636,2.8-1.344c2.416,1.578,1.9,4.069,1.2,6.98" transform="translate(-91.175 -83.153)" fill="#fff"/>
    <path id="Tracciato_49502" data-name="Tracciato 49502" d="M178.592,224.615c1.622,1.453,3.126,2.811,2.947,5.115a1.667,1.667,0,0,1-.62,1.237,1.739,1.739,0,0,1-1.365-.329c-1.843-1.275-2.21-3.388-.963-6.023" transform="translate(-122.648 -154.888)" fill="#fff"/>
    <path id="Tracciato_49503" data-name="Tracciato 49503" d="M72.488,304.432c-1.9.023-4.466-2.053-4.756-3.9-.04-.256.531-.894.685-.853,2.046.54,3.887,1.427,4.856,3.476.4.851.232,1.383-.786,1.277" transform="translate(-46.705 -206.649)" fill="#fff"/>
    <path id="Tracciato_49504" data-name="Tracciato 49504" d="M46.741,296.107a9.884,9.884,0,0,1,5.794,3.3,1.368,1.368,0,0,1-.069,1.344,1.674,1.674,0,0,1-1.454.412,7.342,7.342,0,0,1-4.271-5.057" transform="translate(-32.231 -204.187)" fill="#fff"/>
    <path id="Tracciato_49505" data-name="Tracciato 49505" d="M87.583,299.577a17.431,17.431,0,0,1,2.686,2.094,1.447,1.447,0,0,1-1.921,2.079,8.662,8.662,0,0,1-2.109-2.123,1.612,1.612,0,0,1-.277-1.378c.152-.312.829-.369,1.621-.672" transform="translate(-59.232 -206.58)" fill="#fff"/>
    <path id="Tracciato_49506" data-name="Tracciato 49506" d="M31.964,197.784a9.489,9.489,0,0,1-2.473-1.516c-.308-.341.1-1.358.247-2.055.044-.207.389-.549.481-.515a4.635,4.635,0,0,1,1.913.9,13.323,13.323,0,0,1,1.434,2.535l-1.6.649" transform="translate(-20.258 -133.567)" fill="#fff"/>
    <path id="Tracciato_49507" data-name="Tracciato 49507" d="M199.328,22.877c.922-.112,1.625-.19,2.323-.281a2.265,2.265,0,0,1,2.605,1.886c.194,1.076-.583,1.756-1.8,1.545-1.692-.291-2.239-1.722-3.126-3.151" transform="translate(-137.451 -15.566)" fill="#fff"/>
    <path id="Tracciato_49508" data-name="Tracciato 49508" d="M106.868,301.478c-.07,1.406-1.362,2.188-2.353,1.4a10.362,10.362,0,0,1-1.9-2.569c-.04-.062.485-.682.626-.639,1.173.356,2.326.789,3.462,1.255.139.057.139.453.166.554" transform="translate(-70.758 -206.641)" fill="#fff"/>
    <path id="Tracciato_49509" data-name="Tracciato 49509" d="M115.561,199.96q-3-4.188-6-8.373c3.99,1.383,4.437,5.3,6.343,8.182l-.345.191" transform="translate(-75.552 -132.113)" fill="#fff"/>
    <path id="Tracciato_49510" data-name="Tracciato 49510" d="M.98,243.285q.89,3.647,1.779,7.292c-2.326-1.991-3.418-5.029-2.344-7.2l.565-.091" transform="translate(0 -167.763)" fill="#fff"/>
    <path id="Tracciato_49511" data-name="Tracciato 49511" d="M141.665,79.676a8.194,8.194,0,0,1-1.013-6.386c1.773.982,2.311,4.3,1.013,6.386" transform="translate(-96.833 -50.539)" fill="#fff"/>
    <path id="Tracciato_49512" data-name="Tracciato 49512" d="M119.622,295.492c1.107.437,2.36.228,2.2,1.543-.075.636-.959,1.176-1.476,1.76l-2.131-2.06q.7-.623,1.406-1.242" transform="translate(-81.518 -203.763)" fill="#fff"/>
    <path id="Tracciato_49513" data-name="Tracciato 49513" d="M106.385,36.893a4.922,4.922,0,0,1-.951-1.059c-.268-.6-.713-1.609-.485-1.83a3.145,3.145,0,0,1,2.024-.644,1.708,1.708,0,0,1,1.263.82c.137.263-.248.873-.513,1.249a16.043,16.043,0,0,1-1.339,1.465" transform="translate(-72.326 -23.004)" fill="#fff"/>
    <path id="Tracciato_49514" data-name="Tracciato 49514" d="M169.718,244.529c-.628-.916-1.389-1.628-1.255-1.9a9.746,9.746,0,0,1,1.725-2.016c.51.613,1.465,1.266,1.414,1.827-.06.637-1.017,1.191-1.884,2.094" transform="translate(-116.157 -165.917)" fill="#fff"/>
    <path id="Tracciato_49515" data-name="Tracciato 49515" d="M141.788,152.535c-1.171-1.043-1.569-4.183-.752-5.937a5.838,5.838,0,0,1,.752,5.937" transform="translate(-96.958 -101.09)" fill="#fff"/>
    <path id="Tracciato_49516" data-name="Tracciato 49516" d="M142.493,226.143c-1.8-1.925-.488-4-.96-5.959,1.491.723,1.953,3.658.96,5.959" transform="translate(-97.581 -151.833)" fill="#fff"/>
    <path id="Tracciato_49517" data-name="Tracciato 49517" d="M18.834,205.136c-.484-.682-1.023-1.173-.931-1.358a18.539,18.539,0,0,1,1.47-2.25c.479.433,1.428,1.128,1.357,1.257a16.245,16.245,0,0,1-1.9,2.352" transform="translate(-12.338 -138.968)" fill="#fff"/>
    <path id="Tracciato_49518" data-name="Tracciato 49518" d="M135.891,292.368c-.654.513-1.251,1.268-1.985,1.439-.387.091-1.4-.792-1.455-1.31-.139-1.255,1.035-1.12,1.847-1.143a5.485,5.485,0,0,1,1.457.363l.137.652" transform="translate(-91.327 -200.909)" fill="#fff"/>
    <path id="Tracciato_49519" data-name="Tracciato 49519" d="M142.654,177.772c-1.392-1.791-.742-3.771-.613-5.7,1.3,1.8,1.034,3.743.613,5.7" transform="translate(-97.766 -118.654)" fill="#fff"/>
    <path id="Tracciato_49520" data-name="Tracciato 49520" d="M142.044,196.1c1.387,1.778,1.067,3.781.718,5.793-1.426-1.752-.748-3.818-.718-5.793" transform="translate(-97.821 -135.227)" fill="#fff"/>
    <path id="Tracciato_49521" data-name="Tracciato 49521" d="M3.194,230.134a5.176,5.176,0,0,1-.052-3.731.98.98,0,0,1,.745-.572c.242.025.654.47.63.689-.139,1.238-.388,2.464-.6,3.694l-.725-.081" transform="translate(-1.944 -155.726)" fill="#fff"/>
    <path id="Tracciato_49522" data-name="Tracciato 49522" d="M148.113,283.165c.442,1.779-.719,2.2-1.567,2.735-.165.1-.945-.369-1.077-.715a1.337,1.337,0,0,1,.363-1.248,11.567,11.567,0,0,1,2.282-.773" transform="translate(-100.284 -195.263)" fill="#fff"/>
    <path id="Tracciato_49523" data-name="Tracciato 49523" d="M8.683,214.716a4.555,4.555,0,0,1,.431-1.41,8.326,8.326,0,0,1,1.333-1.163,13.64,13.64,0,0,1,.237,2.011,1.566,1.566,0,0,1-.557.873,5.829,5.829,0,0,1-.938.62l-.506-.931" transform="translate(-5.988 -146.288)" fill="#fff"/>
    <path id="Tracciato_49524" data-name="Tracciato 49524" d="M152.524,249.952h4.065c-1.261,1.947-2.959,1.971-4.065,0" transform="translate(-105.176 -172.36)" fill="#fff"/>
    <path id="Tracciato_49525" data-name="Tracciato 49525" d="M7.984,279.3q-1.577-2.332-3.155-4.662l.544-.4q1.7,2.265,3.39,4.529l-.779.531" transform="translate(-3.33 -189.11)" fill="#fff"/>
    <path id="Tracciato_49526" data-name="Tracciato 49526" d="M158.141,275.755c-.235.952-.428,1.734-.663,2.687-1.567-1.44-1.419-2,.663-2.687" transform="translate(-107.865 -190.153)" fill="#fff"/>
  </g>
</svg>
